<?xml version="1.0" standalone="no"?>
<!DOCTYPE svg PUBLIC "-//W3C//DTD SVG 1.1//EN" "http://www.w3.org/Graphics/SVG/1.1/DTD/svg11.dtd" >
<svg>
<metadata>
Created by FontForge 20090622 at Fri Dec  1 11:35:36 2017
 By deploy user
&#194;&#169; 2016 Microsoft Corporation. All Rights Reserved. 
</metadata>
<defs>
<font id="SegoeUI" horiz-adv-x="0" >
  <font-face 
    font-family="Segoe UI"
    font-weight="400"
    font-stretch="normal"
    units-per-em="2048"
    panose-1="2 11 5 2 4 2 4 2 2 3"
    ascent="1638"
    descent="-410"
    x-height="1024"
    cap-height="1434"
    bbox="-1173 -842 4094 2659"
    underline-thickness="119"
    underline-position="-119"
    unicode-range="U+000D-U+FFFD"
  />
<missing-glyph horiz-adv-x="1322" 
d="M166 0v1398h990v-1398h-990zM314 148h694v1102h-694v-1102z" />
    <glyph glyph-name="uniFEDF_uniFEE0_afii57457_uni0670_uniFEEA.liga" unicode="&#xfedf;&#xfee0;&#x651;&#x670;&#xfeea;" horiz-adv-x="2052" 
d="M1353 396q0 -59 6 -104t25 -76t54 -47t92 -16q37 0 70 11t57.5 33.5t38.5 57.5t14 84v1067h156v-1074q0 -101 -30 -168t-78.5 -106.5t-110 -55.5t-123.5 -16q-104 0 -162.5 32t-86.5 91h-4q-49 -63 -121.5 -93t-145.5 -30q-56 0 -106 12.5t-90 39t-69 67.5t-43 99
q-43 -17 -92 -23t-91 -6q-69 0 -132.5 16t-112.5 50.5t-78 88.5t-29 131q0 94 44 167t117 125t167 85t195 48v97h156v-587q0 -61 7 -106.5t26 -76t53 -45.5t88 -15q29 0 61 9.5t59 31.5t45 57.5t18 87.5v917h156v-860zM311 476q0 -38 17.5 -64.5t47.5 -43t69 -23.5t81 -7
q39 0 81.5 5t76.5 16v374q-77 -14 -144.5 -37.5t-118.5 -56t-80.5 -73.5t-29.5 -90zM1338 1760h-116v342h116v-342zM1071 1677q-3 -28 -3.5 -40t-0.5 -21q0 -51 19 -82.5t64 -31.5q44 0 61.5 31t17.5 90v27t-1 27h95q-1 -14 -1 -28v-25q0 -61 17 -91.5t62 -30.5
q47 0 65.5 31t18.5 86q0 31 -3 58h95q1 -12 1.5 -24t0.5 -20q0 -109 -49.5 -168t-131.5 -59q-38 0 -72 15.5t-54 47.5h-6q-21 -32 -57.5 -47.5t-75.5 -15.5q-45 0 -75.5 17t-49.5 46t-27.5 68t-8.5 83q0 33 3 57h96z" />
    <glyph glyph-name="uniFDF2" unicode="&#x627;&#xfedf;&#xfee0;&#x651;&#x670;&#xfeea;" horiz-adv-x="2565" arabic-form="isolated" 
d="M1353 396q0 -59 6 -104t25 -76t54 -47t92 -16q37 0 70 11t57.5 33.5t38.5 57.5t14 84v1067h156v-1074q0 -101 -30 -168t-78.5 -106.5t-110 -55.5t-123.5 -16q-104 0 -162.5 32t-86.5 91h-4q-49 -63 -121.5 -93t-145.5 -30q-56 0 -106 12.5t-90 39t-69 67.5t-43 99
q-43 -17 -92 -23t-91 -6q-69 0 -132.5 16t-112.5 50.5t-78 88.5t-29 131q0 94 44 167t117 125t167 85t195 48v97h156v-587q0 -61 7 -106.5t26 -76t53 -45.5t88 -15q29 0 61 9.5t59 31.5t45 57.5t18 87.5v917h156v-860zM311 476q0 -38 17.5 -64.5t47.5 -43t69 -23.5t81 -7
q39 0 81.5 5t76.5 16v374q-77 -14 -144.5 -37.5t-118.5 -56t-80.5 -73.5t-29.5 -90zM1338 1760h-116v342h116v-342zM1071 1677q-3 -28 -3.5 -40t-0.5 -21q0 -51 19 -82.5t64 -31.5q44 0 61.5 31t17.5 90v27t-1 27h95q-1 -14 -1 -28v-25q0 -61 17 -91.5t62 -30.5
q47 0 65.5 31t18.5 86q0 31 -3 58h95q1 -12 1.5 -24t0.5 -20q0 -109 -49.5 -168t-131.5 -59q-38 0 -72 15.5t-54 47.5h-6q-21 -32 -57.5 -47.5t-75.5 -15.5q-45 0 -75.5 17t-49.5 46t-27.5 68t-8.5 83q0 33 3 57h96zM2223 1516h156v-1516h-156v1516z" />
    <glyph glyph-name="uniFB4F" unicode="&#x5d0;&#x200d;&#x5dc;" horiz-adv-x="1336" 
d="M1161 1229v-319q0 -82 -20 -147.5t-57 -119.5t-89 -98t-117 -85q36 -43 77 -98l84.5 -115.5l87 -123.5l83.5 -123h-203q-196 291 -425 559.5t-493 514.5v622h170v-546l208 -216l169 -186l155 -180q92 53 146 129.5t54 182.5v349h170z" />
    <glyph glyph-name="uniFE8E" unicode="&#x627;" horiz-adv-x="513" arabic-form="final" 
d="M513 -14h-20q-102 0 -165.5 31t-98 82t-46.5 116t-12 134v1167h156v-1108q0 -66 5 -114t24 -79.5t56 -46.5t101 -15v-167z" />
    <glyph glyph-name="uniFE84" unicode="&#x623;" horiz-adv-x="513" arabic-form="final" 
d="M513 -14h-20q-102 0 -165.5 31t-98 82t-46.5 116t-12 134v1167h156v-1108q0 -66 5 -114t24 -79.5t56 -46.5t101 -15v-167zM371 1918q-13 3 -27.5 5t-30.5 2q-45 0 -76 -18.5t-31 -61.5q0 -88 142 -88h70v-97h-345v91h85l1 5q-23 26 -34 55t-11 58q0 34 14 62.5t39.5 49.5
t61 32.5t78.5 11.5q31 0 64 -6v-101z" />
    <glyph glyph-name="uniFE82" unicode="&#x622;" horiz-adv-x="513" arabic-form="final" 
d="M513 -14h-20q-102 0 -165.5 31t-98 82t-46.5 116t-12 134v1167h156v-1108q0 -66 5 -114t24 -79.5t56 -46.5t101 -15v-167zM613 1718q-26 -27 -50.5 -43.5t-47 -25.5t-43 -12t-38.5 -3q-51 0 -97 15t-89 33t-85 33t-87 15q-34 0 -58.5 -11t-49.5 -33l-62 70
q26 27 50.5 43.5t47 25.5t43 12t38.5 3q51 0 97 -15t89 -33t85 -33t86 -15q35 0 59.5 10.5t49.5 33.5z" />
    <glyph glyph-name="uniFE88" unicode="&#x625;" horiz-adv-x="513" arabic-form="final" 
d="M513 -14h-20q-102 0 -165.5 31t-98 82t-46.5 116t-12 134v1167h156v-1108q0 -66 5 -114t24 -79.5t56 -46.5t101 -15v-167zM371 -256q-13 3 -27.5 5t-30.5 2q-45 0 -76 -19t-31 -58q0 -91 142 -91h70v-97h-345v91h85l1 5q-23 26 -34 55t-11 58q0 34 14 62.5t39.5 49.5
t61 32.5t78.5 11.5q31 0 64 -6v-101z" />
    <glyph glyph-name="uniFE91" unicode="&#x628;" horiz-adv-x="684" arabic-form="initial" 
d="M153 153q46 0 81.5 7.5t59.5 28.5t36 57t12 93v444h156v-451q0 -75 -14 -130t-38.5 -93t-58 -62.5t-73 -37.5t-83 -18t-88.5 -5h-143q-35 0 -52.5 26t-17.5 58t17.5 57.5t52.5 25.5h153zM480 -346h-185v181h185v-181z" />
    <glyph glyph-name="uniFE97" unicode="&#x62a;" horiz-adv-x="684" arabic-form="initial" 
d="M153 153q46 0 81.5 7.5t59.5 28.5t36 57t12 93v444h156v-451q0 -75 -14 -130t-38.5 -93t-58 -62.5t-73 -37.5t-83 -18t-88.5 -5h-143q-35 0 -52.5 26t-17.5 58t17.5 57.5t52.5 25.5h153zM344 1021h-185v181h185v-181zM666 1021h-185v181h185v-181z" />
    <glyph glyph-name="uniFE9B" unicode="&#x62b;" horiz-adv-x="684" arabic-form="initial" 
d="M153 153q46 0 81.5 7.5t59.5 28.5t36 57t12 93v444h156v-451q0 -75 -14 -130t-38.5 -93t-58 -62.5t-73 -37.5t-83 -18t-88.5 -5h-143q-35 0 -52.5 26t-17.5 58t17.5 57.5t52.5 25.5h153zM344 1021h-185v181h185v-181zM666 1021h-185v181h185v-181zM505 1301h-185v181h185
v-181z" />
    <glyph glyph-name="uniFE9F" unicode="&#x62c;" horiz-adv-x="1197" arabic-form="initial" 
d="M0 -14q-35 0 -52.5 26t-17.5 58t17.5 57.5t52.5 25.5h59q123 0 235 27.5t215.5 72t199 100.5l185.5 113v5q-57 27 -105 53.5t-100 48t-114 35t-149 13.5q-78 0 -141 -10t-114 -26v157q55 18 121 29.5t144 11.5q80 0 142 -14.5t115 -36t101.5 -46.5t101 -47t113.5 -37
t139 -16l-32 -200q-43 -10 -100.5 -43l-130.5 -77.5t-161.5 -93.5t-192.5 -90.5t-224.5 -68.5t-256.5 -27h-50zM691 -346h-185v181h185v-181z" />
    <glyph glyph-name="uniFE9E" unicode="&#x62c;" horiz-adv-x="1197" arabic-form="final" 
d="M1036 513l-66 -18l-62 -18q5 -96 24 -159t54 -99.5t87.5 -51t123.5 -14.5v-167h-24q-99 0 -170.5 31.5t-119 90t-72 141.5t-29.5 186q-141 -51 -237 -106t-154.5 -114.5t-83.5 -123.5t-25 -133q0 -66 23 -124t73 -101t128.5 -67.5t190.5 -24.5q97 0 194.5 19t197.5 54
v-154q-109 -38 -203.5 -55.5t-193.5 -17.5q-152 0 -259.5 36t-175.5 97.5t-99.5 143t-31.5 173.5q0 56 12.5 114.5t43 117.5t80.5 117t125.5 112.5t178 104t237.5 91.5v8q-50 16 -88.5 32t-79 28.5t-90 20t-122.5 7.5q-75 0 -139 -10.5t-113 -25.5v157q55 18 121.5 29.5
t144.5 11.5q72 0 126.5 -11t101 -27.5t88 -36t88 -36.5t101 -28.5t126.5 -12.5zM768 -94h-185v181h185v-181z" />
    <glyph glyph-name="uniFEA3" unicode="&#x62d;" horiz-adv-x="1197" arabic-form="initial" 
d="M0 -14q-35 0 -52.5 26t-17.5 58t17.5 57.5t52.5 25.5h59q123 0 235 27.5t215.5 72t199 100.5l185.5 113v5q-57 27 -105 53.5t-100 48t-114 35t-149 13.5q-78 0 -141 -10t-114 -26v157q55 18 121 29.5t144 11.5q80 0 142 -14.5t115 -36t101.5 -46.5t101 -47t113.5 -37
t139 -16l-32 -200q-43 -10 -100.5 -43l-130.5 -77.5t-161.5 -93.5t-192.5 -90.5t-224.5 -68.5t-256.5 -27h-50z" />
    <glyph glyph-name="uniFEA2" unicode="&#x62d;" horiz-adv-x="1197" arabic-form="final" 
d="M1036 513l-66 -18l-62 -18q5 -96 24 -159t54 -99.5t87.5 -51t123.5 -14.5v-167h-24q-99 0 -170.5 31.5t-119 90t-72 141.5t-29.5 186q-141 -51 -237 -106t-154.5 -114.5t-83.5 -123.5t-25 -133q0 -66 23 -124t73 -101t128.5 -67.5t190.5 -24.5q97 0 194.5 19t197.5 54
v-154q-109 -38 -203.5 -55.5t-193.5 -17.5q-152 0 -259.5 36t-175.5 97.5t-99.5 143t-31.5 173.5q0 56 12.5 114.5t43 117.5t80.5 117t125.5 112.5t178 104t237.5 91.5v8q-50 16 -88.5 32t-79 28.5t-90 20t-122.5 7.5q-75 0 -139 -10.5t-113 -25.5v157q55 18 121.5 29.5
t144.5 11.5q72 0 126.5 -11t101 -27.5t88 -36t88 -36.5t101 -28.5t126.5 -12.5z" />
    <glyph glyph-name="uniFEA7" unicode="&#x62e;" horiz-adv-x="1197" arabic-form="initial" 
d="M0 -14q-35 0 -52.5 26t-17.5 58t17.5 57.5t52.5 25.5h59q123 0 235 27.5t215.5 72t199 100.5l185.5 113v5q-57 27 -105 53.5t-100 48t-114 35t-149 13.5q-78 0 -141 -10t-114 -26v157q55 18 121 29.5t144 11.5q80 0 142 -14.5t115 -36t101.5 -46.5t101 -47t113.5 -37
t139 -16l-32 -200q-43 -10 -100.5 -43l-130.5 -77.5t-161.5 -93.5t-192.5 -90.5t-224.5 -68.5t-256.5 -27h-50zM691 940h-185v181h185v-181z" />
    <glyph glyph-name="uniFEA6" unicode="&#x62e;" horiz-adv-x="1197" arabic-form="final" 
d="M1036 513l-66 -18l-62 -18q5 -96 24 -159t54 -99.5t87.5 -51t123.5 -14.5v-167h-24q-99 0 -170.5 31.5t-119 90t-72 141.5t-29.5 186q-141 -51 -237 -106t-154.5 -114.5t-83.5 -123.5t-25 -133q0 -66 23 -124t73 -101t128.5 -67.5t190.5 -24.5q97 0 194.5 19t197.5 54
v-154q-109 -38 -203.5 -55.5t-193.5 -17.5q-152 0 -259.5 36t-175.5 97.5t-99.5 143t-31.5 173.5q0 56 12.5 114.5t43 117.5t80.5 117t125.5 112.5t178 104t237.5 91.5v8q-50 16 -88.5 32t-79 28.5t-90 20t-122.5 7.5q-75 0 -139 -10.5t-113 -25.5v157q55 18 121.5 29.5
t144.5 11.5q72 0 126.5 -11t101 -27.5t88 -36t88 -36.5t101 -28.5t126.5 -12.5zM691 1061h-185v181h185v-181z" />
    <glyph glyph-name="uniFEB3" unicode="&#x633;" horiz-adv-x="1710" arabic-form="initial" 
d="M1011 408q0 -67 5.5 -115t25 -79t55.5 -46t98 -15q38 0 70 7.5t55 28.5t35.5 57t12.5 93v444h156v-457q0 -108 -28.5 -174.5t-75 -103.5t-106 -49.5t-122.5 -12.5q-44 0 -83.5 6.5t-72.5 20.5t-59 37.5t-44 58.5h-4q-26 -35 -59 -58.5t-68.5 -38t-71.5 -20.5t-69 -6
q-100 0 -159.5 31.5t-89.5 91.5h-4q-26 -35 -58.5 -58.5t-67.5 -38t-70.5 -20.5t-68.5 -6h-143q-35 0 -52.5 26t-17.5 58t17.5 57.5t52.5 25.5h153q29 0 62.5 9t61.5 31t46.5 57.5t18.5 88.5v267h156v-201q0 -65 5.5 -112.5t23.5 -78.5t52 -46t91 -15q36 0 69.5 8t59 29
t41 57t15.5 92v267h156v-198z" />
    <glyph glyph-name="uniFEB7" unicode="&#x634;" horiz-adv-x="1710" arabic-form="initial" 
d="M1011 408q0 -67 5.5 -115t25 -79t55.5 -46t98 -15q38 0 70 7.5t55 28.5t35.5 57t12.5 93v444h156v-457q0 -108 -28.5 -174.5t-75 -103.5t-106 -49.5t-122.5 -12.5q-44 0 -83.5 6.5t-72.5 20.5t-59 37.5t-44 58.5h-4q-26 -35 -59 -58.5t-68.5 -38t-71.5 -20.5t-69 -6
q-100 0 -159.5 31.5t-89.5 91.5h-4q-26 -35 -58.5 -58.5t-67.5 -38t-70.5 -20.5t-68.5 -6h-143q-35 0 -52.5 26t-17.5 58t17.5 57.5t52.5 25.5h153q29 0 62.5 9t61.5 31t46.5 57.5t18.5 88.5v267h156v-201q0 -65 5.5 -112.5t23.5 -78.5t52 -46t91 -15q36 0 69.5 8t59 29
t41 57t15.5 92v267h156v-198zM864 850h-185v181h185v-181zM1186 850h-185v181h185v-181zM1025 1130h-185v181h185v-181z" />
    <glyph glyph-name="uniFEBB" unicode="&#x635;" horiz-adv-x="2052" arabic-form="initial" 
d="M408 109q-26 -35 -58.5 -58.5t-67.5 -38t-70.5 -20.5t-68.5 -6h-143q-35 0 -52.5 26t-17.5 58t17.5 57.5t52.5 25.5h153q39 0 72 12t57 31.5t38 45t14 52.5q0 48 -7.5 103t-20.5 116h154q11 -63 17.5 -120t14.5 -115q3 -23 11.5 -44.5t25 -38.5t43.5 -27.5t67 -12.5
q24 65 62 140t89.5 149.5t116 144t141.5 122.5t167 85t191 32q121 0 208 -37.5t143 -101.5t83 -149.5t27 -181.5q0 -93 -22.5 -157t-63.5 -106.5t-97.5 -66t-124.5 -34.5t-145 -13.5t-159 -2.5q-179 0 -307 0.5t-215.5 3.5t-140 9.5t-79.5 18.5q-35 15 -58 39.5t-43 59.5h-4
zM1277 147q107 0 188 5t135.5 24.5t82 59t27.5 108.5q0 86 -25 146t-69 97.5t-104.5 54.5t-131.5 17q-110 0 -204 -46t-169.5 -119t-130.5 -163.5t-86 -180.5q92 -2 211 -2.5t276 -0.5z" />
    <glyph glyph-name="uniFEBF" unicode="&#x636;" horiz-adv-x="2052" arabic-form="initial" 
d="M408 109q-26 -35 -58.5 -58.5t-67.5 -38t-70.5 -20.5t-68.5 -6h-143q-35 0 -52.5 26t-17.5 58t17.5 57.5t52.5 25.5h153q39 0 72 12t57 31.5t38 45t14 52.5q0 48 -7.5 103t-20.5 116h154q11 -63 17.5 -120t14.5 -115q3 -23 11.5 -44.5t25 -38.5t43.5 -27.5t67 -12.5
q24 65 62 140t89.5 149.5t116 144t141.5 122.5t167 85t191 32q121 0 208 -37.5t143 -101.5t83 -149.5t27 -181.5q0 -93 -22.5 -157t-63.5 -106.5t-97.5 -66t-124.5 -34.5t-145 -13.5t-159 -2.5q-179 0 -307 0.5t-215.5 3.5t-140 9.5t-79.5 18.5q-35 15 -58 39.5t-43 59.5h-4
zM1277 147q107 0 188 5t135.5 24.5t82 59t27.5 108.5q0 86 -25 146t-69 97.5t-104.5 54.5t-131.5 17q-110 0 -204 -46t-169.5 -119t-130.5 -163.5t-86 -180.5q92 -2 211 -2.5t276 -0.5zM1147 1021h-185v181h185v-181z" />
    <glyph glyph-name="uniFECB" unicode="&#x639;" horiz-adv-x="1198" arabic-form="initial" 
d="M1084 171q-120 -55 -226.5 -90.5t-207 -56.5t-199 -29.5t-201.5 -8.5h-250q-35 0 -52.5 26t-17.5 58t17.5 57.5t52.5 25.5h369l1 6q-62 51 -101 100.5t-61 95.5t-29.5 86.5t-7.5 73.5q0 79 34.5 150t99.5 124.5t159 85t213 31.5q40 0 84.5 -4t92.5 -13v-170
q-46 8 -95.5 13.5t-103.5 5.5q-63 0 -122 -10t-105 -36.5t-73.5 -71.5t-27.5 -114q0 -33 11 -71t38 -79.5t73 -86t117 -90.5q128 25 252.5 67t264.5 108z" />
    <glyph glyph-name="uniFECC" unicode="&#x639;" horiz-adv-x="1197" arabic-form="medial" 
d="M1197 153v-167h-62q-135 0 -254.5 37t-228.5 106q-103 -64 -239 -103.5t-310 -39.5h-103q-35 0 -52.5 26t-17.5 58t17.5 57.5t52.5 25.5h113q128 0 227.5 21t178.5 56q-106 88 -192.5 192t-155.5 216v173l102 16t120 16.5t129.5 13t129.5 5.5q39 0 81 -2.5t82 -10.5
t75.5 -22t62.5 -36.5t43 -55t16 -76.5q0 -38 -12.5 -88.5t-39 -106.5t-67.5 -114t-98 -112q184 -85 402 -85zM855 612q0 51 -60.5 72t-163.5 21q-76 0 -155 -7.5t-152 -15.5v-11q69 -106 152.5 -194.5t188.5 -160.5q52 41 88.5 85t59 84.5t32.5 73.5t10 53z" />
    <glyph glyph-name="uniFECA" unicode="&#x639;" horiz-adv-x="1197" arabic-form="final" 
d="M1176 153h21v-167h-62q-86 0 -167.5 19t-157.5 53.5t-146.5 83t-134.5 107.5q-77 -32 -129 -67t-84 -72t-45.5 -76.5t-13.5 -79.5q0 -64 23 -121t72.5 -99.5t128.5 -67.5t192 -25q97 0 196.5 19t199.5 54v-154q-109 -38 -204.5 -55.5t-195.5 -17.5q-152 0 -259.5 36
t-176 97.5t-100.5 143t-32 172.5q0 54 14 106.5t50 105t99 104t161 102.5q-32 34 -67 78l-69 91l-65 93.5t-53 84.5v165l102 16t120.5 16.5t130 13t129.5 5.5q39 0 81 -3t81.5 -10.5t75.5 -21t62.5 -35.5t42.5 -53t16 -73q0 -35 -13.5 -82.5t-49.5 -101t-100 -109
t-166 -104.5q112 -82 233 -126.5t260 -44.5zM855 672q0 47 -60 67.5t-163 20.5q-76 0 -155.5 -7.5t-152.5 -15.5v-13q113 -176 248 -305q85 38 140 76.5t87 72.5t44 61t12 43z" />
    <glyph glyph-name="uniFECF" unicode="&#x63a;" horiz-adv-x="1198" arabic-form="initial" 
d="M1084 171q-120 -55 -226.5 -90.5t-207 -56.5t-199 -29.5t-201.5 -8.5h-250q-35 0 -52.5 26t-17.5 58t17.5 57.5t52.5 25.5h369l1 6q-62 51 -101 100.5t-61 95.5t-29.5 86.5t-7.5 73.5q0 79 34.5 150t99.5 124.5t159 85t213 31.5q40 0 84.5 -4t92.5 -13v-170
q-46 8 -95.5 13.5t-103.5 5.5q-63 0 -122 -10t-105 -36.5t-73.5 -71.5t-27.5 -114q0 -33 11 -71t38 -79.5t73 -86t117 -90.5q128 25 252.5 67t264.5 108zM634 1071h-185v181h185v-181z" />
    <glyph glyph-name="uniFED0" unicode="&#x63a;" horiz-adv-x="1197" arabic-form="medial" 
d="M1197 153v-167h-62q-135 0 -254.5 37t-228.5 106q-103 -64 -239 -103.5t-310 -39.5h-103q-35 0 -52.5 26t-17.5 58t17.5 57.5t52.5 25.5h113q128 0 227.5 21t178.5 56q-106 88 -192.5 192t-155.5 216v173l102 16t120 16.5t129.5 13t129.5 5.5q39 0 81 -2.5t82 -10.5
t75.5 -22t62.5 -36.5t43 -55t16 -76.5q0 -38 -12.5 -88.5t-39 -106.5t-67.5 -114t-98 -112q184 -85 402 -85zM855 612q0 51 -60.5 72t-163.5 21q-76 0 -155 -7.5t-152 -15.5v-11q69 -106 152.5 -194.5t188.5 -160.5q52 41 88.5 85t59 84.5t32.5 73.5t10 53zM691 1021h-185
v181h185v-181z" />
    <glyph glyph-name="uniFECE" unicode="&#x63a;" horiz-adv-x="1197" arabic-form="final" 
d="M1176 153h21v-167h-62q-86 0 -167.5 19t-157.5 53.5t-146.5 83t-134.5 107.5q-77 -32 -129 -67t-84 -72t-45.5 -76.5t-13.5 -79.5q0 -64 23 -121t72.5 -99.5t128.5 -67.5t192 -25q97 0 196.5 19t199.5 54v-154q-109 -38 -204.5 -55.5t-195.5 -17.5q-152 0 -259.5 36
t-176 97.5t-100.5 143t-32 172.5q0 54 14 106.5t50 105t99 104t161 102.5q-32 34 -67 78l-69 91l-65 93.5t-53 84.5v165l102 16t120.5 16.5t130 13t129.5 5.5q39 0 81 -3t81.5 -10.5t75.5 -21t62.5 -35.5t42.5 -53t16 -73q0 -35 -13.5 -82.5t-49.5 -101t-100 -109
t-166 -104.5q112 -82 233 -126.5t260 -44.5zM855 672q0 47 -60 67.5t-163 20.5q-76 0 -155.5 -7.5t-152.5 -15.5v-13q113 -176 248 -305q85 38 140 76.5t87 72.5t44 61t12 43zM691 1100h-185v181h185v-181z" />
    <glyph glyph-name="uniFED3" unicode="&#x641;" horiz-adv-x="1026" arabic-form="initial" 
d="M421 158q-74 30 -122 64t-76 72.5t-38.5 81t-10.5 89.5q0 64 24 134.5t66.5 130t100.5 98t126 38.5q72 0 131.5 -41t113.5 -129q20 -33 39 -70t33.5 -78t23.5 -86t9 -93q0 -96 -28.5 -161.5t-77 -108t-113 -65.5t-137 -33.5t-148 -12.5t-146.5 -2h-191q-35 0 -52.5 26
t-17.5 58t17.5 57.5t52.5 25.5h200q48 0 106.5 -0.5t112.5 -1.5zM684 365q0 29 -7.5 64.5t-21.5 72t-33 71t-41.5 61.5t-47.5 43t-51 16q-29 0 -56.5 -19t-49.5 -49t-35.5 -68t-13.5 -76q0 -32 12.5 -63.5t45 -64.5t90 -70t147.5 -79q33 24 47.5 62.5t14.5 98.5zM562 1135
h-185v181h185v-181z" />
    <glyph glyph-name="uniFED4" unicode="&#x641;" horiz-adv-x="1026" arabic-form="medial" 
d="M421 158q-74 30 -122 64t-76 72.5t-38.5 81t-10.5 89.5q0 64 24 134.5t66.5 130t100.5 98t126 38.5q72 0 132 -41.5t114 -127.5q21 -33 39.5 -70t33 -78.5t23 -86.5t8.5 -93q0 -66 -13.5 -116t-38.5 -88q56 -9 113 -10.5t124 -1.5v-167h-22q-44 0 -92 3.5t-95.5 10.5
t-93.5 18t-85 26q-50 -22 -106 -33.5t-114.5 -17t-116.5 -6.5t-110 -1h-191q-35 0 -52.5 26t-17.5 58t17.5 57.5t52.5 25.5h200q48 0 106.5 -0.5t112.5 -1.5zM684 365q0 29 -7.5 64.5t-21.5 72t-33 71t-41.5 61.5t-47.5 43t-51 16q-29 0 -57 -19t-49.5 -49t-35 -68
t-13.5 -76q0 -32 12.5 -63t46 -65t91.5 -71t149 -80q33 24 45.5 63.5t12.5 99.5zM562 1135h-185v181h185v-181z" />
    <glyph glyph-name="uniFED7" unicode="&#x642;" horiz-adv-x="1026" arabic-form="initial" 
d="M421 158q-74 30 -122 64t-76 72.5t-38.5 81t-10.5 89.5q0 64 24 134.5t66.5 130t100.5 98t126 38.5q72 0 131.5 -41t113.5 -129q20 -33 39 -70t33.5 -78t23.5 -86t9 -93q0 -96 -28.5 -161.5t-77 -108t-113 -65.5t-137 -33.5t-148 -12.5t-146.5 -2h-191q-35 0 -52.5 26
t-17.5 58t17.5 57.5t52.5 25.5h200q48 0 106.5 -0.5t112.5 -1.5zM684 365q0 29 -7.5 64.5t-21.5 72t-33 71t-41.5 61.5t-47.5 43t-51 16q-29 0 -56.5 -19t-49.5 -49t-35.5 -68t-13.5 -76q0 -32 12.5 -63.5t45 -64.5t90 -70t147.5 -79q33 24 47.5 62.5t14.5 98.5zM401 1135
h-185v181h185v-181zM723 1135h-185v181h185v-181z" />
    <glyph glyph-name="uniFED8" unicode="&#x642;" horiz-adv-x="1026" arabic-form="medial" 
d="M421 158q-74 30 -122 64t-76 72.5t-38.5 81t-10.5 89.5q0 64 24 134.5t66.5 130t100.5 98t126 38.5q72 0 132 -41.5t114 -127.5q21 -33 39.5 -70t33 -78.5t23 -86.5t8.5 -93q0 -66 -13.5 -116t-38.5 -88q56 -9 113 -10.5t124 -1.5v-167h-22q-44 0 -92 3.5t-95.5 10.5
t-93.5 18t-85 26q-50 -22 -106 -33.5t-114.5 -17t-116.5 -6.5t-110 -1h-191q-35 0 -52.5 26t-17.5 58t17.5 57.5t52.5 25.5h200q48 0 106.5 -0.5t112.5 -1.5zM684 365q0 29 -7.5 64.5t-21.5 72t-33 71t-41.5 61.5t-47.5 43t-51 16q-29 0 -57 -19t-49.5 -49t-35 -68
t-13.5 -76q0 -32 12.5 -63t46 -65t91.5 -71t149 -80q33 24 45.5 63.5t12.5 99.5zM401 1135h-185v181h185v-181zM723 1135h-185v181h185v-181z" />
    <glyph glyph-name="uniFEDB" unicode="&#x643;" horiz-adv-x="1026" arabic-form="initial" 
d="M0 -14q-35 0 -52.5 26t-17.5 58t17.5 57.5t52.5 25.5h296q97 0 161 11t102 32t53 52.5t15 72.5q0 76 -44 146t-126 137t-197.5 133.5t-259.5 136.5v118l843 546v-176l-666 -417q139 -66 251.5 -135t191.5 -144.5t122 -158.5t43 -176q0 -30 -5.5 -67t-23 -75.5t-50.5 -75
t-87.5 -65t-134.5 -45.5t-191 -17h-293z" />
    <glyph glyph-name="uniFEDF" unicode="&#x644;" horiz-adv-x="684" arabic-form="initial" 
d="M153 153q46 0 81.5 7.5t59.5 28.5t36 57t12 93v1177h156v-1184q0 -75 -14 -130t-38.5 -93t-58 -62.5t-73 -37.5t-83 -18t-88.5 -5h-143q-35 0 -52.5 26t-17.5 58t17.5 57.5t52.5 25.5h153z" />
    <glyph glyph-name="uniFEE3" unicode="&#x645;" horiz-adv-x="1198" arabic-form="initial" 
d="M0 -14q-35 0 -52.5 26t-17.5 58t17.5 57.5t52.5 25.5h26q63 0 106.5 23t73 55.5t46.5 68.5t28 62q20 47 47.5 104t69.5 106t102.5 82t146.5 33q97 0 166.5 -38.5t113.5 -96.5t65 -125t21 -125q0 -59 -21.5 -116t-64.5 -101.5t-107.5 -71.5t-151.5 -27q-54 0 -103.5 11.5
t-93.5 31.5t-81.5 46.5t-68.5 57.5q-53 -80 -130 -113.5t-171 -33.5h-19zM385 261q42 -52 113.5 -79.5t156.5 -27.5q94 0 147 34t53 104q0 33 -13 73t-39.5 74.5t-67.5 58t-97 23.5q-50 0 -89 -20t-70.5 -55.5t-54 -83t-39.5 -101.5z" />
    <glyph glyph-name="uniFEE7" unicode="&#x646;" horiz-adv-x="684" arabic-form="initial" 
d="M153 153q46 0 81.5 7.5t59.5 28.5t36 57t12 93v444h156v-451q0 -75 -14 -130t-38.5 -93t-58 -62.5t-73 -37.5t-83 -18t-88.5 -5h-143q-35 0 -52.5 26t-17.5 58t17.5 57.5t52.5 25.5h153zM505 1021h-185v181h185v-181z" />
    <glyph glyph-name="uni06BE" unicode="&#x6be;" horiz-adv-x="1539" arabic-form="isolated" 
d="M742 76q-35 -29 -79.5 -46.5t-94 -27.5t-102 -13t-103.5 -3q-85 0 -149 5.5t-99 10.5l-32 167q82 -10 160 -14t159 -4q128 0 187 3l1 4q-74 30 -122 64t-76 72.5t-38.5 81t-10.5 89.5q0 55 18.5 115.5t52 114.5t79.5 95t102 58l1 6l-83 54v199q202 -113 355 -236
t255.5 -238.5t154.5 -215t52 -165.5q0 -47 -11.5 -94.5t-35 -85.5t-58.5 -62t-81 -24q-30 0 -75 4.5t-98.5 15t-112.5 27.5t-116 43zM718 239q51 63 67.5 126t16.5 118q0 45 -14 85t-35.5 70.5t-47.5 48t-50 17.5q-28 0 -57 -20.5t-52.5 -53t-38.5 -72t-15 -77.5
q0 -25 8.5 -52t33 -57t68.5 -63t116 -70zM912 596q9 -32 13 -62t4 -63q0 -78 -21 -151t-66 -127q67 -26 144 -42t152 -22q29 44 29 98q0 43 -20.5 89.5t-55 94.5t-80 96t-94.5 94z" />
    <glyph glyph-name="uniFBAB" unicode="&#x6be;" horiz-adv-x="1368" arabic-form="final" 
d="M513 -14q-83 0 -145.5 1.5t-108 3.5t-75.5 5t-49 6l-32 169q44 -5 89 -8.5t95.5 -5.5t108 -3t126.5 -1q21 133 53.5 236.5t71.5 181.5t81.5 132t83.5 87.5t77.5 48.5t64.5 15q46 0 87.5 -34.5t73 -89.5t50 -123t18.5 -135q0 -53 -11.5 -98.5t-31 -84.5t-45.5 -71.5
t-54 -57.5l2 -7h325v-167h-320l-1 -6q72 -45 104 -105t32 -122q0 -52 -20 -100t-56 -85t-86 -59t-111 -22q-38 0 -80.5 10t-85.5 33t-83 60.5t-71.5 93t-52 130.5t-24.5 172zM806 153q48 0 89 25.5t70 67t45.5 94t16.5 106.5q0 40 -8.5 82.5t-23.5 77.5t-34.5 57t-40.5 22
q-26 0 -62 -35.5t-72 -103t-66 -167t-44 -226.5h130zM665 -14q4 -88 27 -150.5t57.5 -102.5t75.5 -59t82 -19q33 0 55.5 11t36.5 28t20.5 39t6.5 44q0 36 -16 73.5t-46.5 67.5t-74.5 49t-100 19h-124z" />
    <glyph glyph-name="uniFEEA" unicode="&#x647;" horiz-adv-x="1026" arabic-form="final" 
d="M684 983h156v-587q0 -62 7.5 -108t28 -76t56.5 -44.5t94 -14.5v-167h-22q-56 0 -106 12.5t-90 39t-69 67.5t-43 99q-43 -17 -92 -23t-91 -6q-69 0 -132.5 16t-112.5 50.5t-78 88.5t-29 131q0 94 44 167t117 125t167 85t195 48v97zM311 476q0 -38 18 -64.5t47 -43
t68.5 -23.5t81.5 -7q39 0 81.5 5t76.5 16v374q-76 -14 -144 -37.5t-119 -56t-80.5 -73.5t-29.5 -90z" />
    <glyph glyph-name="uniFEF3" unicode="&#x64a;" horiz-adv-x="684" arabic-form="initial" 
d="M153 153q46 0 81.5 7.5t59.5 28.5t36 57t12 93v444h156v-451q0 -75 -14 -130t-38.5 -93t-58 -62.5t-73 -37.5t-83 -18t-88.5 -5h-143q-35 0 -52.5 26t-17.5 58t17.5 57.5t52.5 25.5h153zM262 -346h-185v181h185v-181zM584 -346h-185v181h185v-181z" />
    <glyph glyph-name="uniFEF2" unicode="&#x64a;" horiz-adv-x="1710" arabic-form="final" 
d="M1710 153v-167h-22q-67 0 -118.5 16.5t-90.5 43t-68.5 61t-52 70t-41 69.5t-36.5 61q-23 35 -44.5 49t-45.5 14q-29 0 -48.5 -17t-19.5 -53q0 -33 16 -55t35 -45.5t35 -54.5t16 -83q0 -58 -22.5 -104t-61.5 -81.5t-91 -60t-111.5 -40.5t-123.5 -23t-126 -7
q-156 0 -259 40t-164.5 107.5t-86.5 156.5t-25 188q0 63 9 124.5t26 130.5h154q-14 -64 -23 -119.5t-9 -117.5q0 -74 16.5 -136t61.5 -108t125.5 -71.5t209.5 -25.5q84 0 148.5 11t109 30.5t67 46t22.5 58.5q0 28 -16 49.5l-35 45.5t-35 56.5t-16 82.5q0 53 19 96.5
t51.5 74.5t76 48t91.5 17q49 0 97 -22t87 -80q17 -26 32 -56.5l31.5 -61t37.5 -59.5t50.5 -51t70.5 -35t97 -13zM701 -557h-185v181h185v-181zM1023 -557h-185v181h185v-181z" />
    <glyph glyph-name="uniFE94" unicode="&#x629;" horiz-adv-x="1026" arabic-form="final" 
d="M684 983h156v-587q0 -62 7.5 -108t28 -76t56.5 -44.5t94 -14.5v-167h-22q-56 0 -106 12.5t-90 39t-69 67.5t-43 99q-43 -17 -92 -23t-91 -6q-69 0 -132.5 16t-112.5 50.5t-78 88.5t-29 131q0 94 44 167t117 125t167 85t195 48v97zM311 476q0 -38 18 -64.5t47 -43
t68.5 -23.5t81.5 -7q39 0 81.5 5t76.5 16v374q-76 -14 -144 -37.5t-119 -56t-80.5 -73.5t-29.5 -90zM485 1199h-185v181h185v-181zM807 1199h-185v181h185v-181z" />
    <glyph glyph-name="uniFEF0" unicode="&#x649;" horiz-adv-x="1710" arabic-form="final" 
d="M1710 153v-167h-22q-67 0 -118.5 16.5t-90.5 43t-68.5 61t-52 70t-41 69.5t-36.5 61q-23 35 -44.5 49t-45.5 14q-29 0 -48.5 -17t-19.5 -53q0 -33 16 -55t35 -45.5t35 -54.5t16 -83q0 -58 -22.5 -104t-61.5 -81.5t-91 -60t-111.5 -40.5t-123.5 -23t-126 -7
q-156 0 -259 40t-164.5 107.5t-86.5 156.5t-25 188q0 63 9 124.5t26 130.5h154q-14 -64 -23 -119.5t-9 -117.5q0 -74 16.5 -136t61.5 -108t125.5 -71.5t209.5 -25.5q84 0 148.5 11t109 30.5t67 46t22.5 58.5q0 28 -16 49.5l-35 45.5t-35 56.5t-16 82.5q0 53 19 96.5
t51.5 74.5t76 48t91.5 17q49 0 97 -22t87 -80q17 -26 32 -56.5l31.5 -61t37.5 -59.5t50.5 -51t70.5 -35t97 -13z" />
    <glyph glyph-name="uniFE8B" unicode="&#x626;" horiz-adv-x="684" arabic-form="initial" 
d="M153 153q46 0 81.5 7.5t59.5 28.5t36 57t12 93v444h156v-451q0 -75 -14 -130t-38.5 -93t-58 -62.5t-73 -37.5t-83 -18t-88.5 -5h-143q-35 0 -52.5 26t-17.5 58t17.5 57.5t52.5 25.5h153zM485 1235q-13 3 -27.5 5t-30.5 2q-45 0 -76 -18.5t-31 -61.5q0 -88 142 -88h70v-97
h-345v91h85l1 5q-23 26 -34 55t-11 58q0 34 14 62.5t39.5 49.5t61 32.5t78.5 11.5q31 0 64 -6v-101z" />
    <glyph glyph-name="uniFEFB" unicode="&#xfefb;" horiz-adv-x="1197" arabic-form="isolated" 
d="M562 38l-448 1330h166l444 -1330h-162zM82 168q127 -15 239.5 -19.5t221.5 -4.5q79 0 137.5 3t97.5 21.5t58 58t19 112.5v1177h156v-1184q0 -86 -17.5 -145.5t-49 -99t-76.5 -61.5t-100 -32.5t-119.5 -13t-134.5 -2.5q-97 0 -198.5 5t-201.5 19z" />
    <glyph glyph-name="uniFEFC" unicode="&#xfefc;" horiz-adv-x="1197" arabic-form="final" 
d="M562 38l-448 1330h166l444 -1330h-162zM82 168q127 -15 239.5 -19.5t221.5 -4.5q79 0 137.5 3t97.5 21.5t58 58t19 112.5v1177h156v-1108q0 -71 7.5 -120t28.5 -79t57 -43t93 -13v-167h-22q-90 0 -144.5 29.5t-84.5 89.5h-4q-29 -45 -72 -70.5t-97.5 -38t-119.5 -15.5
t-139 -3q-97 0 -198.5 5t-201.5 19z" />
    <glyph glyph-name="uniFEF7" unicode="&#xfef7;" horiz-adv-x="1197" arabic-form="isolated" 
d="M82 168q127 -15 239.5 -19.5t221.5 -4.5q79 0 137.5 3t97.5 21.5t58 58t19 112.5v1177h156v-1184q0 -86 -17.5 -145.5t-49 -99t-76.5 -61.5t-100 -32.5t-119.5 -13t-134.5 -2.5q-97 0 -198.5 5t-201.5 19zM562 38l-448 1330h166l444 -1330h-162zM371 1805q-13 3 -27.5 5
t-30.5 2q-45 0 -76 -18.5t-31 -61.5q0 -88 142 -88h70v-97h-345v91h85l1 5q-23 26 -34 55t-11 58q0 34 14 62.5t39.5 49.5t61 32.5t78.5 11.5q31 0 64 -6v-101z" />
    <glyph glyph-name="uniFEF8" unicode="&#xfef8;" horiz-adv-x="1197" arabic-form="final" 
d="M82 168q127 -15 239.5 -19.5t221.5 -4.5q79 0 137.5 3t97.5 21.5t58 58t19 112.5v1177h156v-1108q0 -71 7.5 -120t28.5 -79t57 -43t93 -13v-167h-22q-90 0 -144.5 29.5t-84.5 89.5h-4q-29 -45 -72 -70.5t-97.5 -38t-119.5 -15.5t-139 -3q-97 0 -198.5 5t-201.5 19z
M562 38l-448 1330h166l444 -1330h-162zM371 1805q-13 3 -27.5 5t-30.5 2q-45 0 -76 -18.5t-31 -61.5q0 -88 142 -88h70v-97h-345v91h85l1 5q-23 26 -34 55t-11 58q0 34 14 62.5t39.5 49.5t61 32.5t78.5 11.5q31 0 64 -6v-101z" />
    <glyph glyph-name="uniFEF5" unicode="&#xfef5;" horiz-adv-x="1197" arabic-form="isolated" 
d="M82 168q127 -15 239.5 -19.5t221.5 -4.5q79 0 137.5 3t97.5 21.5t58 58t19 112.5v1177h156v-1184q0 -86 -17.5 -145.5t-49 -99t-76.5 -61.5t-100 -32.5t-119.5 -13t-134.5 -2.5q-97 0 -198.5 5t-201.5 19zM562 38l-448 1330h166l444 -1330h-162zM613 1605
q-26 -27 -50.5 -43.5t-47 -25.5t-43 -12t-38.5 -3q-51 0 -97 15t-89 33t-85 33t-87 15q-34 0 -58.5 -11t-49.5 -33l-62 70q26 27 50.5 43.5t47 25.5t43 12t38.5 3q51 0 97 -15t89 -33t85 -33t86 -15q35 0 59.5 10.5t49.5 33.5z" />
    <glyph glyph-name="uniFE8A" unicode="&#x626;" horiz-adv-x="1710" arabic-form="final" 
d="M1710 153v-167h-22q-67 0 -118.5 16.5t-90.5 43t-68.5 61t-52 70t-41 69.5t-36.5 61q-23 35 -44.5 49t-45.5 14q-29 0 -48.5 -17t-19.5 -53q0 -33 16 -55t35 -45.5t35 -54.5t16 -83q0 -58 -22.5 -104t-61.5 -81.5t-91 -60t-111.5 -40.5t-123.5 -23t-126 -7
q-156 0 -259 40t-164.5 107.5t-86.5 156.5t-25 188q0 63 9 124.5t26 130.5h154q-14 -64 -23 -119.5t-9 -117.5q0 -74 16.5 -136t61.5 -108t125.5 -71.5t209.5 -25.5q84 0 148.5 11t109 30.5t67 46t22.5 58.5q0 28 -16 49.5l-35 45.5t-35 56.5t-16 82.5q0 53 19 96.5
t51.5 74.5t76 48t91.5 17q49 0 97 -22t87 -80q17 -26 32 -56.5l31.5 -61t37.5 -59.5t50.5 -51t70.5 -35t97 -13zM428 950q-13 3 -27.5 5t-30.5 2q-45 0 -76 -18.5t-31 -61.5q0 -88 142 -88h70v-97h-345v91h85l1 5q-23 26 -34 55t-11 58q0 34 14 62.5t39.5 49.5t61 32.5
t78.5 11.5q31 0 64 -6v-101z" />
    <glyph glyph-name="uniFEF6" unicode="&#xfef6;" horiz-adv-x="1197" arabic-form="final" 
d="M82 168q127 -15 239.5 -19.5t221.5 -4.5q79 0 137.5 3t97.5 21.5t58 58t19 112.5v1177h156v-1108q0 -71 7.5 -120t28.5 -79t57 -43t93 -13v-167h-22q-90 0 -144.5 29.5t-84.5 89.5h-4q-29 -45 -72 -70.5t-97.5 -38t-119.5 -15.5t-139 -3q-97 0 -198.5 5t-201.5 19z
M562 38l-448 1330h166l444 -1330h-162zM613 1605q-26 -27 -50.5 -43.5t-47 -25.5t-43 -12t-38.5 -3q-51 0 -97 15t-89 33t-85 33t-87 15q-34 0 -58.5 -11t-49.5 -33l-62 70q26 27 50.5 43.5t47 25.5t43 12t38.5 3q51 0 97 -15t89 -33t85 -33t86 -15q35 0 59.5 10.5
t49.5 33.5z" />
    <glyph glyph-name="afii57409" unicode="&#x621;" horiz-adv-x="855" arabic-form="isolated" 
d="M684 511q-29 5 -62.5 8.5t-65.5 3.5q-48 0 -89.5 -9.5t-72 -30.5t-48.5 -54t-18 -81q0 -91 61.5 -138t182.5 -47h169v-163h-622l-29 153h169l1 6q-25 25 -42 53t-27.5 57.5t-15 58t-4.5 53.5q0 69 27.5 126t78.5 98t122.5 64t159.5 23q28 0 60.5 -2.5t64.5 -7.5v-171z
" />
    <glyph glyph-name="afii57410" unicode="&#x622;" horiz-adv-x="513" arabic-form="isolated" 
d="M171 1516h156v-1516h-156v1516zM613 1718q-26 -27 -50.5 -43.5t-47 -25.5t-43 -12t-38.5 -3q-51 0 -97 15t-89 33t-85 33t-87 15q-34 0 -58.5 -11t-49.5 -33l-62 70q26 27 50.5 43.5t47 25.5t43 12t38.5 3q51 0 97 -15t89 -33t85 -33t86 -15q35 0 59.5 10.5t49.5 33.5z
" />
    <glyph glyph-name="afii57411" unicode="&#x623;" horiz-adv-x="513" arabic-form="isolated" 
d="M171 1516h156v-1516h-156v1516zM371 1918q-13 3 -27.5 5t-30.5 2q-45 0 -76 -18.5t-31 -61.5q0 -88 142 -88h70v-97h-345v91h85l1 5q-23 26 -34 55t-11 58q0 34 14 62.5t39.5 49.5t61 32.5t78.5 11.5q31 0 64 -6v-101z" />
    <glyph glyph-name="afii57412" unicode="&#x624;" horiz-adv-x="1026" arabic-form="isolated" 
d="M0 -263q108 -44 194.5 -61.5t168.5 -17.5q100 0 161.5 33t96 85t47.5 117t15 130q-83 -37 -172 -37q-66 0 -127.5 20.5t-108.5 60t-75.5 96.5t-28.5 131q0 64 24 134.5t66.5 130t100.5 98t126 38.5q72 0 131.5 -42t113.5 -127t81 -203.5t27 -250.5q0 -116 -26 -221.5
t-83 -186.5t-148 -129t-221 -48q-91 0 -177 19t-186 65v166zM681 185q-1 25 -9 59.5t-21.5 72t-31.5 74t-40.5 66t-47.5 47.5t-52 18q-29 0 -56.5 -19t-49.5 -49t-35.5 -68t-13.5 -76q0 -37 17 -66.5t45.5 -49.5t65.5 -31t77 -11q39 0 78 6.5t74 26.5zM599 1235
q-13 3 -27.5 5t-30.5 2q-45 0 -76 -18.5t-31 -61.5q0 -88 142 -88h70v-97h-345v91h85l1 5q-23 26 -34 55t-11 58q0 34 14 62.5t39.5 49.5t61 32.5t78.5 11.5q31 0 64 -6v-101z" />
    <glyph glyph-name="afii57413" unicode="&#x625;" horiz-adv-x="513" arabic-form="isolated" 
d="M171 1516h156v-1516h-156v1516zM371 -256q-13 3 -27.5 5t-30.5 2q-45 0 -76 -19t-31 -58q0 -91 142 -91h70v-97h-345v91h85l1 5q-23 26 -34 55t-11 58q0 34 14 62.5t39.5 49.5t61 32.5t78.5 11.5q31 0 64 -6v-101z" />
    <glyph glyph-name="afii57414" unicode="&#x626;" horiz-adv-x="1539" arabic-form="isolated" 
d="M668 -171q-148 0 -246.5 39t-158 105.5t-84.5 155t-25 187.5q0 91 17.5 184t46.5 184h151q-23 -88 -40.5 -175.5t-17.5 -172.5q0 -71 16.5 -132.5t57.5 -107.5t112 -72t180 -26t203.5 23t165 60.5t111 84.5t40.5 95q0 38 -25.5 63.5t-63 47.5t-82 45t-82 55t-63 78
t-25.5 115q0 85 42 148.5t117 109t179.5 75t230.5 47.5v-162q-100 -13 -178 -30.5t-132 -42t-82 -57t-28 -74.5q0 -41 25.5 -69.5t64 -52t83.5 -45.5t83.5 -51t64 -68.5t25.5 -97.5q0 -49 -19.5 -102t-58.5 -105t-96.5 -99t-133.5 -82.5t-170 -56.5t-205 -21zM428 1121
q-13 3 -27.5 5t-30.5 2q-45 0 -76 -18.5t-31 -61.5q0 -88 142 -88h70v-97h-345v91h85l1 5q-23 26 -34 55t-11 58q0 34 14 62.5t39.5 49.5t61 32.5t78.5 11.5q31 0 64 -6v-101z" />
    <glyph glyph-name="afii57415" unicode="&#x627;" horiz-adv-x="513" arabic-form="isolated" 
d="M171 1516h156v-1516h-156v1516z" />
    <glyph glyph-name="afii57416" unicode="&#x628;" horiz-adv-x="1881" arabic-form="isolated" 
d="M354 607q-9 -43 -17.5 -93.5t-8.5 -104.5q0 -60 15 -109.5t63 -84.5q29 -21 75 -34.5t118.5 -21t177.5 -10t252 -2.5q128 0 224 5t159.5 25.5t95 62t31.5 113.5v430h156v-437q0 -90 -25.5 -152t-72 -103t-111 -63.5t-141.5 -33.5t-164.5 -13.5t-180.5 -2.5
q-134 0 -245 1.5t-200.5 12t-157 33t-115.5 63.5q-63 55 -87 131t-24 164q0 61 9 117t20 107h154zM1034 -346h-185v181h185v-181z" />
    <glyph glyph-name="afii57417" unicode="&#x629;" horiz-adv-x="1026" arabic-form="isolated" 
d="M319 847l96 127q118 -78 201.5 -157.5t136.5 -162t77.5 -167.5t24.5 -174q0 -75 -24 -136.5t-69 -106t-110.5 -68.5t-148.5 -24q-81 0 -143 21.5t-104 61.5t-63.5 96t-21.5 125q0 83 21 158t54.5 138.5t76.5 114t87 85.5l-43.5 34zM325 312q0 -45 14.5 -76t39.5 -51
t58 -29t70 -9q102 0 148 44t46 119q0 46 -9 91t-30.5 91t-56.5 93.5t-87 98.5q-41 -29 -76.5 -70t-61.5 -89t-40.5 -102.5t-14.5 -110.5zM445 1192h-185v181h185v-181zM767 1192h-185v181h185v-181z" />
    <glyph glyph-name="afii57418" unicode="&#x62a;" horiz-adv-x="1881" arabic-form="isolated" 
d="M354 607q-9 -43 -17.5 -93.5t-8.5 -104.5q0 -60 15 -109.5t63 -84.5q29 -21 75 -34.5t118.5 -21t177.5 -10t252 -2.5q128 0 224 5t159.5 25.5t95 62t31.5 113.5v430h156v-437q0 -90 -25.5 -152t-72 -103t-111 -63.5t-141.5 -33.5t-164.5 -13.5t-180.5 -2.5
q-134 0 -245 1.5t-200.5 12t-157 33t-115.5 63.5q-63 55 -87 131t-24 164q0 61 9 117t20 107h154zM873 1021h-185v181h185v-181zM1195 1021h-185v181h185v-181z" />
    <glyph glyph-name="afii57419" unicode="&#x62b;" horiz-adv-x="1881" arabic-form="isolated" 
d="M354 607q-9 -43 -17.5 -93.5t-8.5 -104.5q0 -60 15 -109.5t63 -84.5q29 -21 75 -34.5t118.5 -21t177.5 -10t252 -2.5q128 0 224 5t159.5 25.5t95 62t31.5 113.5v430h156v-437q0 -90 -25.5 -152t-72 -103t-111 -63.5t-141.5 -33.5t-164.5 -13.5t-180.5 -2.5
q-134 0 -245 1.5t-200.5 12t-157 33t-115.5 63.5q-63 55 -87 131t-24 164q0 61 9 117t20 107h154zM873 1021h-185v181h185v-181zM1195 1021h-185v181h185v-181zM1034 1301h-185v181h185v-181z" />
    <glyph glyph-name="afii57420" unicode="&#x62c;" horiz-adv-x="1197" arabic-form="isolated" 
d="M1036 513q-216 -57 -361 -120t-232.5 -132t-124 -145t-36.5 -158q0 -66 23 -124t73 -101t128.5 -67.5t190.5 -24.5q97 0 194.5 19t197.5 54v-154q-109 -38 -203.5 -55.5t-193.5 -17.5q-152 0 -259.5 36t-175.5 97.5t-99.5 143t-31.5 173.5q0 56 12.5 114.5t43 117.5
t80.5 117t125.5 112.5t178 104t237.5 91.5v8q-50 16 -88.5 32t-79 28.5t-90 20t-122.5 7.5q-75 0 -139 -10.5t-113 -25.5v157q55 18 121.5 29.5t144.5 11.5q72 0 126.5 -11t101 -27.5t88 -36t88 -36.5t101 -28.5t126.5 -12.5zM805 -54h-185v181h185v-181z" />
    <glyph glyph-name="afii57421" unicode="&#x62d;" horiz-adv-x="1197" arabic-form="isolated" 
d="M1036 513q-216 -57 -361 -120t-232.5 -132t-124 -145t-36.5 -158q0 -66 23 -124t73 -101t128.5 -67.5t190.5 -24.5q97 0 194.5 19t197.5 54v-154q-109 -38 -203.5 -55.5t-193.5 -17.5q-152 0 -259.5 36t-175.5 97.5t-99.5 143t-31.5 173.5q0 56 12.5 114.5t43 117.5
t80.5 117t125.5 112.5t178 104t237.5 91.5v8q-50 16 -88.5 32t-79 28.5t-90 20t-122.5 7.5q-75 0 -139 -10.5t-113 -25.5v157q55 18 121.5 29.5t144.5 11.5q72 0 126.5 -11t101 -27.5t88 -36t88 -36.5t101 -28.5t126.5 -12.5z" />
    <glyph glyph-name="afii57422" unicode="&#x62e;" horiz-adv-x="1197" arabic-form="isolated" 
d="M1036 513q-216 -57 -361 -120t-232.5 -132t-124 -145t-36.5 -158q0 -66 23 -124t73 -101t128.5 -67.5t190.5 -24.5q97 0 194.5 19t197.5 54v-154q-109 -38 -203.5 -55.5t-193.5 -17.5q-152 0 -259.5 36t-175.5 97.5t-99.5 143t-31.5 173.5q0 56 12.5 114.5t43 117.5
t80.5 117t125.5 112.5t178 104t237.5 91.5v8q-50 16 -88.5 32t-79 28.5t-90 20t-122.5 7.5q-75 0 -139 -10.5t-113 -25.5v157q55 18 121.5 29.5t144.5 11.5q72 0 126.5 -11t101 -27.5t88 -36t88 -36.5t101 -28.5t126.5 -12.5zM691 1061h-185v181h185v-181z" />
    <glyph glyph-name="afii57423" unicode="&#x62f;" horiz-adv-x="1026" arabic-form="isolated" 
d="M82 169q97 -11 180 -16.5t140 -5.5q79 0 133 10.5t87 32.5t47.5 56t14.5 81q0 73 -29.5 151t-77.5 157.5t-109.5 160l-125.5 158.5h185q159 -177 237 -337.5t78 -305.5q0 -99 -36 -163t-97 -102t-141 -53t-167 -15q-58 0 -135 6t-152 16z" />
    <glyph glyph-name="afii57424" unicode="&#x630;" horiz-adv-x="1026" arabic-form="isolated" 
d="M82 169q97 -11 180 -16.5t140 -5.5q79 0 133 10.5t87 32.5t47.5 56t14.5 81q0 73 -29.5 151t-77.5 157.5t-109.5 160l-125.5 158.5h185q159 -177 237 -337.5t78 -305.5q0 -99 -36 -163t-97 -102t-141 -53t-167 -15q-58 0 -135 6t-152 16zM520 1192h-185v181h185v-181z
" />
    <glyph glyph-name="afii57425" unicode="&#x631;" horiz-adv-x="855" arabic-form="isolated" 
d="M0 -303q124 -39 213 -39q85 0 143 30.5t92.5 84.5t49.5 127t15 159q0 75 -9.5 146t-25 139t-36 133.5t-42.5 128.5h161q26 -65 46 -136t34 -142.5t21.5 -141t7.5 -131.5q0 -138 -34 -244t-94.5 -178t-144 -109t-181.5 -37q-51 0 -105 11t-111 34v165z" />
    <glyph glyph-name="afii57426" unicode="&#x632;" horiz-adv-x="855" arabic-form="isolated" 
d="M0 -303q124 -39 213 -39q85 0 143 30.5t92.5 84.5t49.5 127t15 159q0 75 -9.5 146t-25 139t-36 133.5t-42.5 128.5h161q26 -65 46 -136t34 -142.5t21.5 -141t7.5 -131.5q0 -138 -34 -244t-94.5 -178t-144 -109t-181.5 -37q-51 0 -105 11t-111 34v165zM503 850h-185v181
h185v-181z" />
    <glyph glyph-name="afii57427" unicode="&#x633;" horiz-adv-x="2394" arabic-form="isolated" 
d="M1152 513q8 -63 14 -119t11 -112q6 -66 50 -97.5t138 -31.5q34 0 65.5 8t55.5 29t38.5 57t14.5 92v267h156v-198q0 -67 5.5 -115t25 -79t55.5 -46t98 -15q38 0 70 7.5t55 28.5t35.5 57t12.5 93v444h156v-457q0 -108 -28 -174.5t-74.5 -103.5t-106.5 -49.5t-123 -12.5
q-44 0 -83.5 6.5t-72.5 20.5t-59 37.5t-44 58.5h-4q-25 -35 -56.5 -58.5t-65.5 -38t-69 -20.5t-66 -6q-66 0 -107 19t-66 51l-5 -1q-3 -132 -33.5 -237.5t-94.5 -179t-166 -112.5t-247 -39q-138 0 -230.5 34.5t-148.5 98t-79.5 155t-23.5 205.5q0 64 7.5 132.5t21.5 146.5
h151q-11 -75 -17 -138.5t-6 -120.5q0 -95 18 -161t57.5 -106.5t102.5 -58.5t153 -18q105 0 178.5 24.5t120 79.5t68 144.5t21.5 218.5q0 83 -9 176.5t-25 213.5h155z" />
    <glyph glyph-name="afii57428" unicode="&#x634;" horiz-adv-x="2394" arabic-form="isolated" 
d="M1152 513q8 -63 14 -119t11 -112q6 -66 50 -97.5t138 -31.5q34 0 65.5 8t55.5 29t38.5 57t14.5 92v267h156v-198q0 -67 5.5 -115t25 -79t55.5 -46t98 -15q38 0 70 7.5t55 28.5t35.5 57t12.5 93v444h156v-457q0 -108 -28 -174.5t-74.5 -103.5t-106.5 -49.5t-123 -12.5
q-44 0 -83.5 6.5t-72.5 20.5t-59 37.5t-44 58.5h-4q-25 -35 -56.5 -58.5t-65.5 -38t-69 -20.5t-66 -6q-66 0 -107 19t-66 51l-5 -1q-3 -132 -33.5 -237.5t-94.5 -179t-166 -112.5t-247 -39q-138 0 -230.5 34.5t-148.5 98t-79.5 155t-23.5 205.5q0 64 7.5 132.5t21.5 146.5
h151q-11 -75 -17 -138.5t-6 -120.5q0 -95 18 -161t57.5 -106.5t102.5 -58.5t153 -18q105 0 178.5 24.5t120 79.5t68 144.5t21.5 218.5q0 83 -9 176.5t-25 213.5h155zM1538 850h-185v181h185v-181zM1860 850h-185v181h185v-181zM1699 1130h-185v181h185v-181z" />
    <glyph glyph-name="afii57429" unicode="&#x635;" horiz-adv-x="2737" arabic-form="isolated" 
d="M1939 -22q-161 0 -276.5 0.5t-194 2t-125.5 5.5t-71 11q-31 9 -51 23.5t-38 35.5l-5 -1q-3 -132 -33.5 -237.5t-95 -179t-167 -112.5t-250.5 -39q-136 0 -227.5 34.5t-147 98t-79 155t-23.5 205.5q0 64 7.5 132.5t21.5 146.5h151q-11 -75 -17 -138.5t-6 -120.5
q0 -95 18 -161t57.5 -106.5t102.5 -58.5t153 -18q105 0 178.5 24.5t120 79.5t68 144.5t21.5 218.5q0 83 -9 181.5t-32 208.5h154q11 -63 17.5 -120t14.5 -115q3 -23 11.5 -44.5t25 -38.5t43.5 -27.5t67 -12.5q24 65 62 140t89.5 149.5t116 144t141.5 122.5t167 85t191 32
q121 0 208 -37.5t143 -101.5t83 -149.5t27 -181.5q0 -93 -22.5 -157t-63.5 -106.5t-97.5 -66t-124.5 -34.5t-145.5 -13.5t-158.5 -2.5zM1961 147q107 0 188 5t135.5 24.5t82 59t27.5 108.5q0 86 -25 146t-69 97.5t-104.5 54.5t-131.5 17q-73 0 -139.5 -21t-125 -57.5
t-109 -86t-91.5 -106t-72.5 -117.5t-52.5 -121q92 -2 211 -2.5t276 -0.5z" />
    <glyph glyph-name="afii57430" unicode="&#x636;" horiz-adv-x="2737" arabic-form="isolated" 
d="M1939 -22q-161 0 -276.5 0.5t-194 2t-125.5 5.5t-71 11q-31 9 -51 23.5t-38 35.5l-5 -1q-3 -132 -33.5 -237.5t-95 -179t-167 -112.5t-250.5 -39q-136 0 -227.5 34.5t-147 98t-79 155t-23.5 205.5q0 64 7.5 132.5t21.5 146.5h151q-11 -75 -17 -138.5t-6 -120.5
q0 -95 18 -161t57.5 -106.5t102.5 -58.5t153 -18q105 0 178.5 24.5t120 79.5t68 144.5t21.5 218.5q0 83 -9 181.5t-32 208.5h154q11 -63 17.5 -120t14.5 -115q3 -23 11.5 -44.5t25 -38.5t43.5 -27.5t67 -12.5q24 65 62 140t89.5 149.5t116 144t141.5 122.5t167 85t191 32
q121 0 208 -37.5t143 -101.5t83 -149.5t27 -181.5q0 -93 -22.5 -157t-63.5 -106.5t-97.5 -66t-124.5 -34.5t-145.5 -13.5t-158.5 -2.5zM1961 147q107 0 188 5t135.5 24.5t82 59t27.5 108.5q0 86 -25 146t-69 97.5t-104.5 54.5t-131.5 17q-73 0 -139.5 -21t-125 -57.5
t-109 -86t-91.5 -106t-72.5 -117.5t-52.5 -121q92 -2 211 -2.5t276 -0.5zM1831 1021h-185v181h185v-181z" />
    <glyph glyph-name="afii57431" unicode="&#x637;" horiz-adv-x="1710" arabic-form="isolated" 
d="M341 1516h158v-995l3 -1q46 67 105.5 128t131 107.5t153.5 73.5t172 27q121 0 208 -39.5t143 -107.5t83 -158.5t27 -192.5q0 -93 -22.5 -157t-63.5 -106.5t-97.5 -66t-124.5 -34.5t-145 -13.5t-159 -2.5q-183 0 -316.5 1.5t-232.5 4.5t-172 7.5t-135 10.5l-32 167
q45 -6 117.5 -9.5t160.5 -4.5q8 22 17.5 45l20.5 49v1267zM935 147q107 0 188 5t135.5 24.5t82 59t27.5 108.5q0 94 -25 159t-69 106t-104.5 59.5t-131.5 18.5q-73 0 -139 -22.5t-124 -61t-107.5 -90.5t-90.5 -111.5t-72 -124t-52 -127.5q92 -2 208.5 -2.5t273.5 -0.5z" />
    <glyph glyph-name="afii57432" unicode="&#x638;" horiz-adv-x="1710" arabic-form="isolated" 
d="M341 1516h158v-995l3 -1q46 67 105.5 128t131 107.5t153.5 73.5t172 27q121 0 208 -39.5t143 -107.5t83 -158.5t27 -192.5q0 -93 -22.5 -157t-63.5 -106.5t-97.5 -66t-124.5 -34.5t-145 -13.5t-159 -2.5q-183 0 -316.5 1.5t-232.5 4.5t-172 7.5t-135 10.5l-32 167
q45 -6 117.5 -9.5t160.5 -4.5q8 22 17.5 45l20.5 49v1267zM935 147q107 0 188 5t135.5 24.5t82 59t27.5 108.5q0 94 -25 159t-69 106t-104.5 59.5t-131.5 18.5q-73 0 -139 -22.5t-124 -61t-107.5 -90.5t-90.5 -111.5t-72 -124t-52 -127.5q92 -2 208.5 -2.5t273.5 -0.5z
M1090 1021h-185v181h185v-181z" />
    <glyph glyph-name="afii57433" unicode="&#x639;" horiz-adv-x="1026" arabic-form="isolated" 
d="M860 410q-175 -46 -291 -97t-185.5 -108t-98 -119.5t-28.5 -131.5q0 -64 23 -121t72.5 -99.5t128.5 -67.5t192 -25q97 0 196.5 19t199.5 54v-154q-109 -38 -204.5 -55.5t-195.5 -17.5q-152 0 -259.5 36t-176 97.5t-100.5 143t-32 172.5q0 49 10 99t34.5 100.5t66 100.5
t104.5 98q-38 36 -65.5 76.5t-45 83t-26 85.5t-8.5 84q0 79 30.5 152t87.5 129t140 89t188 33q35 0 74.5 -4t81.5 -13v-170q-39 8 -82 13.5t-85 5.5q-54 0 -104.5 -11t-89 -39t-62 -74.5t-23.5 -116.5q0 -76 27.5 -139.5t78.5 -106.5q81 45 185.5 86t241.5 77v-164z" />
    <glyph glyph-name="afii57434" unicode="&#x63a;" horiz-adv-x="1026" arabic-form="isolated" 
d="M860 410q-175 -46 -291 -97t-185.5 -108t-98 -119.5t-28.5 -131.5q0 -64 23 -121t72.5 -99.5t128.5 -67.5t192 -25q97 0 196.5 19t199.5 54v-154q-109 -38 -204.5 -55.5t-195.5 -17.5q-152 0 -259.5 36t-176 97.5t-100.5 143t-32 172.5q0 49 10 99t34.5 100.5t66 100.5
t104.5 98q-38 36 -65.5 76.5t-45 83t-26 85.5t-8.5 84q0 79 30.5 152t87.5 129t140 89t188 33q35 0 74.5 -4t81.5 -13v-170q-39 8 -82 13.5t-85 5.5q-54 0 -104.5 -11t-89 -39t-62 -74.5t-23.5 -116.5q0 -76 27.5 -139.5t78.5 -106.5q81 45 185.5 86t241.5 77v-164z
M577 1242h-185v181h185v-181z" />
    <glyph glyph-name="afii57441" unicode="&#x641;" horiz-adv-x="2052" arabic-form="isolated" 
d="M354 607q-9 -43 -17.5 -93.5t-8.5 -104.5q0 -60 16 -111t62 -83q23 -16 51.5 -27.5t68 -19t94 -11.5t129.5 -6.5t174.5 -3t229.5 -0.5q91 0 162 1t130 4l2 6q-74 30 -122 64t-76 72.5t-38.5 81t-10.5 89.5q0 64 24 134.5t66.5 130t100.5 98t126 38.5q72 0 132 -41
t114 -128q21 -33 39.5 -70t33 -78.5t23 -86.5t8.5 -93q0 -96 -29 -162t-79 -109.5t-118.5 -67.5t-147 -35.5t-164.5 -14t-171 -2.5h-185q-134 0 -241 2.5t-192 13t-148.5 33t-109.5 61.5q-63 54 -87 130.5t-24 164.5q0 61 9 117t20 107h154zM1710 365q0 29 -7.5 64.5
t-21.5 72t-33 71t-41.5 61.5t-47.5 43t-51 16q-29 0 -57 -19t-50 -49t-35 -68t-13 -76q0 -32 12 -63t45 -65t90.5 -70.5t147.5 -78.5q33 24 47.5 62.5t14.5 98.5zM1588 1135h-185v181h185v-181z" />
    <glyph glyph-name="afii57442" unicode="&#x642;" horiz-adv-x="1539" arabic-form="isolated" 
d="M1197 23q-80 -37 -172 -37q-66 0 -127.5 20.5t-108.5 60t-75.5 96.5t-28.5 131q0 64 24 134.5t66.5 130t100.5 98t126 38.5q72 0 131.5 -42t113.5 -127q27 -42 47 -94t33.5 -110.5t20.5 -122t7 -127.5q0 -149 -37 -259t-113 -182.5t-194.5 -108t-281.5 -35.5
q-161 0 -270.5 32.5t-177 94.5t-97 153.5t-29.5 210.5q0 63 7.5 133t21.5 148h151q-11 -75 -17 -137.5t-6 -116.5q0 -95 21.5 -161t71.5 -108t132.5 -61t204.5 -19q103 0 176.5 14.5t123.5 39.5t79.5 60t46 75.5t22 86t7.5 91.5zM1195 185q-1 25 -9 59.5t-21.5 72t-31.5 74
t-40.5 66t-47.5 47.5t-52 18q-29 0 -56.5 -19t-49.5 -49t-35.5 -68t-13.5 -76q0 -37 17 -66.5t45.5 -49.5t65.5 -31t77 -11q39 0 78 6.5t74 26.5zM912 964h-185v181h185v-181zM1234 964h-185v181h185v-181z" />
    <glyph glyph-name="afii57443" unicode="&#x643;" horiz-adv-x="1710" arabic-form="isolated" 
d="M354 607q-9 -43 -17.5 -93.5t-8.5 -104.5q0 -60 15.5 -109.5t62.5 -84.5q26 -19 65 -32t100.5 -21t150 -11.5t213.5 -3.5q109 0 190 5t135 25.5t81 62t27 113.5v1163h156v-1170q0 -90 -22.5 -152t-63.5 -103t-97.5 -63.5t-124.5 -33.5t-145 -13.5t-158 -2.5
q-118 0 -215 3t-174.5 14t-137.5 33t-104 60q-63 55 -87 131t-24 164q0 61 9 117t20 107h154zM684 694q197 11 197 82q0 18 -15.5 29t-36.5 22q-16 8 -32.5 18t-30 23.5t-22 33t-8.5 46.5q0 38 23 69t62.5 54.5t92 39t111.5 23.5v-93q-94 -12 -136 -34.5t-42 -55.5
q0 -20 16.5 -32t39.5 -23l31 -17t29 -22t21 -30.5t8 -42.5q0 -31 -18.5 -62t-56.5 -56.5t-96 -43t-137 -21.5v93z" />
    <glyph glyph-name="afii57444" unicode="&#x644;" horiz-adv-x="1368" arabic-form="isolated" 
d="M334 422q-11 -72 -16.5 -133t-5.5 -116q0 -95 17.5 -161t57 -106.5t102 -58.5t151.5 -18q103 0 176.5 24.5t120 79.5t68 144.5t21.5 218.5v1220h156v-1240q0 -143 -28 -257t-92.5 -193.5t-170.5 -122.5t-263 -43q-135 0 -226 34.5t-145.5 98t-78 155t-23.5 205.5
q0 63 6.5 128.5t20.5 140.5h152z" />
    <glyph glyph-name="afii57445" unicode="&#x645;" horiz-adv-x="1197" arabic-form="isolated" 
d="M684 697q76 0 136.5 -41.5t103 -104t65.5 -135t23 -134.5q0 -59 -17.5 -113t-53 -95t-88 -65t-121.5 -24q-49 0 -100 9.5t-99.5 21t-93 21t-80.5 9.5q-78 0 -111.5 -49.5t-33.5 -140.5q0 -38 4.5 -84.5t13 -96t20 -98t25.5 -90.5h-166q-25 103 -39.5 197.5t-14.5 163.5
q0 72 18 132.5t51 106t79.5 74t104.5 37.5q23 113 53.5 194t65 136.5t71 89t70.5 51t63.5 23t50.5 5.5zM709 152q33 0 59.5 6t46 20t30 38t10.5 59q0 37 -15 81.5t-40.5 83.5t-60 65t-73.5 26q-75 0 -129.5 -82t-95.5 -255q33 -5 67 -12.5t68 -14t67.5 -11t65.5 -4.5z" />
    <glyph glyph-name="afii57446" unicode="&#x646;" horiz-adv-x="1368" arabic-form="isolated" 
d="M1156 449q34 -185 34 -346q0 -143 -27.5 -257t-93 -193.5t-172.5 -122.5t-265 -43q-136 0 -227.5 34.5t-147 98t-79 155t-23.5 205.5q0 64 7.5 132.5t21.5 146.5h151q-11 -75 -17 -138.5t-6 -120.5q0 -95 18 -161t57.5 -106.5t102.5 -58.5t153 -18q105 0 179 24.5
t121 79.5t68.5 144.5t21.5 218.5q0 69 -8.5 147.5t-24.5 178.5h156zM764 679h-185v181h185v-181z" />
    <glyph glyph-name="afii57470" unicode="&#x647;" horiz-adv-x="1026" arabic-form="isolated" 
d="M319 847l96 127q118 -78 201.5 -157.5t136.5 -162t77.5 -167.5t24.5 -174q0 -75 -24 -136.5t-69 -106t-110.5 -68.5t-148.5 -24q-81 0 -143 21.5t-104 61.5t-63.5 96t-21.5 125q0 83 21 158t54.5 138.5t76.5 114t87 85.5l-43.5 34zM325 312q0 -45 14.5 -76t39.5 -51
t58 -29t70 -9q102 0 148 44t46 119q0 46 -9 91t-30.5 91t-56.5 93.5t-87 98.5q-41 -29 -76.5 -70t-61.5 -89t-40.5 -102.5t-14.5 -110.5z" />
    <glyph glyph-name="afii57448" unicode="&#x648;" horiz-adv-x="1026" arabic-form="isolated" 
d="M0 -263q108 -44 194.5 -61.5t168.5 -17.5q100 0 161.5 33t96 85t47.5 117t15 130q-83 -37 -172 -37q-66 0 -127.5 20.5t-108.5 60t-75.5 96.5t-28.5 131q0 64 24 134.5t66.5 130t100.5 98t126 38.5q72 0 131.5 -42t113.5 -127t81 -203.5t27 -250.5q0 -116 -26 -221.5
t-83 -186.5t-148 -129t-221 -48q-91 0 -177 19t-186 65v166zM681 185q-1 25 -9 59.5t-21.5 72t-31.5 74t-40.5 66t-47.5 47.5t-52 18q-29 0 -56.5 -19t-49.5 -49t-35.5 -68t-13.5 -76q0 -37 17 -66.5t45.5 -49.5t65.5 -31t77 -11q39 0 78 6.5t74 26.5z" />
    <glyph glyph-name="afii57449" unicode="&#x649;" horiz-adv-x="1539" arabic-form="isolated" 
d="M668 -171q-148 0 -246.5 39t-158 105.5t-84.5 155t-25 187.5q0 91 17.5 184t46.5 184h151q-23 -88 -40.5 -175.5t-17.5 -172.5q0 -71 16.5 -132.5t57.5 -107.5t112 -72t180 -26t203.5 23t165 60.5t111 84.5t40.5 95q0 38 -25.5 63.5t-63 47.5t-82 45t-82 55t-63 78
t-25.5 115q0 85 42 148.5t117 109t179.5 75t230.5 47.5v-162q-100 -13 -178 -30.5t-132 -42t-82 -57t-28 -74.5q0 -41 25.5 -69.5t64 -52t83.5 -45.5t83.5 -51t64 -68.5t25.5 -97.5q0 -49 -19.5 -102t-58.5 -105t-96.5 -99t-133.5 -82.5t-170 -56.5t-205 -21z" />
    <glyph glyph-name="afii57450" unicode="&#x64a;" horiz-adv-x="1539" arabic-form="isolated" 
d="M668 -171q-148 0 -246.5 39t-158 105.5t-84.5 155t-25 187.5q0 91 17.5 184t46.5 184h151q-23 -88 -40.5 -175.5t-17.5 -172.5q0 -71 16.5 -132.5t57.5 -107.5t112 -72t180 -26t203.5 23t165 60.5t111 84.5t40.5 95q0 38 -25.5 63.5t-63 47.5t-82 45t-82 55t-63 78
t-25.5 115q0 85 42 148.5t117 109t179.5 75t230.5 47.5v-162q-100 -13 -178 -30.5t-132 -42t-82 -57t-28 -74.5q0 -41 25.5 -69.5t64 -52t83.5 -45.5t83.5 -51t64 -68.5t25.5 -97.5q0 -49 -19.5 -102t-58.5 -105t-96.5 -99t-133.5 -82.5t-170 -56.5t-205 -21zM701 -517h-185
v181h185v-181zM1023 -517h-185v181h185v-181z" />
    <glyph glyph-name="uniFEF9" unicode="&#xfef9;" horiz-adv-x="1197" arabic-form="isolated" 
d="M82 168q127 -15 239.5 -19.5t221.5 -4.5q79 0 137.5 3t97.5 21.5t58 58t19 112.5v1177h156v-1184q0 -86 -17.5 -145.5t-49 -99t-76.5 -61.5t-100 -32.5t-119.5 -13t-134.5 -2.5q-97 0 -198.5 5t-201.5 19zM562 38l-448 1330h166l444 -1330h-162zM485 -256q-13 3 -27.5 5
t-30.5 2q-45 0 -76 -19t-31 -58q0 -91 142 -91h70v-97h-345v91h85l1 5q-23 26 -34 55t-11 58q0 34 14 62.5t39.5 49.5t61 32.5t78.5 11.5q31 0 64 -6v-101z" />
    <glyph glyph-name="uniFEFA" unicode="&#xfefa;" horiz-adv-x="513" arabic-form="final" 
d="M82 168q127 -15 239.5 -19.5t221.5 -4.5q79 0 137.5 3t97.5 21.5t58 58t19 112.5v1177h156v-1108q0 -71 7.5 -120t28.5 -79t57 -43t93 -13v-167h-22q-90 0 -144.5 29.5t-84.5 89.5h-4q-29 -45 -72 -70.5t-97.5 -38t-119.5 -15.5t-139 -3q-97 0 -198.5 5t-201.5 19z
M562 38l-448 1330h166l444 -1330h-162zM485 -256q-13 3 -27.5 5t-30.5 2q-45 0 -76 -19t-31 -58q0 -91 142 -91h70v-97h-345v91h85l1 5q-23 26 -34 55t-11 58q0 34 14 62.5t39.5 49.5t61 32.5t78.5 11.5q31 0 64 -6v-101z" />
    <glyph glyph-name="uni066E.init" unicode="&#x66e;" horiz-adv-x="684" 
d="M153 153q46 0 81.5 7.5t59.5 28.5t36 57t12 93v444h156v-451q0 -75 -14 -130t-38.5 -93t-58 -62.5t-73 -37.5t-83 -18t-88.5 -5h-143q-35 0 -52.5 26t-17.5 58t17.5 57.5t52.5 25.5h153z" />
    <glyph glyph-name="uni066E.medi" unicode="&#x66e;" horiz-adv-x="684" 
d="M498 408q0 -67 6 -115t25.5 -79t56.5 -46t98 -15v-167h-22q-100 0 -160 31.5t-90 91.5h-4q-26 -35 -58.5 -58.5t-67.5 -38t-70.5 -20.5t-68.5 -6h-143q-35 0 -52.5 26t-17.5 58t17.5 57.5t52.5 25.5h153q29 0 62.5 9t61.5 31t46.5 57.5t18.5 88.5v444h156v-375z" />
    <glyph glyph-name="uni066E.fina" unicode="&#x66e;" horiz-adv-x="1881" 
d="M1695 783v-375q0 -67 6 -115t25.5 -79t56 -46t98.5 -15v-167h-22q-97 0 -153 29t-88 93h-4q-44 -47 -108 -73.5t-142.5 -39t-168.5 -15t-186 -2.5q-136 0 -248.5 2t-203 12.5t-158.5 32.5t-116 63q-64 55 -88 131t-24 164q0 61 9 117t20 107h154q-9 -43 -17.5 -93.5
t-8.5 -104.5q0 -60 15.5 -109.5t62.5 -84.5q29 -21 75 -34.5t119 -21t177.5 -10t251.5 -2.5q128 0 224 5t159.5 25.5t95 62t31.5 113.5v430h156z" />
    <glyph glyph-name="uniFEE0" unicode="&#x644;" horiz-adv-x="684" arabic-form="medial" 
d="M498 408q0 -67 6 -115t25.5 -79t56.5 -46t98 -15v-167h-22q-97 0 -155 31.5t-87 91.5h-4q-27 -35 -60.5 -58.5t-69.5 -38t-72.5 -20.5t-70.5 -6h-143q-35 0 -52.5 26t-17.5 58t17.5 57.5t52.5 25.5h153q29 0 62.5 9t61.5 31t46.5 57.5t18.5 88.5v1177h156v-1108z" />
    <glyph glyph-name="afii57506" unicode="&#x67e;" horiz-adv-x="1881" arabic-form="isolated" 
d="M354 607q-9 -43 -17.5 -93.5t-8.5 -104.5q0 -60 15 -109.5t63 -84.5q29 -21 75 -34.5t118.5 -21t177.5 -10t252 -2.5q128 0 224 5t159.5 25.5t95 62t31.5 113.5v430h156v-437q0 -90 -25.5 -152t-72 -103t-111 -63.5t-141.5 -33.5t-164.5 -13.5t-180.5 -2.5
q-134 0 -245 1.5t-200.5 12t-157 33t-115.5 63.5q-63 55 -87 131t-24 164q0 61 9 117t20 107h154zM873 -287h-185v181h185v-181zM1195 -287h-185v181h185v-181zM1034 -567h-185v181h185v-181z" />
    <glyph glyph-name="uniFB58" unicode="&#x67e;" horiz-adv-x="684" arabic-form="initial" 
d="M153 153q46 0 81.5 7.5t59.5 28.5t36 57t12 93v444h156v-451q0 -75 -14 -130t-38.5 -93t-58 -62.5t-73 -37.5t-83 -18t-88.5 -5h-143q-35 0 -52.5 26t-17.5 58t17.5 57.5t52.5 25.5h153zM319 -287h-185v181h185v-181zM641 -287h-185v181h185v-181zM480 -567h-185v181h185
v-181z" />
    <glyph glyph-name="afii57507" unicode="&#x686;" horiz-adv-x="1197" arabic-form="isolated" 
d="M1036 513q-216 -57 -361 -120t-232.5 -132t-124 -145t-36.5 -158q0 -66 23 -124t73 -101t128.5 -67.5t190.5 -24.5q97 0 194.5 19t197.5 54v-154q-109 -38 -203.5 -55.5t-193.5 -17.5q-152 0 -259.5 36t-175.5 97.5t-99.5 143t-31.5 173.5q0 56 12.5 114.5t43 117.5
t80.5 117t125.5 112.5t178 104t237.5 91.5v8q-50 16 -88.5 32t-79 28.5t-90 20t-122.5 7.5q-75 0 -139 -10.5t-113 -25.5v157q55 18 121.5 29.5t144.5 11.5q72 0 126.5 -11t101 -27.5t88 -36t88 -36.5t101 -28.5t126.5 -12.5zM662 32h-181v179h181v-179zM984 32h-181v179
h181v-179zM823 -238h-181v179h181v-179z" />
    <glyph glyph-name="uniFB7B" unicode="&#x686;" horiz-adv-x="1368" arabic-form="final" 
d="M632 2h-181v179h181v-179zM934 2h-181v179h181v-179zM783 -258h-181v179h181v-179zM1036 513q-216 -57 -361 -120t-232.5 -132t-124 -145t-36.5 -158q0 -66 23 -124t73 -101t128.5 -67.5t190.5 -24.5q97 0 194.5 19t197.5 54v-154q-109 -38 -203.5 -55.5t-193.5 -17.5
q-152 0 -259.5 36t-175.5 97.5t-99.5 143t-31.5 173.5q0 56 12.5 114.5t43 117.5t80.5 117t125.5 112.5t178 104t237.5 91.5v8q-50 16 -88.5 32t-79 28.5t-90 20t-122.5 7.5q-75 0 -139 -10.5t-113 -25.5v157q55 18 121.5 29.5t144.5 11.5q72 0 126.5 -11t101 -27.5t88 -36
t88 -36.5t101 -28.5t126.5 -12.5zM1111 342q6 -104 64 -146.5t162 -42.5h31v-167h-55q-79 0 -138.5 24t-100.5 67t-63 101t-26 126q31 11 62.5 20.5t63.5 17.5z" />
    <glyph glyph-name="uniFB7C" unicode="&#x686;" horiz-adv-x="1197" arabic-form="initial" 
d="M0 -14q-35 0 -52.5 26t-17.5 58t17.5 57.5t52.5 25.5h59q123 0 235 27.5t215.5 72t199 100.5l185.5 113v5q-57 27 -105 53.5t-100 48t-114 35t-149 13.5q-78 0 -141 -10t-114 -26v157q55 18 121 29.5t144 11.5q80 0 142 -14.5t115 -36t101.5 -46.5t101 -47t113.5 -37
t139 -16l-32 -200q-43 -10 -100.5 -43l-130.5 -77.5t-161.5 -93.5t-192.5 -90.5t-224.5 -68.5t-256.5 -27h-50zM530 -287h-185v181h185v-181zM852 -287h-185v181h185v-181zM691 -567h-185v181h185v-181z" />
    <glyph glyph-name="afii57508" unicode="&#x698;" horiz-adv-x="855" arabic-form="isolated" 
d="M0 -303q124 -39 213 -39q85 0 143 30.5t92.5 84.5t49.5 127t15 159q0 75 -9.5 146t-25 139t-36 133.5t-42.5 128.5h161q26 -65 46 -136t34 -142.5t21.5 -141t7.5 -131.5q0 -138 -34 -244t-94.5 -178t-144 -109t-181.5 -37q-51 0 -105 11t-111 34v165zM342 850h-185v181
h185v-181zM664 850h-185v181h185v-181zM503 1130h-185v181h185v-181z" />
    <glyph glyph-name="uni06A9" unicode="&#x6a9;" horiz-adv-x="1881" arabic-form="isolated" 
d="M354 607q-9 -43 -17.5 -93.5t-8.5 -104.5q0 -60 15.5 -109.5t62.5 -84.5q26 -19 65.5 -32t101 -21t150 -11.5t212.5 -3.5q78 0 141 0.5t114.5 3.5t92 8t72.5 14q37 10 62 24.5t39 33.5t20 41t6 48q0 77 -43.5 146.5t-125 136.5t-197.5 133.5t-261 137.5v118l843 546v-176
l-666 -417q139 -66 251.5 -135.5t191.5 -144.5t122 -158t43 -177q0 -31 -7.5 -74t-32 -87.5t-71 -84.5t-125.5 -65q-87 -27 -206.5 -34t-284.5 -7q-118 0 -215 3t-174.5 14t-137.5 33t-104 60q-63 55 -87 131t-24 164q0 61 9 117t20 107h154z" />
    <glyph glyph-name="uniFB90" unicode="&#x6a9;" horiz-adv-x="1026" arabic-form="initial" 
d="M0 -14q-35 0 -52.5 26t-17.5 58t17.5 57.5t52.5 25.5h296q97 0 161 11t102 32t53 52.5t15 72.5q0 76 -44 146t-126 137t-197.5 133.5t-259.5 136.5v118l843 546v-176l-666 -417q139 -66 251.5 -135t191.5 -144.5t122 -158.5t43 -176q0 -30 -5.5 -67t-23 -75.5t-50.5 -75
t-87.5 -65t-134.5 -45.5t-191 -17h-293z" />
    <glyph glyph-name="afii57509" unicode="&#x6af;" horiz-adv-x="1881" arabic-form="isolated" 
d="M354 607q-9 -43 -17.5 -93.5t-8.5 -104.5q0 -60 15.5 -109.5t62.5 -84.5q26 -19 65.5 -32t101 -21t150 -11.5t212.5 -3.5q78 0 141 0.5t114.5 3.5t92 8t72.5 14q37 10 62 24.5t39 33.5t20 41t6 48q0 77 -43.5 146.5t-125 136.5t-197.5 133.5t-261 137.5v118l843 546v-176
l-666 -417q139 -66 251.5 -135.5t191.5 -144.5t122 -158t43 -177q0 -31 -7.5 -74t-32 -87.5t-71 -84.5t-125.5 -65q-87 -27 -206.5 -34t-284.5 -7q-118 0 -215 3t-174.5 14t-137.5 33t-104 60q-63 55 -87 131t-24 164q0 61 9 117t20 107h154zM855 1154v148l843 546v-148z
" />
    <glyph glyph-name="uniFB94" unicode="&#x6af;" horiz-adv-x="1026" arabic-form="initial" 
d="M0 -14q-35 0 -52.5 26t-17.5 58t17.5 57.5t52.5 25.5h296q97 0 161 11t102 32t53 52.5t15 72.5q0 76 -44 146t-126 137t-197.5 133.5t-259.5 136.5v118l843 546v-176l-666 -417q139 -66 251.5 -135t191.5 -144.5t122 -158.5t43 -176q0 -30 -5.5 -67t-23 -75.5t-50.5 -75
t-87.5 -65t-134.5 -45.5t-191 -17h-293zM0 1154v148l843 546v-148z" />
    <glyph glyph-name="uni06CC" unicode="&#x6cc;" horiz-adv-x="1539" arabic-form="isolated" 
d="M668 -171q-148 0 -246.5 39t-158 105.5t-84.5 155t-25 187.5q0 91 17.5 184t46.5 184h151q-23 -88 -40.5 -175.5t-17.5 -172.5q0 -71 16.5 -132.5t57.5 -107.5t112 -72t180 -26t203.5 23t165 60.5t111 84.5t40.5 95q0 38 -25.5 63.5t-63 47.5t-82 45t-82 55t-63 78
t-25.5 115q0 85 42 148.5t117 109t179.5 75t230.5 47.5v-162q-100 -13 -178 -30.5t-132 -42t-82 -57t-28 -74.5q0 -41 25.5 -69.5t64 -52t83.5 -45.5t83.5 -51t64 -68.5t25.5 -97.5q0 -49 -19.5 -102t-58.5 -105t-96.5 -99t-133.5 -82.5t-170 -56.5t-205 -21z" />
    <glyph glyph-name="uniFBFD" unicode="&#x6cc;" horiz-adv-x="1710" arabic-form="final" 
d="M1710 153v-167h-22q-67 0 -118.5 16.5t-90.5 43t-68.5 61t-52 70t-41 69.5t-36.5 61q-23 35 -44.5 49t-45.5 14q-29 0 -48.5 -17t-19.5 -53q0 -33 16 -55t35 -45.5t35 -54.5t16 -83q0 -58 -22.5 -104t-61.5 -81.5t-91 -60t-111.5 -40.5t-123.5 -23t-126 -7
q-156 0 -259 40t-164.5 107.5t-86.5 156.5t-25 188q0 63 9 124.5t26 130.5h154q-14 -64 -23 -119.5t-9 -117.5q0 -74 16.5 -136t61.5 -108t125.5 -71.5t209.5 -25.5q84 0 148.5 11t109 30.5t67 46t22.5 58.5q0 28 -16 49.5l-35 45.5t-35 56.5t-16 82.5q0 53 19 96.5
t51.5 74.5t76 48t91.5 17q49 0 97 -22t87 -80q17 -26 32 -56.5l31.5 -61t37.5 -59.5t50.5 -51t70.5 -35t97 -13z" />
    <glyph glyph-name="uniFBFE" unicode="&#x6cc;" horiz-adv-x="684" arabic-form="initial" 
d="M153 153q46 0 81.5 7.5t59.5 28.5t36 57t12 93v444h156v-451q0 -75 -14 -130t-38.5 -93t-58 -62.5t-73 -37.5t-83 -18t-88.5 -5h-143q-35 0 -52.5 26t-17.5 58t17.5 57.5t52.5 25.5h153zM262 -346h-185v181h185v-181zM584 -346h-185v181h185v-181z" />
    <glyph glyph-name="uniFBA5" unicode="&#x6c0;" horiz-adv-x="1026" arabic-form="final" 
d="M684 983h156v-587q0 -62 7.5 -108t28 -76t56.5 -44.5t94 -14.5v-167h-22q-56 0 -106 12.5t-90 39t-69 67.5t-43 99q-43 -17 -92 -23t-91 -6q-69 0 -132.5 16t-112.5 50.5t-78 88.5t-29 131q0 94 44 167t117 125t167 85t195 48v97zM311 476q0 -38 18 -64.5t47 -43
t68.5 -23.5t81.5 -7q39 0 81.5 5t76.5 16v374q-76 -14 -144 -37.5t-119 -56t-80.5 -73.5t-29.5 -90zM689 1454q-13 3 -27.5 5t-30.5 2q-45 0 -76 -18.5t-31 -61.5q0 -88 142 -88h70v-97h-345v91h85l1 5q-23 26 -34 55t-11 58q0 34 14 62.5t39.5 49.5t61 32.5t78.5 11.5
q31 0 64 -6v-101z" />
    <glyph glyph-name="uni06C0" unicode="&#x6c0;" horiz-adv-x="1026" arabic-form="isolated" 
d="M319 847l96 127q118 -78 201.5 -157.5t136.5 -162t77.5 -167.5t24.5 -174q0 -75 -24 -136.5t-69 -106t-110.5 -68.5t-148.5 -24q-81 0 -143 21.5t-104 61.5t-63.5 96t-21.5 125q0 83 21 158t54.5 138.5t76.5 114t87 85.5l-43.5 34zM325 312q0 -45 14.5 -76t39.5 -51
t58 -29t70 -9q102 0 148 44t46 119q0 46 -9 91t-30.5 91t-56.5 93.5t-87 98.5q-41 -29 -76.5 -70t-61.5 -89t-40.5 -102.5t-14.5 -110.5zM649 1447q-13 3 -27.5 5t-30.5 2q-45 0 -76 -18.5t-31 -61.5q0 -88 142 -88h70v-97h-345v91h85l1 5q-23 26 -34 55t-11 58
q0 34 14 62.5t39.5 49.5t61 32.5t78.5 11.5q31 0 64 -6v-101z" />
    <glyph glyph-name="uniFEDE" unicode="&#x644;" horiz-adv-x="1368" arabic-form="final" 
d="M334 422q-11 -72 -16.5 -133t-5.5 -116q0 -95 17.5 -161t57 -106.5t102 -58.5t151.5 -18q103 0 176.5 24.5t120 79.5t68 144.5t21.5 218.5v1220h156v-1104q0 -67 6 -115.5t25.5 -80.5t56.5 -47.5t98 -15.5v-167h-19q-73 0 -117.5 20t-72.5 58h-4q-17 -95 -55 -169.5
t-101.5 -127t-155 -80t-215.5 -27.5q-135 0 -226 34.5t-145.5 98t-78 155t-23.5 205.5q0 63 6.5 128.5t20.5 140.5h152z" />
    <glyph glyph-name="afii57511" unicode="&#x679;" horiz-adv-x="1881" arabic-form="isolated" 
d="M354 607q-9 -43 -17.5 -93.5t-8.5 -104.5q0 -60 15 -109.5t63 -84.5q29 -21 75 -34.5t118.5 -21t177.5 -10t252 -2.5q128 0 224 5t159.5 25.5t95 62t31.5 113.5v430h156v-437q0 -90 -25.5 -152t-72 -103t-111 -63.5t-141.5 -33.5t-164.5 -13.5t-180.5 -2.5
q-134 0 -245 1.5t-200.5 12t-157 33t-115.5 63.5q-63 55 -87 131t-24 164q0 61 9 117t20 107h154zM627 969q23 -2 54.5 -3.5l72.5 -3.5v503h89v-347l3 -1q38 62 89.5 97t123.5 35q48 0 82.5 -18t56.5 -48.5t32.5 -70.5t10.5 -84q0 -64 -19.5 -99t-54 -51.5t-80.5 -19.5
t-100 -3q-71 0 -125 0.5t-95.5 2t-72 3.5t-54.5 5zM975 960q53 0 88.5 1t56.5 8t30 21t9 40q0 59 -32.5 87t-78.5 28q-35 0 -66.5 -15.5t-58 -41t-47.5 -59t-36 -69.5h135z" />
    <glyph glyph-name="uniFB68" unicode="&#x679;" horiz-adv-x="684" arabic-form="initial" 
d="M153 153q46 0 81.5 7.5t59.5 28.5t36 57t12 93v444h156v-451q0 -75 -14 -130t-38.5 -93t-58 -62.5t-73 -37.5t-83 -18t-88.5 -5h-143q-35 0 -52.5 26t-17.5 58t17.5 57.5t52.5 25.5h153zM56 1090q23 -2 54.5 -3.5l72.5 -3.5v503h89v-347l3 -1q38 62 89.5 97t123.5 35
q48 0 82.5 -18t56.5 -48.5t32.5 -70.5t10.5 -84q0 -64 -19.5 -99t-54 -51.5t-80.5 -19.5t-100 -3q-71 0 -125 0.5t-95.5 2t-72 3.5t-54.5 5zM404 1081q53 0 88.5 1t56.5 8t30 21t9 40q0 59 -32.5 87t-78.5 28q-35 0 -66.5 -15.5t-58 -41t-47.5 -59t-36 -69.5h135z" />
    <glyph glyph-name="afii57512" unicode="&#x688;" horiz-adv-x="1026" arabic-form="isolated" 
d="M82 169q97 -11 180 -16.5t140 -5.5q79 0 133 10.5t87 32.5t47.5 56t14.5 81q0 73 -29.5 151t-77.5 157.5t-109.5 160l-125.5 158.5h185q159 -177 237 -337.5t78 -305.5q0 -99 -36 -163t-97 -102t-141 -53t-167 -15q-58 0 -135 6t-152 16zM113 1311q23 -2 54.5 -3.5
l72.5 -3.5v503h89v-347l3 -1q38 62 89.5 97t123.5 35q48 0 82.5 -18t56.5 -48.5t32.5 -70.5t10.5 -84q0 -64 -19.5 -99t-54 -51.5t-80.5 -19.5t-100 -3q-71 0 -125 0.5t-95.5 2t-72 3.5t-54.5 5zM461 1302q53 0 88.5 1t56.5 8t30 21t9 40q0 59 -32.5 87t-78.5 28
q-35 0 -66.5 -15.5t-58 -41t-47.5 -59t-36 -69.5h135z" />
    <glyph glyph-name="afii57513" unicode="&#x691;" horiz-adv-x="855" arabic-form="isolated" 
d="M0 -303q124 -39 213 -39q85 0 143 30.5t92.5 84.5t49.5 127t15 159q0 75 -9.5 146t-25 139t-36 133.5t-42.5 128.5h161q26 -65 46 -136t34 -142.5t21.5 -141t7.5 -131.5q0 -138 -34 -244t-94.5 -178t-144 -109t-181.5 -37q-51 0 -105 11t-111 34v165zM96 969
q23 -2 54.5 -3.5l72.5 -3.5v503h89v-347l3 -1q38 62 89.5 97t123.5 35q48 0 82.5 -18t56.5 -48.5t32.5 -70.5t10.5 -84q0 -64 -19.5 -99t-54 -51.5t-80.5 -19.5t-100 -3q-71 0 -125 0.5t-95.5 2t-72 3.5t-54.5 5zM444 960q53 0 88.5 1t56.5 8t30 21t9 40q0 59 -32.5 87
t-78.5 28q-35 0 -66.5 -15.5t-58 -41t-47.5 -59t-36 -69.5h135z" />
    <glyph glyph-name="afii57514" unicode="&#x6ba;" horiz-adv-x="1368" arabic-form="isolated" 
d="M1156 449q34 -185 34 -346q0 -143 -27.5 -257t-93 -193.5t-172.5 -122.5t-265 -43q-136 0 -227.5 34.5t-147 98t-79 155t-23.5 205.5q0 64 7.5 132.5t21.5 146.5h151q-11 -75 -17 -138.5t-6 -120.5q0 -95 18 -161t57.5 -106.5t102.5 -58.5t153 -18q105 0 179 24.5
t121 79.5t68.5 144.5t21.5 218.5q0 69 -8.5 147.5t-24.5 178.5h156z" />
    <glyph glyph-name="uni06C1" unicode="&#x6c1;" horiz-adv-x="1026" arabic-form="isolated" 
d="M319 847l96 127q118 -78 201.5 -157.5t136.5 -162t77.5 -167.5t24.5 -174q0 -75 -24 -136.5t-69 -106t-110.5 -68.5t-148.5 -24q-81 0 -143 21.5t-104 61.5t-63.5 96t-21.5 125q0 83 21 158t54.5 138.5t76.5 114t87 85.5l-43.5 34zM325 312q0 -45 14.5 -76t39.5 -51
t58 -29t70 -9q102 0 148 44t46 119q0 46 -9 91t-30.5 91t-56.5 93.5t-87 98.5q-41 -29 -76.5 -70t-61.5 -89t-40.5 -102.5t-14.5 -110.5z" />
    <glyph glyph-name="uniFBA8" unicode="&#x6c1;" horiz-adv-x="684" arabic-form="initial" 
d="M153 153q46 0 81.5 7.5t59.5 28.5t36 57t12 93v444h156v-451q0 -75 -14 -130t-38.5 -93t-58 -62.5t-73 -37.5t-83 -18t-88.5 -5h-143q-35 0 -52.5 26t-17.5 58t17.5 57.5t52.5 25.5h153zM349 -70q-54 -23 -83 -66.5t-29 -94.5q0 -23 6 -45q12 3 24.5 5.5t26.5 2.5
q27 0 47.5 -10t34 -26t20.5 -36.5t7 -42.5t-7.5 -43.5t-22 -38t-36.5 -27t-51 -10.5q-39 0 -67.5 17t-46.5 46t-26.5 67t-8.5 81q0 44 10 86t31 78.5t55 67.5t82 53z" />
    <glyph glyph-name="uniFBA9" unicode="&#x6c1;" horiz-adv-x="1026" arabic-form="medial" 
d="M155 153q48 0 78.5 5t44.5 19q9 9 17 28t22 56.5l37 98.5t62 153h151q-47 -103 -80 -187t-53 -153.5t-29 -126t-9 -102.5q0 -69 16.5 -113.5t42 -72.5t56.5 -43t61 -24q7 96 40 180.5t90.5 147t138.5 98.5t185 36v-167q-87 0 -151.5 -31.5t-106.5 -90.5t-63 -143.5
t-21 -190.5v-48q-124 24 -208.5 59.5t-136.5 83.5t-74.5 109.5t-22.5 138.5q0 32 3.5 65.5t9.5 70.5l-4 2q-26 -12 -58 -18.5t-77 -6.5h-116q-35 0 -52.5 26t-17.5 58t17.5 57.5t52.5 25.5h155z" />
    <glyph glyph-name="uni06C2.fina" unicode="&#x6c2;" horiz-adv-x="1026" 
d="M1026 -14h-12q-66 0 -120 21.5t-102 53.5t-91 70t-85.5 70t-86.5 53.5t-94 21.5q-42 0 -80.5 -17.5t-68 -56.5t-47 -101t-17.5 -150v-32h-131q-3 22 -3.5 37t-0.5 20q0 126 33 215t85.5 145t116.5 81.5t127 25.5t116.5 -21.5t101.5 -53.5t92 -70t87 -70t87 -53.5
t93 -21.5v-167zM542 934q-13 3 -27.5 5t-30.5 2q-45 0 -76 -18.5t-31 -61.5q0 -88 142 -88h70v-97h-345v91h85l1 5q-23 26 -34 55t-11 58q0 34 14 62.5t39.5 49.5t61 32.5t78.5 11.5q31 0 64 -6v-101z" />
    <glyph glyph-name="uni06C3.fina" unicode="&#x6c3;" horiz-adv-x="1026" 
d="M1026 -14h-12q-66 0 -120 21.5t-102 53.5t-91 70t-85.5 70t-86.5 53.5t-94 21.5q-42 0 -80.5 -17.5t-68 -56.5t-47 -101t-17.5 -150v-32h-131q-3 22 -3.5 37t-0.5 20q0 126 33 215t85.5 145t116.5 81.5t127 25.5t116.5 -21.5t101.5 -53.5t92 -70t87 -70t87 -53.5
t93 -21.5v-167zM359 679h-185v181h185v-181zM681 679h-185v181h185v-181z" />
    <glyph glyph-name="afii57519" unicode="&#x6d2;" horiz-adv-x="1881" arabic-form="isolated" 
d="M843 723q-58 -48 -115 -87t-109.5 -70.5t-100.5 -57.5l-88 -48q-36 -20 -65.5 -38.5t-50.5 -37t-32.5 -38.5t-11.5 -44q0 -46 34.5 -76t108 -47.5t188 -24.5t275.5 -7q123 0 245 3.5t236.5 9.5t218 14t189.5 17v-165q-114 -12 -238.5 -21t-244.5 -15t-229 -9t-193 -3
q-147 0 -259.5 9t-195.5 27t-139 44.5t-89.5 61t-48 77t-14.5 92.5q0 55 19.5 100t53 83t79.5 71.5t99 65.5l95 56l98.5 58t97.5 63.5t92 72.5z" />
    <glyph glyph-name="uniFBAF" unicode="&#x6d2;" horiz-adv-x="684" arabic-form="final" 
d="M684 -14h-13q-67 0 -138 -2t-129.5 -14.5t-96 -40t-37.5 -77.5q0 -46 34.5 -76t108 -47.5t188 -24.5t275.5 -7q123 0 245 3.5t236.5 9.5t218 14t189.5 17v-165q-114 -12 -238.5 -21t-244.5 -15t-229 -9t-193 -3q-147 0 -259.5 9t-195.5 27t-139 44.5t-89.5 61t-48 77
t-14.5 92.5q0 74 30.5 126.5t80 87t111.5 54.5t124.5 30.5t119.5 13t96 2.5h8v-167z" />
    <glyph glyph-name="uni06D3" unicode="&#x6d3;" horiz-adv-x="1881" arabic-form="isolated" 
d="M843 723q-58 -48 -115 -87t-109.5 -70.5t-100.5 -57.5l-88 -48q-36 -20 -65.5 -38.5t-50.5 -37t-32.5 -38.5t-11.5 -44q0 -46 34.5 -76t108 -47.5t188 -24.5t275.5 -7q123 0 245 3.5t236.5 9.5t218 14t189.5 17v-165q-114 -12 -238.5 -21t-244.5 -15t-229 -9t-193 -3
q-147 0 -259.5 9t-195.5 27t-139 44.5t-89.5 61t-48 77t-14.5 92.5q0 55 19.5 100t53 83t79.5 71.5t99 65.5l95 56l98.5 58t97.5 63.5t92 72.5zM542 1235q-13 3 -27.5 5t-30.5 2q-45 0 -76 -18.5t-31 -61.5q0 -88 142 -88h70v-97h-345v91h85l1 5q-23 26 -34 55t-11 58
q0 34 14 62.5t39.5 49.5t61 32.5t78.5 11.5q31 0 64 -6v-101z" />
    <glyph glyph-name="uniFBB1" unicode="&#x6d3;" horiz-adv-x="684" arabic-form="final" 
d="M684 -14h-13q-67 0 -138 -2t-129.5 -14.5t-96 -40t-37.5 -77.5q0 -46 34.5 -76t108 -47.5t188 -24.5t275.5 -7q123 0 245 3.5t236.5 9.5t218 14t189.5 17v-165q-114 -12 -238.5 -21t-244.5 -15t-229 -9t-193 -3q-147 0 -259.5 9t-195.5 27t-139 44.5t-89.5 61t-48 77
t-14.5 92.5q0 74 30.5 126.5t80 87t111.5 54.5t124.5 30.5t119.5 13t96 2.5h8v-167zM542 722q-13 3 -27.5 5t-30.5 2q-45 0 -76 -18.5t-31 -61.5q0 -88 142 -88h70v-97h-345v91h85l1 5q-23 26 -34 55t-11 58q0 34 14 62.5t39.5 49.5t61 32.5t78.5 11.5q31 0 64 -6v-101z" />
    <glyph glyph-name="afii57505" unicode="&#x6a4;" horiz-adv-x="2052" arabic-form="isolated" 
d="M354 607q-9 -43 -17.5 -93.5t-8.5 -104.5q0 -60 16 -111t62 -83q23 -16 51.5 -27.5t68 -19t94 -11.5t129.5 -6.5t174.5 -3t229.5 -0.5q91 0 162 1t130 4l2 6q-74 30 -122 64t-76 72.5t-38.5 81t-10.5 89.5q0 64 24 134.5t66.5 130t100.5 98t126 38.5q72 0 132 -41
t114 -128q21 -33 39.5 -70t33 -78.5t23 -86.5t8.5 -93q0 -96 -29 -162t-79 -109.5t-118.5 -67.5t-147 -35.5t-164.5 -14t-171 -2.5h-185q-134 0 -241 2.5t-192 13t-148.5 33t-109.5 61.5q-63 54 -87 130.5t-24 164.5q0 61 9 117t20 107h154zM1710 365q0 29 -7.5 64.5
t-21.5 72t-33 71t-41.5 61.5t-47.5 43t-51 16q-29 0 -57 -19t-50 -49t-35 -68t-13 -76q0 -32 12 -63t45 -65t90.5 -70.5t147.5 -78.5q33 24 47.5 62.5t14.5 98.5zM1427 1135h-185v181h185v-181zM1749 1135h-185v181h185v-181zM1588 1415h-185v181h185v-181z" />
    <glyph glyph-name="uniFB6C" unicode="&#x6a4;" horiz-adv-x="1026" arabic-form="initial" 
d="M421 158q-74 30 -122 64t-76 72.5t-38.5 81t-10.5 89.5q0 64 24 134.5t66.5 130t100.5 98t126 38.5q72 0 131.5 -41t113.5 -129q20 -33 39 -70t33.5 -78t23.5 -86t9 -93q0 -96 -28.5 -161.5t-77 -108t-113 -65.5t-137 -33.5t-148 -12.5t-146.5 -2h-191q-35 0 -52.5 26
t-17.5 58t17.5 57.5t52.5 25.5h200q48 0 106.5 -0.5t112.5 -1.5zM684 365q0 29 -7.5 64.5t-21.5 72t-33 71t-41.5 61.5t-47.5 43t-51 16q-29 0 -56.5 -19t-49.5 -49t-35.5 -68t-13.5 -76q0 -32 12.5 -63.5t45 -64.5t90 -70t147.5 -79q33 24 47.5 62.5t14.5 98.5zM401 1135
h-185v181h185v-181zM723 1135h-185v181h185v-181zM562 1415h-185v181h185v-181z" />
    <glyph glyph-name="uniFB6D" unicode="&#x6a4;" horiz-adv-x="1026" arabic-form="medial" 
d="M421 158q-74 30 -122 64t-76 72.5t-38.5 81t-10.5 89.5q0 64 24 134.5t66.5 130t100.5 98t126 38.5q72 0 132 -41.5t114 -127.5q21 -33 39.5 -70t33 -78.5t23 -86.5t8.5 -93q0 -66 -13.5 -116t-38.5 -88q56 -9 113 -10.5t124 -1.5v-167h-22q-44 0 -92 3.5t-95.5 10.5
t-93.5 18t-85 26q-50 -22 -106 -33.5t-114.5 -17t-116.5 -6.5t-110 -1h-191q-35 0 -52.5 26t-17.5 58t17.5 57.5t52.5 25.5h200q48 0 106.5 -0.5t112.5 -1.5zM684 365q0 29 -7.5 64.5t-21.5 72t-33 71t-41.5 61.5t-47.5 43t-51 16q-29 0 -57 -19t-49.5 -49t-35 -68
t-13.5 -76q0 -32 12.5 -63t46 -65t91.5 -71t149 -80q33 24 45.5 63.5t12.5 99.5zM401 1135h-185v181h185v-181zM723 1135h-185v181h185v-181zM562 1415h-185v181h185v-181z" />
    <glyph glyph-name="uniFBA7" unicode="&#x6c1;" horiz-adv-x="1026" arabic-form="final" 
d="M1026 -14h-12q-66 0 -120 21.5t-102 53.5t-91 70t-85.5 70t-86.5 53.5t-94 21.5q-42 0 -80.5 -17.5t-68 -56.5t-47 -101t-17.5 -150v-32h-131q-3 22 -3.5 37t-0.5 20q0 126 33 215t85.5 145t116.5 81.5t127 25.5t116.5 -21.5t101.5 -53.5t92 -70t87 -70t87 -53.5
t93 -21.5v-167z" />
    <glyph glyph-name="uni066F.init" unicode="&#x66f;" horiz-adv-x="1026" 
d="M421 158q-74 30 -122 64t-76 72.5t-38.5 81t-10.5 89.5q0 64 24 134.5t66.5 130t100.5 98t126 38.5q72 0 131.5 -41t113.5 -129q20 -33 39 -70t33.5 -78t23.5 -86t9 -93q0 -96 -28.5 -161.5t-77 -108t-113 -65.5t-137 -33.5t-148 -12.5t-146.5 -2h-191q-35 0 -52.5 26
t-17.5 58t17.5 57.5t52.5 25.5h200q48 0 106.5 -0.5t112.5 -1.5zM684 365q0 29 -7.5 64.5t-21.5 72t-33 71t-41.5 61.5t-47.5 43t-51 16q-29 0 -56.5 -19t-49.5 -49t-35.5 -68t-13.5 -76q0 -32 12.5 -63.5t45 -64.5t90 -70t147.5 -79q33 24 47.5 62.5t14.5 98.5z" />
    <glyph glyph-name="uni066F.medi" unicode="&#x66f;" horiz-adv-x="1026" 
d="M421 158q-74 30 -122 64t-76 72.5t-38.5 81t-10.5 89.5q0 64 24 134.5t66.5 130t100.5 98t126 38.5q72 0 132 -41.5t114 -127.5q21 -33 39.5 -70t33 -78.5t23 -86.5t8.5 -93q0 -66 -13.5 -116t-38.5 -88q56 -9 113 -10.5t124 -1.5v-167h-22q-44 0 -92 3.5t-95.5 10.5
t-93.5 18t-85 26q-50 -22 -106 -33.5t-114.5 -17t-116.5 -6.5t-110 -1h-191q-35 0 -52.5 26t-17.5 58t17.5 57.5t52.5 25.5h200q48 0 106.5 -0.5t112.5 -1.5zM684 365q0 29 -7.5 64.5t-21.5 72t-33 71t-41.5 61.5t-47.5 43t-51 16q-29 0 -57 -19t-49.5 -49t-35 -68
t-13.5 -76q0 -32 12.5 -63t46 -65t91.5 -71t149 -80q33 24 45.5 63.5t12.5 99.5z" />
    <glyph glyph-name="uni066F.fina" unicode="&#x66f;" horiz-adv-x="1539" 
d="M1078 -14q-92 0 -164.5 20.5t-123.5 60t-78 96.5t-27 131q0 64 24 134.5t66.5 130t100 98t125.5 38.5q72 0 132 -42t114 -127q45 -72 71 -168t33 -205h188v-167h-187q-11 -127 -53 -221t-118.5 -155.5t-188.5 -92t-263 -30.5q-161 0 -270.5 32.5t-177 94.5t-97 153.5
t-29.5 210.5q0 63 7.5 133t21.5 148h151q-11 -75 -17 -137.5t-6 -116.5q0 -95 21.5 -161t71.5 -108t132.5 -61t204.5 -19q96 0 166.5 12.5t120 35t80.5 53.5t49 67.5t26 77.5t11 84h-117zM1166 308q-13 38 -31.5 76.5t-40.5 69t-48 49.5t-54 19q-29 0 -56.5 -19t-49.5 -49
t-35 -68t-13 -76q0 -75 62 -116t196 -41h101q-4 39 -11 78t-20 77z" />
    <glyph glyph-name="uni0671" unicode="&#x671;" horiz-adv-x="513" arabic-form="isolated" 
d="M171 1516h156v-1516h-156v1516zM-105 1741q47 32 85.5 48.5t77.5 16.5q12 0 22.5 -1t21.5 -4q36 112 95.5 167.5t136.5 55.5q39 0 69 -13.5t50.5 -36t31.5 -51.5t11 -61q0 -41 -16.5 -77.5t-45 -64t-66 -43.5t-79.5 -16q-32 0 -63 8t-60 18t-57 18t-53 8
q-22 0 -50.5 -9.5t-63.5 -36.5zM285 1753q28 0 49.5 9.5t36.5 24.5t23 33.5t8 37.5q0 34 -22 53.5t-53 19.5q-39 0 -78 -35t-71 -118q26 -10 53.5 -17.5t53.5 -7.5z" />
    <glyph glyph-name="uniFB51" unicode="&#x671;" horiz-adv-x="513" arabic-form="final" 
d="M513 -14h-20q-102 0 -165.5 31t-98 82t-46.5 116t-12 134v1167h156v-1108q0 -66 5 -114t24 -79.5t56 -46.5t101 -15v-167zM-105 1741q47 32 85.5 48.5t77.5 16.5q12 0 22.5 -1t21.5 -4q36 112 95.5 167.5t136.5 55.5q39 0 69 -13.5t50.5 -36t31.5 -51.5t11 -61
q0 -41 -16.5 -77.5t-45 -64t-66 -43.5t-79.5 -16q-32 0 -63 8t-60 18t-57 18t-53 8q-22 0 -50.5 -9.5t-63.5 -36.5zM285 1753q28 0 49.5 9.5t36.5 24.5t23 33.5t8 37.5q0 34 -22 53.5t-53 19.5q-39 0 -78 -35t-71 -118q26 -10 53.5 -17.5t53.5 -7.5z" />
    <glyph glyph-name="uni0672.fina" unicode="&#x672;" horiz-adv-x="513" 
d="M513 -14h-20q-102 0 -165.5 31t-98 82t-46.5 116t-12 134v1167h156v-1108q0 -66 5 -114t24 -79.5t56 -46.5t101 -15v-167zM-62 1668v86q25 21 45 29t37 8t31.5 -6t30 -13.5t33.5 -13.5t43 -7l1 5q-23 26 -34 55t-11 58q0 34 14 62.5t39.5 49.5t61 32.5t78.5 11.5
q31 0 64 -6v-101q-13 3 -27.5 5t-30.5 2q-45 0 -76 -19t-31 -56q0 -48 35 -70.5t107 -22.5h70v-97h-199q-49 0 -81 7.5t-53.5 16t-36.5 16t-30 7.5q-31 0 -77 -40z" />
    <glyph glyph-name="uni0673.fina" unicode="&#x673;" horiz-adv-x="513" 
d="M513 -14h-20q-102 0 -165.5 31t-98 82t-46.5 116t-12 134v1167h156v-1108q0 -66 5 -114t24 -79.5t56 -46.5t101 -15v-167zM-62 -506v86q25 21 45 29t37 8t31.5 -6t30 -13.5t33.5 -13.5t43 -7l1 5q-23 26 -34 55t-11 58q0 34 14 62.5t39.5 49.5t61 32.5t78.5 11.5
q31 0 64 -6v-101q-13 3 -27.5 5t-30.5 2q-45 0 -76 -19t-31 -56q0 -48 35 -70.5t107 -22.5h70v-97h-199q-49 0 -81 7.5t-53.5 16t-36.5 16t-30 7.5q-31 0 -77 -40z" />
    <glyph glyph-name="uni0675.fina" unicode="&#x675;" horiz-adv-x="855" 
d="M513 -14h-20q-102 0 -165.5 31t-98 82t-46.5 116t-12 134v1167h156v-1108q0 -66 5 -114t24 -79.5t56 -46.5t101 -15v-167zM855 -14h-342q-35 0 -52.5 26t-17.5 58t17.5 57.5t52.5 25.5h342v-167zM713 1406q-13 3 -27.5 5t-30.5 2q-45 0 -76 -18.5t-31 -61.5
q0 -88 142 -88h70v-97h-345v91h85l1 5q-23 26 -34 55t-11 58q0 34 14 62.5t39.5 49.5t61 32.5t78.5 11.5q31 0 64 -6v-101z" />
    <glyph glyph-name="uni0676.fina" unicode="&#x676;" horiz-adv-x="1026" 
d="M0 -263q108 -44 194.5 -61.5t168.5 -17.5q69 0 120 16.5t87 45t58 66.5t34 82q5 19 10.5 49.5t9.5 68.5h-117q-92 0 -165 20.5t-124 60t-78 96.5t-27 131q0 64 24 134.5t66.5 130t100.5 98t126 38.5q72 0 131.5 -42t113.5 -128q45 -72 71.5 -167.5t33.5 -204.5h188v-167
h-189q-8 -102 -39 -192.5t-89 -158.5t-143.5 -108t-202.5 -40q-91 0 -177 19t-186 65v166zM653 308q-13 38 -31.5 76.5t-40.5 69t-48 49.5t-54 19q-29 0 -56.5 -19t-49.5 -49t-35.5 -68t-13.5 -76q0 -75 62 -116t197 -41h101q-4 39 -11 78t-20 77zM884 1235q-13 3 -27.5 5
t-30.5 2q-45 0 -76 -18.5t-31 -61.5q0 -88 142 -88h70v-97h-345v91h85l1 5q-23 26 -34 55t-11 58q0 34 14 62.5t39.5 49.5t61 32.5t78.5 11.5q31 0 64 -6v-101z" />
    <glyph glyph-name="uni0677" unicode="&#x677;" horiz-adv-x="1026" arabic-form="isolated" 
d="M0 -263q108 -44 194.5 -61.5t168.5 -17.5q100 0 161.5 33t96 85t47.5 117t15 130q-83 -37 -172 -37q-66 0 -127.5 20.5t-108.5 60t-75.5 96.5t-28.5 131q0 64 24 134.5t66.5 130t100.5 98t126 38.5q72 0 131.5 -42t113.5 -127t81 -203.5t27 -250.5q0 -116 -26 -221.5
t-83 -186.5t-148 -129t-221 -48q-91 0 -177 19t-186 65v166zM681 185q-1 25 -9 59.5t-21.5 72t-31.5 74t-40.5 66t-47.5 47.5t-52 18q-29 0 -56.5 -19t-49.5 -49t-35.5 -68t-13.5 -76q0 -37 17 -66.5t45.5 -49.5t65.5 -31t77 -11q39 0 78 6.5t74 26.5zM884 1235
q-13 3 -27.5 5t-30.5 2q-45 0 -76 -18.5t-31 -61.5q0 -88 142 -88h70v-97h-345v91h85l1 5q-23 26 -34 55t-11 58q0 34 14 62.5t39.5 49.5t61 32.5t78.5 11.5q31 0 64 -6v-101zM356 938q-45 34 -80 68q-24 -5 -48 -6.5t-45 -1.5q-57 0 -108.5 7t-99.5 21l18 83
q50 -13 96 -20.5t102 -7.5h6.5t11.5 1l1 2q-52 67 -52 135q0 38 15 68t40 50.5t56.5 31t63.5 10.5q31 0 61 -10t53 -30.5t37 -51t14 -71.5q0 -66 -36 -111t-93 -71q11 -11 21 -19t19 -16zM413 1213q0 41 -25.5 59.5t-56.5 18.5q-16 0 -31.5 -4.5t-28 -14t-20 -23.5t-7.5 -32
q0 -29 17.5 -59.5t43.5 -59.5q48 16 78 44.5t30 70.5z" />
    <glyph glyph-name="uni0678.init" unicode="&#x678;" horiz-adv-x="1026" 
d="M153 153q46 0 81.5 7.5t59.5 28.5t36 57t12 93v444h156v-451q0 -75 -14 -130t-38.5 -93t-58 -62.5t-73 -37.5t-83 -18t-88.5 -5h-143q-35 0 -52.5 26t-17.5 58t17.5 57.5t52.5 25.5h153zM884 1235q-13 3 -27.5 5t-30.5 2q-45 0 -76 -18.5t-31 -61.5q0 -88 142 -88h70v-97
h-345v91h85l1 5q-23 26 -34 55t-11 58q0 34 14 62.5t39.5 49.5t61 32.5t78.5 11.5q31 0 64 -6v-101z" />
    <glyph glyph-name="uni0678.medi" unicode="&#x678;" horiz-adv-x="1026" 
d="M498 408q0 -67 6 -115t25.5 -79t56.5 -46t98 -15v-167h-22q-100 0 -160 31.5t-90 91.5h-4q-26 -35 -58.5 -58.5t-67.5 -38t-70.5 -20.5t-68.5 -6h-143q-35 0 -52.5 26t-17.5 58t17.5 57.5t52.5 25.5h153q29 0 62.5 9t61.5 31t46.5 57.5t18.5 88.5v444h156v-375zM884 1235
q-13 3 -27.5 5t-30.5 2q-45 0 -76 -18.5t-31 -61.5q0 -88 142 -88h70v-97h-345v91h85l1 5q-23 26 -34 55t-11 58q0 34 14 62.5t39.5 49.5t61 32.5t78.5 11.5q31 0 64 -6v-101zM1026 -14h-342q-35 0 -52.5 26t-17.5 58t17.5 57.5t52.5 25.5h342v-167z" />
    <glyph glyph-name="uni0678.fina" unicode="&#x678;" horiz-adv-x="1710" 
d="M1710 153v-167h-22q-67 0 -118.5 16.5t-90.5 43t-68.5 61t-52 70t-41 69.5t-36.5 61q-23 35 -44.5 49t-45.5 14q-29 0 -48.5 -17t-19.5 -53q0 -33 16 -55t35 -45.5t35 -54.5t16 -83q0 -58 -22.5 -104t-61.5 -81.5t-91 -60t-111.5 -40.5t-123.5 -23t-126 -7
q-156 0 -259 40t-164.5 107.5t-86.5 156.5t-25 188q0 63 9 124.5t26 130.5h154q-14 -64 -23 -119.5t-9 -117.5q0 -74 16.5 -136t61.5 -108t125.5 -71.5t209.5 -25.5q84 0 148.5 11t109 30.5t67 46t22.5 58.5q0 28 -16 49.5l-35 45.5t-35 56.5t-16 82.5q0 53 19 96.5
t51.5 74.5t76 48t91.5 17q49 0 97 -22t87 -80q17 -26 32 -56.5l31.5 -61t37.5 -59.5t50.5 -51t70.5 -35t97 -13zM1739 1235q-13 3 -27.5 5t-30.5 2q-45 0 -76 -18.5t-31 -61.5q0 -88 142 -88h70v-97h-345v91h85l1 5q-23 26 -34 55t-11 58q0 34 14 62.5t39.5 49.5t61 32.5
t78.5 11.5q31 0 64 -6v-101z" />
    <glyph glyph-name="uni067A" unicode="&#x67a;" horiz-adv-x="1881" arabic-form="isolated" 
d="M354 607q-9 -43 -17.5 -93.5t-8.5 -104.5q0 -60 15 -109.5t63 -84.5q29 -21 75 -34.5t118.5 -21t177.5 -10t252 -2.5q128 0 224 5t159.5 25.5t95 62t31.5 113.5v430h156v-437q0 -90 -25.5 -152t-72 -103t-111 -63.5t-141.5 -33.5t-164.5 -13.5t-180.5 -2.5
q-134 0 -245 1.5t-200.5 12t-157 33t-115.5 63.5q-63 55 -87 131t-24 164q0 61 9 117t20 107h154zM1034 1021h-185v181h185v-181zM1034 1301h-185v181h185v-181z" />
    <glyph glyph-name="uniFB60" unicode="&#x67a;" horiz-adv-x="684" arabic-form="initial" 
d="M153 153q46 0 81.5 7.5t59.5 28.5t36 57t12 93v444h156v-451q0 -75 -14 -130t-38.5 -93t-58 -62.5t-73 -37.5t-83 -18t-88.5 -5h-143q-35 0 -52.5 26t-17.5 58t17.5 57.5t52.5 25.5h153zM505 1021h-185v181h185v-181zM505 1301h-185v181h185v-181z" />
    <glyph glyph-name="uni067B" unicode="&#x67b;" horiz-adv-x="1881" arabic-form="isolated" 
d="M354 607q-9 -43 -17.5 -93.5t-8.5 -104.5q0 -60 15 -109.5t63 -84.5q29 -21 75 -34.5t118.5 -21t177.5 -10t252 -2.5q128 0 224 5t159.5 25.5t95 62t31.5 113.5v430h156v-437q0 -90 -25.5 -152t-72 -103t-111 -63.5t-141.5 -33.5t-164.5 -13.5t-180.5 -2.5
q-134 0 -245 1.5t-200.5 12t-157 33t-115.5 63.5q-63 55 -87 131t-24 164q0 61 9 117t20 107h154zM1034 -567h-185v181h185v-181zM1034 -287h-185v181h185v-181z" />
    <glyph glyph-name="uniFB54" unicode="&#x67b;" horiz-adv-x="684" arabic-form="initial" 
d="M153 153q46 0 81.5 7.5t59.5 28.5t36 57t12 93v444h156v-451q0 -75 -14 -130t-38.5 -93t-58 -62.5t-73 -37.5t-83 -18t-88.5 -5h-143q-35 0 -52.5 26t-17.5 58t17.5 57.5t52.5 25.5h153zM480 -567h-185v181h185v-181zM480 -287h-185v181h185v-181z" />
    <glyph glyph-name="uni067C.init" unicode="&#x67c;" horiz-adv-x="684" 
d="M153 153q46 0 81.5 7.5t59.5 28.5t36 57t12 93v444h156v-451q0 -75 -14 -130t-38.5 -93t-58 -62.5t-73 -37.5t-83 -18t-88.5 -5h-143q-35 0 -52.5 26t-17.5 58t17.5 57.5t52.5 25.5h153zM284 70q65 0 112 -46.5t47 -115.5q0 -65 -47 -112t-112 -47q-69 0 -115.5 47
t-46.5 112q0 69 46.5 115.5t115.5 46.5zM284 -176q35 0 59.5 24.5t24.5 59.5q0 37 -24.5 62t-59.5 25q-37 0 -62 -25t-25 -62q0 -35 25 -59.5t62 -24.5zM344 1021h-185v181h185v-181zM666 1021h-185v181h185v-181z" />
    <glyph glyph-name="uni067C.medi" unicode="&#x67c;" horiz-adv-x="684" 
d="M498 408q0 -67 6 -115t25.5 -79t56.5 -46t98 -15v-167h-22q-100 0 -160 31.5t-90 91.5h-4q-26 -35 -58.5 -58.5t-67.5 -38t-70.5 -20.5t-68.5 -6h-143q-35 0 -52.5 26t-17.5 58t17.5 57.5t52.5 25.5h153q29 0 62.5 9t61.5 31t46.5 57.5t18.5 88.5v444h156v-375zM284 70
q65 0 112 -46.5t47 -115.5q0 -65 -47 -112t-112 -47q-69 0 -115.5 47t-46.5 112q0 69 46.5 115.5t115.5 46.5zM284 -176q35 0 59.5 24.5t24.5 59.5q0 37 -24.5 62t-59.5 25q-37 0 -62 -25t-25 -62q0 -35 25 -59.5t62 -24.5zM344 1021h-185v181h185v-181zM666 1021h-185v181
h185v-181z" />
    <glyph glyph-name="uni067C.fina" unicode="&#x67c;" horiz-adv-x="1881" 
d="M1695 783v-375q0 -67 6 -115t25.5 -79t56 -46t98.5 -15v-167h-22q-97 0 -153 29t-88 93h-4q-44 -47 -108 -73.5t-142.5 -39t-168.5 -15t-186 -2.5q-136 0 -248.5 2t-203 12.5t-158.5 32.5t-116 63q-64 55 -88 131t-24 164q0 61 9 117t20 107h154q-9 -43 -17.5 -93.5
t-8.5 -104.5q0 -60 15.5 -109.5t62.5 -84.5q29 -21 75 -34.5t119 -21t177.5 -10t251.5 -2.5q128 0 224 5t159.5 25.5t95 62t31.5 113.5v430h156zM943 47q65 0 112 -46.5t47 -115.5q0 -65 -47 -112t-112 -47q-69 0 -115.5 47t-46.5 112q0 69 46.5 115.5t115.5 46.5zM943 -199
q35 0 59.5 24.5t24.5 59.5q0 37 -24.5 62t-59.5 25q-37 0 -62 -25t-25 -62q0 -35 25 -59.5t62 -24.5zM873 1021h-185v181h185v-181zM1195 1021h-185v181h185v-181z" />
    <glyph glyph-name="uni067D.init" unicode="&#x67d;" horiz-adv-x="684" 
d="M153 153q46 0 81.5 7.5t59.5 28.5t36 57t12 93v444h156v-451q0 -75 -14 -130t-38.5 -93t-58 -62.5t-73 -37.5t-83 -18t-88.5 -5h-143q-35 0 -52.5 26t-17.5 58t17.5 57.5t52.5 25.5h153zM344 1301h-185v181h185v-181zM666 1301h-185v181h185v-181zM505 1021h-185v181h185
v-181z" />
    <glyph glyph-name="uni067D.medi" unicode="&#x67d;" horiz-adv-x="684" 
d="M498 408q0 -67 6 -115t25.5 -79t56.5 -46t98 -15v-167h-22q-100 0 -160 31.5t-90 91.5h-4q-26 -35 -58.5 -58.5t-67.5 -38t-70.5 -20.5t-68.5 -6h-143q-35 0 -52.5 26t-17.5 58t17.5 57.5t52.5 25.5h153q29 0 62.5 9t61.5 31t46.5 57.5t18.5 88.5v444h156v-375zM344 1301
h-185v181h185v-181zM666 1301h-185v181h185v-181zM505 1021h-185v181h185v-181z" />
    <glyph glyph-name="uni067D.fina" unicode="&#x67d;" horiz-adv-x="1881" 
d="M1695 783v-375q0 -67 6 -115t25.5 -79t56 -46t98.5 -15v-167h-22q-97 0 -153 29t-88 93h-4q-44 -47 -108 -73.5t-142.5 -39t-168.5 -15t-186 -2.5q-136 0 -248.5 2t-203 12.5t-158.5 32.5t-116 63q-64 55 -88 131t-24 164q0 61 9 117t20 107h154q-9 -43 -17.5 -93.5
t-8.5 -104.5q0 -60 15.5 -109.5t62.5 -84.5q29 -21 75 -34.5t119 -21t177.5 -10t251.5 -2.5q128 0 224 5t159.5 25.5t95 62t31.5 113.5v430h156zM873 1301h-185v181h185v-181zM1195 1301h-185v181h185v-181zM1034 1021h-185v181h185v-181z" />
    <glyph glyph-name="uni067F" unicode="&#x67f;" horiz-adv-x="1881" arabic-form="isolated" 
d="M354 607q-9 -43 -17.5 -93.5t-8.5 -104.5q0 -60 15 -109.5t63 -84.5q29 -21 75 -34.5t118.5 -21t177.5 -10t252 -2.5q128 0 224 5t159.5 25.5t95 62t31.5 113.5v430h156v-437q0 -90 -25.5 -152t-72 -103t-111 -63.5t-141.5 -33.5t-164.5 -13.5t-180.5 -2.5
q-134 0 -245 1.5t-200.5 12t-157 33t-115.5 63.5q-63 55 -87 131t-24 164q0 61 9 117t20 107h154zM873 1021h-185v181h185v-181zM1195 1021h-185v181h185v-181zM873 1301h-185v181h185v-181zM1195 1301h-185v181h185v-181z" />
    <glyph glyph-name="uniFB64" unicode="&#x67f;" horiz-adv-x="684" arabic-form="initial" 
d="M153 153q46 0 81.5 7.5t59.5 28.5t36 57t12 93v444h156v-451q0 -75 -14 -130t-38.5 -93t-58 -62.5t-73 -37.5t-83 -18t-88.5 -5h-143q-35 0 -52.5 26t-17.5 58t17.5 57.5t52.5 25.5h153zM344 1021h-185v181h185v-181zM666 1021h-185v181h185v-181zM344 1301h-185v181h185
v-181zM666 1301h-185v181h185v-181z" />
    <glyph glyph-name="uni0680" unicode="&#x680;" horiz-adv-x="1881" arabic-form="isolated" 
d="M354 607q-9 -43 -17.5 -93.5t-8.5 -104.5q0 -60 15 -109.5t63 -84.5q29 -21 75 -34.5t118.5 -21t177.5 -10t252 -2.5q128 0 224 5t159.5 25.5t95 62t31.5 113.5v430h156v-437q0 -90 -25.5 -152t-72 -103t-111 -63.5t-141.5 -33.5t-164.5 -13.5t-180.5 -2.5
q-134 0 -245 1.5t-200.5 12t-157 33t-115.5 63.5q-63 55 -87 131t-24 164q0 61 9 117t20 107h154zM873 -567h-185v181h185v-181zM1195 -567h-185v181h185v-181zM873 -287h-185v181h185v-181zM1195 -287h-185v181h185v-181z" />
    <glyph glyph-name="uniFB5C" unicode="&#x680;" horiz-adv-x="684" arabic-form="initial" 
d="M153 153q46 0 81.5 7.5t59.5 28.5t36 57t12 93v444h156v-451q0 -75 -14 -130t-38.5 -93t-58 -62.5t-73 -37.5t-83 -18t-88.5 -5h-143q-35 0 -52.5 26t-17.5 58t17.5 57.5t52.5 25.5h153zM319 -567h-185v181h185v-181zM641 -567h-185v181h185v-181zM319 -287h-185v181h185
v-181zM641 -287h-185v181h185v-181z" />
    <glyph glyph-name="uni0681.init" unicode="&#x681;" horiz-adv-x="1197" 
d="M0 -14q-35 0 -52.5 26t-17.5 58t17.5 57.5t52.5 25.5h59q123 0 235 27.5t215.5 72t199 100.5l185.5 113v5q-57 27 -105 53.5t-100 48t-114 35t-149 13.5q-78 0 -141 -10t-114 -26v157q55 18 121 29.5t144 11.5q80 0 142 -14.5t115 -36t101.5 -46.5t101 -47t113.5 -37
t139 -16l-32 -200q-43 -10 -100.5 -43l-130.5 -77.5t-161.5 -93.5t-192.5 -90.5t-224.5 -68.5t-256.5 -27h-50zM713 1195q-13 3 -27.5 5t-30.5 2q-45 0 -76 -18.5t-31 -61.5q0 -88 142 -88h70v-97h-345v91h85l1 5q-23 26 -34 55t-11 58q0 34 14 62.5t39.5 49.5t61 32.5
t78.5 11.5q31 0 64 -6v-101z" />
    <glyph glyph-name="uni0681.medi" unicode="&#x681;" horiz-adv-x="1197" 
d="M0 -14q-35 0 -52.5 26t-17.5 58t17.5 57.5t52.5 25.5h59q123 0 235 27.5t215.5 72t199 100.5l185.5 113v5q-57 27 -105 53.5t-100 48t-114 35t-149 13.5q-78 0 -141 -10t-114 -26v157q55 18 121 29.5t144 11.5q80 0 142 -14.5t115 -36t101.5 -46.5t101 -47t113.5 -37
t139 -16l-32 -200q-32 -8 -72 -28.5t-89 -49.5q1 -43 11 -72.5t36.5 -48t73.5 -26.5t121 -8v-167h-20q-98 0 -160.5 20.5t-99.5 55.5t-52 81.5t-17 99.5q-72 -43 -157.5 -88.5t-185.5 -83t-213.5 -61.5t-241.5 -24h-50zM713 1195q-13 3 -27.5 5t-30.5 2q-45 0 -76 -18.5
t-31 -61.5q0 -88 142 -88h70v-97h-345v91h85l1 5q-23 26 -34 55t-11 58q0 34 14 62.5t39.5 49.5t61 32.5t78.5 11.5q31 0 64 -6v-101z" />
    <glyph glyph-name="uni0681.fina" unicode="&#x681;" horiz-adv-x="1197" 
d="M1036 513l-66 -18l-62 -18q5 -96 24 -159t54 -99.5t87.5 -51t123.5 -14.5v-167h-24q-99 0 -170.5 31.5t-119 90t-72 141.5t-29.5 186q-141 -51 -237 -106t-154.5 -114.5t-83.5 -123.5t-25 -133q0 -66 23 -124t73 -101t128.5 -67.5t190.5 -24.5q97 0 194.5 19t197.5 54
v-154q-109 -38 -203.5 -55.5t-193.5 -17.5q-152 0 -259.5 36t-175.5 97.5t-99.5 143t-31.5 173.5q0 56 12.5 114.5t43 117.5t80.5 117t125.5 112.5t178 104t237.5 91.5v8q-50 16 -88.5 32t-79 28.5t-90 20t-122.5 7.5q-75 0 -139 -10.5t-113 -25.5v157q55 18 121.5 29.5
t144.5 11.5q72 0 126.5 -11t101 -27.5t88 -36t88 -36.5t101 -28.5t126.5 -12.5zM713 1316q-13 3 -27.5 5t-30.5 2q-45 0 -76 -18.5t-31 -61.5q0 -88 142 -88h70v-97h-345v91h85l1 5q-23 26 -34 55t-11 58q0 34 14 62.5t39.5 49.5t61 32.5t78.5 11.5q31 0 64 -6v-101z" />
    <glyph glyph-name="uni0682.init" unicode="&#x682;" horiz-adv-x="1197" 
d="M0 -14q-35 0 -52.5 26t-17.5 58t17.5 57.5t52.5 25.5h59q123 0 235 27.5t215.5 72t199 100.5l185.5 113v5q-57 27 -105 53.5t-100 48t-114 35t-149 13.5q-78 0 -141 -10t-114 -26v157q55 18 121 29.5t144 11.5q80 0 142 -14.5t115 -36t101.5 -46.5t101 -47t113.5 -37
t139 -16l-32 -200q-43 -10 -100.5 -43l-130.5 -77.5t-161.5 -93.5t-192.5 -90.5t-224.5 -68.5t-256.5 -27h-50zM691 940h-185v181h185v-181zM691 1220h-185v181h185v-181z" />
    <glyph glyph-name="uni0682.medi" unicode="&#x682;" horiz-adv-x="1197" 
d="M0 -14q-35 0 -52.5 26t-17.5 58t17.5 57.5t52.5 25.5h59q123 0 235 27.5t215.5 72t199 100.5l185.5 113v5q-57 27 -105 53.5t-100 48t-114 35t-149 13.5q-78 0 -141 -10t-114 -26v157q55 18 121 29.5t144 11.5q80 0 142 -14.5t115 -36t101.5 -46.5t101 -47t113.5 -37
t139 -16l-32 -200q-32 -8 -72 -28.5t-89 -49.5q1 -43 11 -72.5t36.5 -48t73.5 -26.5t121 -8v-167h-20q-98 0 -160.5 20.5t-99.5 55.5t-52 81.5t-17 99.5q-72 -43 -157.5 -88.5t-185.5 -83t-213.5 -61.5t-241.5 -24h-50zM691 940h-185v181h185v-181zM691 1220h-185v181h185
v-181z" />
    <glyph glyph-name="uni0682.fina" unicode="&#x682;" horiz-adv-x="1197" 
d="M1036 513l-66 -18l-62 -18q5 -96 24 -159t54 -99.5t87.5 -51t123.5 -14.5v-167h-24q-99 0 -170.5 31.5t-119 90t-72 141.5t-29.5 186q-141 -51 -237 -106t-154.5 -114.5t-83.5 -123.5t-25 -133q0 -66 23 -124t73 -101t128.5 -67.5t190.5 -24.5q97 0 194.5 19t197.5 54
v-154q-109 -38 -203.5 -55.5t-193.5 -17.5q-152 0 -259.5 36t-175.5 97.5t-99.5 143t-31.5 173.5q0 56 12.5 114.5t43 117.5t80.5 117t125.5 112.5t178 104t237.5 91.5v8q-50 16 -88.5 32t-79 28.5t-90 20t-122.5 7.5q-75 0 -139 -10.5t-113 -25.5v157q55 18 121.5 29.5
t144.5 11.5q72 0 126.5 -11t101 -27.5t88 -36t88 -36.5t101 -28.5t126.5 -12.5zM691 1061h-185v181h185v-181zM691 1341h-185v181h185v-181z" />
    <glyph glyph-name="uni0683" unicode="&#x683;" horiz-adv-x="1197" arabic-form="isolated" 
d="M1036 513q-216 -57 -361 -120t-232.5 -132t-124 -145t-36.5 -158q0 -66 23 -124t73 -101t128.5 -67.5t190.5 -24.5q97 0 194.5 19t197.5 54v-154q-109 -38 -203.5 -55.5t-193.5 -17.5q-152 0 -259.5 36t-175.5 97.5t-99.5 143t-31.5 173.5q0 56 12.5 114.5t43 117.5
t80.5 117t125.5 112.5t178 104t237.5 91.5v8q-50 16 -88.5 32t-79 28.5t-90 20t-122.5 7.5q-75 0 -139 -10.5t-113 -25.5v157q55 18 121.5 29.5t144.5 11.5q72 0 126.5 -11t101 -27.5t88 -36t88 -36.5t101 -28.5t126.5 -12.5zM644 -84h-185v181h185v-181zM966 -84h-185v181
h185v-181z" />
    <glyph glyph-name="uniFB77" unicode="&#x683;" horiz-adv-x="1197" arabic-form="final" 
d="M1036 513l-66 -18l-62 -18q5 -96 24 -159t54 -99.5t87.5 -51t123.5 -14.5v-167h-24q-99 0 -170.5 31.5t-119 90t-72 141.5t-29.5 186q-141 -51 -237 -106t-154.5 -114.5t-83.5 -123.5t-25 -133q0 -66 23 -124t73 -101t128.5 -67.5t190.5 -24.5q97 0 194.5 19t197.5 54
v-154q-109 -38 -203.5 -55.5t-193.5 -17.5q-152 0 -259.5 36t-175.5 97.5t-99.5 143t-31.5 173.5q0 56 12.5 114.5t43 117.5t80.5 117t125.5 112.5t178 104t237.5 91.5v8q-50 16 -88.5 32t-79 28.5t-90 20t-122.5 7.5q-75 0 -139 -10.5t-113 -25.5v157q55 18 121.5 29.5
t144.5 11.5q72 0 126.5 -11t101 -27.5t88 -36t88 -36.5t101 -28.5t126.5 -12.5zM594 -144h-185v181h185v-181zM916 -144h-185v181h185v-181z" />
    <glyph glyph-name="uniFB78" unicode="&#x683;" horiz-adv-x="1197" arabic-form="initial" 
d="M0 -14q-35 0 -52.5 26t-17.5 58t17.5 57.5t52.5 25.5h59q123 0 235 27.5t215.5 72t199 100.5l185.5 113v5q-57 27 -105 53.5t-100 48t-114 35t-149 13.5q-78 0 -141 -10t-114 -26v157q55 18 121 29.5t144 11.5q80 0 142 -14.5t115 -36t101.5 -46.5t101 -47t113.5 -37
t139 -16l-32 -200q-43 -10 -100.5 -43l-130.5 -77.5t-161.5 -93.5t-192.5 -90.5t-224.5 -68.5t-256.5 -27h-50zM530 -346h-185v181h185v-181zM852 -346h-185v181h185v-181z" />
    <glyph glyph-name="uni0684" unicode="&#x684;" horiz-adv-x="1197" arabic-form="isolated" 
d="M1036 513q-216 -57 -361 -120t-232.5 -132t-124 -145t-36.5 -158q0 -66 23 -124t73 -101t128.5 -67.5t190.5 -24.5q97 0 194.5 19t197.5 54v-154q-109 -38 -203.5 -55.5t-193.5 -17.5q-152 0 -259.5 36t-175.5 97.5t-99.5 143t-31.5 173.5q0 56 12.5 114.5t43 117.5
t80.5 117t125.5 112.5t178 104t237.5 91.5v8q-50 16 -88.5 32t-79 28.5t-90 20t-122.5 7.5q-75 0 -139 -10.5t-113 -25.5v157q55 18 121.5 29.5t144.5 11.5q72 0 126.5 -11t101 -27.5t88 -36t88 -36.5t101 -28.5t126.5 -12.5zM805 -223h-185v181h185v-181zM805 57h-185v181
h185v-181z" />
    <glyph glyph-name="uniFB73" unicode="&#x684;" horiz-adv-x="1197" arabic-form="final" 
d="M1036 513l-66 -18l-62 -18q5 -96 24 -159t54 -99.5t87.5 -51t123.5 -14.5v-167h-24q-99 0 -170.5 31.5t-119 90t-72 141.5t-29.5 186q-141 -51 -237 -106t-154.5 -114.5t-83.5 -123.5t-25 -133q0 -66 23 -124t73 -101t128.5 -67.5t190.5 -24.5q97 0 194.5 19t197.5 54
v-154q-109 -38 -203.5 -55.5t-193.5 -17.5q-152 0 -259.5 36t-175.5 97.5t-99.5 143t-31.5 173.5q0 56 12.5 114.5t43 117.5t80.5 117t125.5 112.5t178 104t237.5 91.5v8q-50 16 -88.5 32t-79 28.5t-90 20t-122.5 7.5q-75 0 -139 -10.5t-113 -25.5v157q55 18 121.5 29.5
t144.5 11.5q72 0 126.5 -11t101 -27.5t88 -36t88 -36.5t101 -28.5t126.5 -12.5zM750 -241h-185v181h185v-181zM750 39h-185v181h185v-181z" />
    <glyph glyph-name="uniFB74" unicode="&#x684;" horiz-adv-x="1197" arabic-form="initial" 
d="M0 -14q-35 0 -52.5 26t-17.5 58t17.5 57.5t52.5 25.5h59q123 0 235 27.5t215.5 72t199 100.5l185.5 113v5q-57 27 -105 53.5t-100 48t-114 35t-149 13.5q-78 0 -141 -10t-114 -26v157q55 18 121 29.5t144 11.5q80 0 142 -14.5t115 -36t101.5 -46.5t101 -47t113.5 -37
t139 -16l-32 -200q-43 -10 -100.5 -43l-130.5 -77.5t-161.5 -93.5t-192.5 -90.5t-224.5 -68.5t-256.5 -27h-50zM691 -567h-185v181h185v-181zM691 -287h-185v181h185v-181z" />
    <glyph glyph-name="uni0685.init" unicode="&#x685;" horiz-adv-x="1197" 
d="M0 -14q-35 0 -52.5 26t-17.5 58t17.5 57.5t52.5 25.5h59q123 0 235 27.5t215.5 72t199 100.5l185.5 113v5q-57 27 -105 53.5t-100 48t-114 35t-149 13.5q-78 0 -141 -10t-114 -26v157q55 18 121 29.5t144 11.5q80 0 142 -14.5t115 -36t101.5 -46.5t101 -47t113.5 -37
t139 -16l-32 -200q-43 -10 -100.5 -43l-130.5 -77.5t-161.5 -93.5t-192.5 -90.5t-224.5 -68.5t-256.5 -27h-50zM530 940h-185v181h185v-181zM852 940h-185v181h185v-181zM691 1220h-185v181h185v-181z" />
    <glyph glyph-name="uni0685.medi" unicode="&#x685;" horiz-adv-x="1197" 
d="M0 -14q-35 0 -52.5 26t-17.5 58t17.5 57.5t52.5 25.5h59q123 0 235 27.5t215.5 72t199 100.5l185.5 113v5q-57 27 -105 53.5t-100 48t-114 35t-149 13.5q-78 0 -141 -10t-114 -26v157q55 18 121 29.5t144 11.5q80 0 142 -14.5t115 -36t101.5 -46.5t101 -47t113.5 -37
t139 -16l-32 -200q-32 -8 -72 -28.5t-89 -49.5q1 -43 11 -72.5t36.5 -48t73.5 -26.5t121 -8v-167h-20q-98 0 -160.5 20.5t-99.5 55.5t-52 81.5t-17 99.5q-72 -43 -157.5 -88.5t-185.5 -83t-213.5 -61.5t-241.5 -24h-50zM530 940h-185v181h185v-181zM852 940h-185v181h185
v-181zM691 1220h-185v181h185v-181z" />
    <glyph glyph-name="uni0685.fina" unicode="&#x685;" horiz-adv-x="1197" 
d="M1036 513l-66 -18l-62 -18q5 -96 24 -159t54 -99.5t87.5 -51t123.5 -14.5v-167h-24q-99 0 -170.5 31.5t-119 90t-72 141.5t-29.5 186q-141 -51 -237 -106t-154.5 -114.5t-83.5 -123.5t-25 -133q0 -66 23 -124t73 -101t128.5 -67.5t190.5 -24.5q97 0 194.5 19t197.5 54
v-154q-109 -38 -203.5 -55.5t-193.5 -17.5q-152 0 -259.5 36t-175.5 97.5t-99.5 143t-31.5 173.5q0 56 12.5 114.5t43 117.5t80.5 117t125.5 112.5t178 104t237.5 91.5v8q-50 16 -88.5 32t-79 28.5t-90 20t-122.5 7.5q-75 0 -139 -10.5t-113 -25.5v157q55 18 121.5 29.5
t144.5 11.5q72 0 126.5 -11t101 -27.5t88 -36t88 -36.5t101 -28.5t126.5 -12.5zM530 1061h-185v181h185v-181zM852 1061h-185v181h185v-181zM691 1341h-185v181h185v-181z" />
    <glyph glyph-name="uni0687" unicode="&#x687;" horiz-adv-x="1197" arabic-form="isolated" 
d="M1036 513q-216 -57 -361 -120t-232.5 -132t-124 -145t-36.5 -158q0 -66 23 -124t73 -101t128.5 -67.5t190.5 -24.5q97 0 194.5 19t197.5 54v-154q-109 -38 -203.5 -55.5t-193.5 -17.5q-152 0 -259.5 36t-175.5 97.5t-99.5 143t-31.5 173.5q0 56 12.5 114.5t43 117.5
t80.5 117t125.5 112.5t178 104t237.5 91.5v8q-50 16 -88.5 32t-79 28.5t-90 20t-122.5 7.5q-75 0 -139 -10.5t-113 -25.5v157q55 18 121.5 29.5t144.5 11.5q72 0 126.5 -11t101 -27.5t88 -36t88 -36.5t101 -28.5t126.5 -12.5zM682 52h-181v179h181v-179zM964 52h-181v179
h181v-179zM682 -228h-181v179h181v-179zM964 -228h-181v179h181v-179z" />
    <glyph glyph-name="uniFB7F" unicode="&#x687;" horiz-adv-x="1368" arabic-form="final" 
d="M934 52h-181v179h169q-29 49 -50 105t-36 118q-157 -53 -263.5 -110t-171 -118.5t-92 -128.5t-27.5 -139q0 -66 23 -124t73 -101t128.5 -67.5t190.5 -24.5q97 0 194.5 19t197.5 54v-154q-109 -38 -203.5 -55.5t-193.5 -17.5q-152 0 -259.5 36t-175.5 97.5t-99.5 143
t-31.5 173.5q0 56 12.5 114.5t43 117.5t80.5 117t125.5 112.5t178 104t237.5 91.5v8q-50 16 -88.5 32t-79 28.5t-90 20t-122.5 7.5q-75 0 -139 -10.5t-113 -25.5v157q55 18 121.5 29.5t144.5 11.5q72 0 126.5 -11t101 -27.5t88 -36t88 -36.5t101 -28.5t126.5 -12.5l-32 -187
l-75 -21q36 -159 132.5 -249t249.5 -90h25v-167h-47q-132 0 -228 61t-159 163v-158zM934 -228h-181v179h181v-179zM662 -228h-181v179h181v-179zM662 52h-181v179h181v-179z" />
    <glyph glyph-name="uniFB80" unicode="&#x687;" horiz-adv-x="1197" arabic-form="initial" 
d="M0 -14q-35 0 -52.5 26t-17.5 58t17.5 57.5t52.5 25.5h59q123 0 235 27.5t215.5 72t199 100.5l185.5 113v5q-57 27 -105 53.5t-100 48t-114 35t-149 13.5q-78 0 -141 -10t-114 -26v157q55 18 121 29.5t144 11.5q80 0 142 -14.5t115 -36t101.5 -46.5t101 -47t113.5 -37
t139 -16l-32 -200q-43 -10 -100.5 -43l-130.5 -77.5t-161.5 -93.5t-192.5 -90.5t-224.5 -68.5t-256.5 -27h-50zM530 -567h-185v181h185v-181zM852 -567h-185v181h185v-181zM530 -287h-185v181h185v-181zM852 -287h-185v181h185v-181z" />
    <glyph glyph-name="uni0689.fina" unicode="&#x689;" horiz-adv-x="1026" 
d="M82 169q97 -11 180 -16.5t140 -5.5q146 0 209.5 35.5t63.5 113.5q0 46 -14 119t-38.5 161t-56.5 185.5t-68 192.5h166q56 -167 94.5 -309.5t67.5 -270.5q7 -32 19 -70.5t34.5 -72t57.5 -56t89 -22.5v-167h-22q-33 0 -64.5 8t-59.5 25.5t-50.5 46t-37.5 69.5h-5
q-26 -45 -66.5 -75t-90.5 -48.5t-108.5 -26t-120.5 -7.5q-58 0 -135 6t-152 16zM429 53q65 0 112 -46.5t47 -115.5q0 -65 -47 -112t-112 -47q-69 0 -115.5 47t-46.5 112q0 69 46.5 115.5t115.5 46.5zM429 -193q35 0 59.5 24.5t24.5 59.5q0 37 -24.5 62t-59.5 25
q-37 0 -62 -25t-25 -62q0 -35 25 -59.5t62 -24.5z" />
    <glyph glyph-name="uni068A.fina" unicode="&#x68a;" horiz-adv-x="1026" 
d="M82 169q97 -11 180 -16.5t140 -5.5q146 0 209.5 35.5t63.5 113.5q0 46 -14 119t-38.5 161t-56.5 185.5t-68 192.5h166q56 -167 94.5 -309.5t67.5 -270.5q7 -32 19 -70.5t34.5 -72t57.5 -56t89 -22.5v-167h-22q-33 0 -64.5 8t-59.5 25.5t-50.5 46t-37.5 69.5h-5
q-26 -45 -66.5 -75t-90.5 -48.5t-108.5 -26t-120.5 -7.5q-58 0 -135 6t-152 16zM520 -346h-185v181h185v-181z" />
    <glyph glyph-name="uni068B.fina" unicode="&#x68b;" horiz-adv-x="1026" 
d="M82 169q97 -11 180 -16.5t140 -5.5q146 0 209.5 35.5t63.5 113.5q0 46 -14 119t-38.5 161t-56.5 185.5t-68 192.5h166q56 -167 94.5 -309.5t67.5 -270.5q7 -32 19 -70.5t34.5 -72t57.5 -56t89 -22.5v-167h-22q-33 0 -64.5 8t-59.5 25.5t-50.5 46t-37.5 69.5h-5
q-26 -45 -66.5 -75t-90.5 -48.5t-108.5 -26t-120.5 -7.5q-58 0 -135 6t-152 16zM227 1311q23 -2 54.5 -3.5l72.5 -3.5v503h89v-347l3 -1q38 62 89.5 97t123.5 35q48 0 82.5 -18t56.5 -48.5t32.5 -70.5t10.5 -84q0 -64 -19.5 -99t-54 -51.5t-80.5 -19.5t-100 -3
q-71 0 -125 0.5t-95.5 2t-72 3.5t-54.5 5zM575 1302q53 0 88.5 1t56.5 8t30 21t9 40q0 59 -32.5 87t-78.5 28q-35 0 -66.5 -15.5t-58 -41t-47.5 -59t-36 -69.5h135zM520 -346h-185v181h185v-181z" />
    <glyph glyph-name="uni068C" unicode="&#x68c;" horiz-adv-x="1026" arabic-form="isolated" 
d="M82 169q97 -11 180 -16.5t140 -5.5q79 0 133 10.5t87 32.5t47.5 56t14.5 81q0 73 -29.5 151t-77.5 157.5t-109.5 160l-125.5 158.5h185q159 -177 237 -337.5t78 -305.5q0 -99 -36 -163t-97 -102t-141 -53t-167 -15q-58 0 -135 6t-152 16zM359 1192h-185v181h185v-181z
M681 1192h-185v181h185v-181z" />
    <glyph glyph-name="uni068D" unicode="&#x68d;" horiz-adv-x="1026" arabic-form="isolated" 
d="M82 169q97 -11 180 -16.5t140 -5.5q79 0 133 10.5t87 32.5t47.5 56t14.5 81q0 73 -29.5 151t-77.5 157.5t-109.5 160l-125.5 158.5h185q159 -177 237 -337.5t78 -305.5q0 -99 -36 -163t-97 -102t-141 -53t-167 -15q-58 0 -135 6t-152 16zM359 -346h-185v181h185v-181z
M681 -346h-185v181h185v-181z" />
    <glyph glyph-name="uni068E" unicode="&#x68e;" horiz-adv-x="1026" arabic-form="isolated" 
d="M82 169q97 -11 180 -16.5t140 -5.5q79 0 133 10.5t87 32.5t47.5 56t14.5 81q0 73 -29.5 151t-77.5 157.5t-109.5 160l-125.5 158.5h185q159 -177 237 -337.5t78 -305.5q0 -99 -36 -163t-97 -102t-141 -53t-167 -15q-58 0 -135 6t-152 16zM359 1192h-185v181h185v-181z
M681 1192h-185v181h185v-181zM520 1472h-185v181h185v-181z" />
    <glyph glyph-name="uni068F.fina" unicode="&#x68f;" horiz-adv-x="1026" 
d="M82 169q97 -11 180 -16.5t140 -5.5q146 0 209.5 35.5t63.5 113.5q0 46 -14 119t-38.5 161t-56.5 185.5t-68 192.5h166q56 -167 94.5 -309.5t67.5 -270.5q7 -32 19 -70.5t34.5 -72t57.5 -56t89 -22.5v-167h-22q-33 0 -64.5 8t-59.5 25.5t-50.5 46t-37.5 69.5h-5
q-26 -45 -66.5 -75t-90.5 -48.5t-108.5 -26t-120.5 -7.5q-58 0 -135 6t-152 16zM473 1472h-185v181h185v-181zM795 1472h-185v181h185v-181zM634 1192h-185v181h185v-181z" />
    <glyph glyph-name="uni0690.fina" unicode="&#x690;" horiz-adv-x="1026" 
d="M82 169q97 -11 180 -16.5t140 -5.5q146 0 209.5 35.5t63.5 113.5q0 46 -14 119t-38.5 161t-56.5 185.5t-68 192.5h166q56 -167 94.5 -309.5t67.5 -270.5q7 -32 19 -70.5t34.5 -72t57.5 -56t89 -22.5v-167h-22q-33 0 -64.5 8t-59.5 25.5t-50.5 46t-37.5 69.5h-5
q-26 -45 -66.5 -75t-90.5 -48.5t-108.5 -26t-120.5 -7.5q-58 0 -135 6t-152 16zM473 1192h-185v181h185v-181zM795 1192h-185v181h185v-181zM473 1472h-185v181h185v-181zM795 1472h-185v181h185v-181z" />
    <glyph glyph-name="uni0692.fina" unicode="&#x692;" horiz-adv-x="855" 
d="M855 153v-167h-22q-63 0 -100 18t-62 51l-5 -1q0 -140 -34 -246.5t-94 -177.5t-142.5 -107t-179.5 -36q-51 0 -105 11t-111 34v165q124 -39 213 -39q85 0 143 30.5t92.5 84.5t49.5 127t15 159q0 75 -9.5 146t-25 139t-36 133.5t-42.5 128.5h161q29 -75 51 -155t36 -161
q6 -35 20 -61t38 -43t60.5 -25t88.5 -8zM357 847l-236 352h125l171 -255l168 255h121l-230 -352h-119z" />
    <glyph glyph-name="uni0693.fina" unicode="&#x693;" horiz-adv-x="855" 
d="M855 153v-167h-22q-63 0 -100 18t-62 51l-5 -1q0 -140 -34 -246.5t-94 -177.5t-142.5 -107t-179.5 -36q-51 0 -105 11t-111 34v165q124 -39 213 -39q85 0 143 30.5t92.5 84.5t49.5 127t15 159q0 75 -9.5 146t-25 139t-36 133.5t-42.5 128.5h161q29 -75 51 -155t36 -161
q6 -35 20 -61t38 -43t60.5 -25t88.5 -8zM658 -192q65 0 112 -46.5t47 -115.5q0 -65 -47 -112t-112 -47q-69 0 -115.5 47t-46.5 112q0 69 46.5 115.5t115.5 46.5zM658 -438q35 0 59.5 24.5t24.5 59.5q0 37 -24.5 62t-59.5 25q-37 0 -62 -25t-25 -62q0 -35 25 -59.5t62 -24.5z
" />
    <glyph glyph-name="uni0694.fina" unicode="&#x694;" horiz-adv-x="855" 
d="M855 153v-167h-22q-63 0 -100 18t-62 51l-5 -1q0 -140 -34 -246.5t-94 -177.5t-142.5 -107t-179.5 -36q-51 0 -105 11t-111 34v165q124 -39 213 -39q85 0 143 30.5t92.5 84.5t49.5 127t15 159q0 75 -9.5 146t-25 139t-36 133.5t-42.5 128.5h161q29 -75 51 -155t36 -161
q6 -35 20 -61t38 -43t60.5 -25t88.5 -8zM847 -517h-185v181h185v-181z" />
    <glyph glyph-name="uni0695.fina" unicode="&#x695;" horiz-adv-x="855" 
d="M855 153v-167h-22q-63 0 -100 18t-62 51l-5 -1q0 -140 -34 -246.5t-94 -177.5t-142.5 -107t-179.5 -36q-51 0 -105 11t-111 34v165q124 -39 213 -39q85 0 143 30.5t92.5 84.5t49.5 127t15 159q0 75 -9.5 146t-25 139t-36 133.5t-42.5 128.5h161q29 -75 51 -155t36 -161
q6 -35 20 -61t38 -43t60.5 -25t88.5 -8zM724 -543l-236 352h125l171 -255l168 255h121l-230 -352h-119z" />
    <glyph glyph-name="uni0696.fina" unicode="&#x696;" horiz-adv-x="855" 
d="M855 153v-167h-22q-63 0 -100 18t-62 51l-5 -1q0 -140 -34 -246.5t-94 -177.5t-142.5 -107t-179.5 -36q-51 0 -105 11t-111 34v165q124 -39 213 -39q85 0 143 30.5t92.5 84.5t49.5 127t15 159q0 75 -9.5 146t-25 139t-36 133.5t-42.5 128.5h161q29 -75 51 -155t36 -161
q6 -35 20 -61t38 -43t60.5 -25t88.5 -8zM847 -517h-185v181h185v-181zM299 0h-185v181h185v-181z" />
    <glyph glyph-name="uni0697.fina" unicode="&#x697;" horiz-adv-x="855" 
d="M855 153v-167h-22q-63 0 -100 18t-62 51l-5 -1q0 -140 -34 -246.5t-94 -177.5t-142.5 -107t-179.5 -36q-51 0 -105 11t-111 34v165q124 -39 213 -39q85 0 143 30.5t92.5 84.5t49.5 127t15 159q0 75 -9.5 146t-25 139t-36 133.5t-42.5 128.5h161q29 -75 51 -155t36 -161
q6 -35 20 -61t38 -43t60.5 -25t88.5 -8zM342 850h-185v181h185v-181zM664 850h-185v181h185v-181z" />
    <glyph glyph-name="uni0699.fina" unicode="&#x699;" horiz-adv-x="855" 
d="M855 153v-167h-22q-63 0 -100 18t-62 51l-5 -1q0 -140 -34 -246.5t-94 -177.5t-142.5 -107t-179.5 -36q-51 0 -105 11t-111 34v165q124 -39 213 -39q85 0 143 30.5t92.5 84.5t49.5 127t15 159q0 75 -9.5 146t-25 139t-36 133.5t-42.5 128.5h161q29 -75 51 -155t36 -161
q6 -35 20 -61t38 -43t60.5 -25t88.5 -8zM342 850h-185v181h185v-181zM664 850h-185v181h185v-181zM342 1130h-185v181h185v-181zM664 1130h-185v181h185v-181z" />
    <glyph glyph-name="uni069A.init" unicode="&#x69a;" horiz-adv-x="1710" 
d="M1011 408q0 -67 5.5 -115t25 -79t55.5 -46t98 -15q38 0 70 7.5t55 28.5t35.5 57t12.5 93v444h156v-457q0 -108 -28.5 -174.5t-75 -103.5t-106 -49.5t-122.5 -12.5q-44 0 -83.5 6.5t-72.5 20.5t-59 37.5t-44 58.5h-4q-26 -35 -59 -58.5t-68.5 -38t-71.5 -20.5t-69 -6
q-100 0 -159.5 31.5t-89.5 91.5h-4q-26 -35 -58.5 -58.5t-67.5 -38t-70.5 -20.5t-68.5 -6h-143q-35 0 -52.5 26t-17.5 58t17.5 57.5t52.5 25.5h153q29 0 62.5 9t61.5 31t46.5 57.5t18.5 88.5v267h156v-201q0 -65 5.5 -112.5t23.5 -78.5t52 -46t91 -15q36 0 69.5 8t59 29
t41 57t15.5 92v267h156v-198zM1025 850h-185v181h185v-181zM1025 -346h-185v181h185v-181z" />
    <glyph glyph-name="uni069A.medi" unicode="&#x69a;" horiz-adv-x="1710" 
d="M1195 153q38 0 70 7.5t55 28.5t35.5 57t12.5 93v444h156v-369q0 -67 6 -116t25.5 -81.5t56 -48t98.5 -15.5v-167h-22q-93 0 -149 27t-87 84h-6q-23 -33 -52 -54t-62 -34t-68.5 -18t-71.5 -5q-44 0 -83.5 6.5t-72.5 20.5t-59 37.5t-44 58.5h-4q-26 -35 -59 -58.5
t-68.5 -38t-71.5 -20.5t-69 -6q-100 0 -159.5 31.5t-89.5 91.5h-4q-26 -35 -58.5 -58.5t-67.5 -38t-70.5 -20.5t-68.5 -6h-143q-35 0 -52.5 26t-17.5 58t17.5 57.5t52.5 25.5h153q29 0 62.5 9t61.5 31t46.5 57.5t18.5 88.5v267h156v-201q0 -65 5.5 -112.5t23.5 -78.5t52 -46
t91 -15q36 0 69.5 8t59 29t41 57t15.5 92v267h156v-198q0 -67 5.5 -115t25 -79t55.5 -46t98 -15zM1025 850h-185v181h185v-181zM1025 -346h-185v181h185v-181z" />
    <glyph glyph-name="uni069A.fina" unicode="&#x69a;" horiz-adv-x="2394" 
d="M1879 153q38 0 70 7.5t55 28.5t35.5 57t12.5 93v444h156v-369q0 -67 6 -116t25.5 -81.5t56 -48t98.5 -15.5v-167h-22q-93 0 -149 27t-87 84h-6q-23 -33 -52 -54t-62 -34t-68.5 -18t-71.5 -5q-44 0 -83.5 6.5t-72.5 20.5t-59 37.5t-44 58.5h-4q-25 -35 -56.5 -58.5
t-65.5 -38t-69 -20.5t-66 -6q-66 0 -107 19t-66 51l-5 -1q-3 -132 -33.5 -237.5t-94.5 -179t-166 -112.5t-247 -39q-138 0 -230.5 34.5t-148.5 98t-79.5 155t-23.5 205.5q0 64 7.5 132.5t21.5 146.5h151q-11 -75 -17 -138.5t-6 -120.5q0 -95 18 -161t57.5 -106.5
t102.5 -58.5t153 -18q105 0 178.5 24.5t120 79.5t68 144.5t21.5 218.5q0 83 -9 176.5t-25 213.5h155q8 -63 14 -119t11 -112q6 -66 50 -97.5t138 -31.5q34 0 65.5 8t55.5 29t38.5 57t14.5 92v267h156v-198q0 -67 5.5 -115t25 -79t55.5 -46t98 -15zM1709 850h-185v181h185
v-181zM1709 -346h-185v181h185v-181z" />
    <glyph glyph-name="uni069B.init" unicode="&#x69b;" horiz-adv-x="1710" 
d="M1011 408q0 -67 5.5 -115t25 -79t55.5 -46t98 -15q38 0 70 7.5t55 28.5t35.5 57t12.5 93v444h156v-457q0 -108 -28.5 -174.5t-75 -103.5t-106 -49.5t-122.5 -12.5q-44 0 -83.5 6.5t-72.5 20.5t-59 37.5t-44 58.5h-4q-26 -35 -59 -58.5t-68.5 -38t-71.5 -20.5t-69 -6
q-100 0 -159.5 31.5t-89.5 91.5h-4q-26 -35 -58.5 -58.5t-67.5 -38t-70.5 -20.5t-68.5 -6h-143q-35 0 -52.5 26t-17.5 58t17.5 57.5t52.5 25.5h153q29 0 62.5 9t61.5 31t46.5 57.5t18.5 88.5v267h156v-201q0 -65 5.5 -112.5t23.5 -78.5t52 -46t91 -15q36 0 69.5 8t59 29
t41 57t15.5 92v267h156v-198zM864 -287h-185v181h185v-181zM1186 -287h-185v181h185v-181zM1025 -567h-185v181h185v-181z" />
    <glyph glyph-name="uni069B.medi" unicode="&#x69b;" horiz-adv-x="1710" 
d="M1195 153q38 0 70 7.5t55 28.5t35.5 57t12.5 93v444h156v-369q0 -67 6 -116t25.5 -81.5t56 -48t98.5 -15.5v-167h-22q-93 0 -149 27t-87 84h-6q-23 -33 -52 -54t-62 -34t-68.5 -18t-71.5 -5q-44 0 -83.5 6.5t-72.5 20.5t-59 37.5t-44 58.5h-4q-26 -35 -59 -58.5
t-68.5 -38t-71.5 -20.5t-69 -6q-100 0 -159.5 31.5t-89.5 91.5h-4q-26 -35 -58.5 -58.5t-67.5 -38t-70.5 -20.5t-68.5 -6h-143q-35 0 -52.5 26t-17.5 58t17.5 57.5t52.5 25.5h153q29 0 62.5 9t61.5 31t46.5 57.5t18.5 88.5v267h156v-201q0 -65 5.5 -112.5t23.5 -78.5t52 -46
t91 -15q36 0 69.5 8t59 29t41 57t15.5 92v267h156v-198q0 -67 5.5 -115t25 -79t55.5 -46t98 -15zM864 -287h-185v181h185v-181zM1186 -287h-185v181h185v-181zM1025 -567h-185v181h185v-181z" />
    <glyph glyph-name="uni069B.fina" unicode="&#x69b;" horiz-adv-x="2394" 
d="M1879 153q38 0 70 7.5t55 28.5t35.5 57t12.5 93v444h156v-369q0 -67 6 -116t25.5 -81.5t56 -48t98.5 -15.5v-167h-22q-93 0 -149 27t-87 84h-6q-23 -33 -52 -54t-62 -34t-68.5 -18t-71.5 -5q-44 0 -83.5 6.5t-72.5 20.5t-59 37.5t-44 58.5h-4q-25 -35 -56.5 -58.5
t-65.5 -38t-69 -20.5t-66 -6q-66 0 -107 19t-66 51l-5 -1q-3 -132 -33.5 -237.5t-94.5 -179t-166 -112.5t-247 -39q-138 0 -230.5 34.5t-148.5 98t-79.5 155t-23.5 205.5q0 64 7.5 132.5t21.5 146.5h151q-11 -75 -17 -138.5t-6 -120.5q0 -95 18 -161t57.5 -106.5
t102.5 -58.5t153 -18q105 0 178.5 24.5t120 79.5t68 144.5t21.5 218.5q0 83 -9 176.5t-25 213.5h155q8 -63 14 -119t11 -112q6 -66 50 -97.5t138 -31.5q34 0 65.5 8t55.5 29t38.5 57t14.5 92v267h156v-198q0 -67 5.5 -115t25 -79t55.5 -46t98 -15zM1548 -287h-185v181h185
v-181zM1870 -287h-185v181h185v-181zM1709 -567h-185v181h185v-181z" />
    <glyph glyph-name="uni069C.init" unicode="&#x69c;" horiz-adv-x="1710" 
d="M1011 408q0 -67 5.5 -115t25 -79t55.5 -46t98 -15q38 0 70 7.5t55 28.5t35.5 57t12.5 93v444h156v-457q0 -108 -28.5 -174.5t-75 -103.5t-106 -49.5t-122.5 -12.5q-44 0 -83.5 6.5t-72.5 20.5t-59 37.5t-44 58.5h-4q-26 -35 -59 -58.5t-68.5 -38t-71.5 -20.5t-69 -6
q-100 0 -159.5 31.5t-89.5 91.5h-4q-26 -35 -58.5 -58.5t-67.5 -38t-70.5 -20.5t-68.5 -6h-143q-35 0 -52.5 26t-17.5 58t17.5 57.5t52.5 25.5h153q29 0 62.5 9t61.5 31t46.5 57.5t18.5 88.5v267h156v-201q0 -65 5.5 -112.5t23.5 -78.5t52 -46t91 -15q36 0 69.5 8t59 29
t41 57t15.5 92v267h156v-198zM864 -287h-185v181h185v-181zM1186 -287h-185v181h185v-181zM1025 -567h-185v181h185v-181zM864 850h-185v181h185v-181zM1186 850h-185v181h185v-181zM1025 1130h-185v181h185v-181z" />
    <glyph glyph-name="uni069C.medi" unicode="&#x69c;" horiz-adv-x="1710" 
d="M1195 153q38 0 70 7.5t55 28.5t35.5 57t12.5 93v444h156v-369q0 -67 6 -116t25.5 -81.5t56 -48t98.5 -15.5v-167h-22q-93 0 -149 27t-87 84h-6q-23 -33 -52 -54t-62 -34t-68.5 -18t-71.5 -5q-44 0 -83.5 6.5t-72.5 20.5t-59 37.5t-44 58.5h-4q-26 -35 -59 -58.5
t-68.5 -38t-71.5 -20.5t-69 -6q-100 0 -159.5 31.5t-89.5 91.5h-4q-26 -35 -58.5 -58.5t-67.5 -38t-70.5 -20.5t-68.5 -6h-143q-35 0 -52.5 26t-17.5 58t17.5 57.5t52.5 25.5h153q29 0 62.5 9t61.5 31t46.5 57.5t18.5 88.5v267h156v-201q0 -65 5.5 -112.5t23.5 -78.5t52 -46
t91 -15q36 0 69.5 8t59 29t41 57t15.5 92v267h156v-198q0 -67 5.5 -115t25 -79t55.5 -46t98 -15zM864 -287h-185v181h185v-181zM1186 -287h-185v181h185v-181zM1025 -567h-185v181h185v-181zM864 850h-185v181h185v-181zM1186 850h-185v181h185v-181zM1025 1130h-185v181
h185v-181z" />
    <glyph glyph-name="uni069C.fina" unicode="&#x69c;" horiz-adv-x="2394" 
d="M1879 153q38 0 70 7.5t55 28.5t35.5 57t12.5 93v444h156v-369q0 -67 6 -116t25.5 -81.5t56 -48t98.5 -15.5v-167h-22q-93 0 -149 27t-87 84h-6q-23 -33 -52 -54t-62 -34t-68.5 -18t-71.5 -5q-44 0 -83.5 6.5t-72.5 20.5t-59 37.5t-44 58.5h-4q-25 -35 -56.5 -58.5
t-65.5 -38t-69 -20.5t-66 -6q-66 0 -107 19t-66 51l-5 -1q-3 -132 -33.5 -237.5t-94.5 -179t-166 -112.5t-247 -39q-138 0 -230.5 34.5t-148.5 98t-79.5 155t-23.5 205.5q0 64 7.5 132.5t21.5 146.5h151q-11 -75 -17 -138.5t-6 -120.5q0 -95 18 -161t57.5 -106.5
t102.5 -58.5t153 -18q105 0 178.5 24.5t120 79.5t68 144.5t21.5 218.5q0 83 -9 176.5t-25 213.5h155q8 -63 14 -119t11 -112q6 -66 50 -97.5t138 -31.5q34 0 65.5 8t55.5 29t38.5 57t14.5 92v267h156v-198q0 -67 5.5 -115t25 -79t55.5 -46t98 -15zM1548 -287h-185v181h185
v-181zM1870 -287h-185v181h185v-181zM1709 -567h-185v181h185v-181zM1538 850h-185v181h185v-181zM1860 850h-185v181h185v-181zM1699 1130h-185v181h185v-181z" />
    <glyph glyph-name="uni069D.init" unicode="&#x69d;" horiz-adv-x="2052" 
d="M408 109q-26 -35 -58.5 -58.5t-67.5 -38t-70.5 -20.5t-68.5 -6h-143q-35 0 -52.5 26t-17.5 58t17.5 57.5t52.5 25.5h153q39 0 72 12t57 31.5t38 45t14 52.5q0 48 -7.5 103t-20.5 116h154q11 -63 17.5 -120t14.5 -115q3 -23 11.5 -44.5t25 -38.5t43.5 -27.5t67 -12.5
q24 65 62 140t89.5 149.5t116 144t141.5 122.5t167 85t191 32q121 0 208 -37.5t143 -101.5t83 -149.5t27 -181.5q0 -93 -22.5 -157t-63.5 -106.5t-97.5 -66t-124.5 -34.5t-145 -13.5t-159 -2.5q-179 0 -307 0.5t-215.5 3.5t-140 9.5t-79.5 18.5q-35 15 -58 39.5t-43 59.5h-4
zM1277 147q107 0 188 5t135.5 24.5t82 59t27.5 108.5q0 86 -25 146t-69 97.5t-104.5 54.5t-131.5 17q-110 0 -204 -46t-169.5 -119t-130.5 -163.5t-86 -180.5q92 -2 211 -2.5t276 -0.5zM1090 -346h-185v181h185v-181zM1412 -346h-185v181h185v-181z" />
    <glyph glyph-name="uni069D.medi" unicode="&#x69d;" horiz-adv-x="2052" 
d="M1255 -22q-179 0 -307 0.5t-215.5 3.5t-140 9.5t-79.5 18.5q-35 15 -58 39.5t-43 59.5h-4q-26 -35 -58.5 -58.5t-67.5 -38t-70.5 -20.5t-68.5 -6h-143q-35 0 -52.5 26t-17.5 58t17.5 57.5t52.5 25.5h153q39 0 72 12t57 31.5t38 45t14 52.5q0 48 -7.5 103t-20.5 116h154
q11 -63 17.5 -120t14.5 -115q3 -23 11.5 -44.5t25 -38.5t43.5 -27.5t67 -12.5q24 65 62 140t89.5 149.5t116 144t141.5 122.5t167 85t191 32q120 0 206 -36.5t142 -99t83.5 -144.5t29.5 -173q1 -58 9.5 -100t29 -69t56 -40t90.5 -13v-167h-22q-94 0 -152 29t-89 98h-6
q-38 -49 -94 -76t-124.5 -40t-147 -16t-162.5 -3zM1277 147q107 0 188 5t135.5 24.5t82 59t27.5 108.5q0 86 -25 146t-69 97.5t-104.5 54.5t-131.5 17q-110 0 -204 -46t-169.5 -119t-130.5 -163.5t-86 -180.5q92 -2 211 -2.5t276 -0.5zM1090 -346h-185v181h185v-181z
M1412 -346h-185v181h185v-181z" />
    <glyph glyph-name="uni069D.fina" unicode="&#x69d;" horiz-adv-x="2736" 
d="M1272 -3q-31 9 -51 23.5t-38 35.5l-5 -1q-3 -132 -33.5 -237.5t-95 -179t-167 -112.5t-250.5 -39q-136 0 -227.5 34.5t-147 98t-79 155t-23.5 205.5q0 64 7.5 132.5t21.5 146.5h151q-11 -75 -17 -138.5t-6 -120.5q0 -95 18 -161t57.5 -106.5t102.5 -58.5t153 -18
q105 0 178.5 24.5t120 79.5t68 144.5t21.5 218.5q0 83 -9 181.5t-32 208.5h154q11 -63 17.5 -120t14.5 -115q3 -23 11.5 -44.5t25 -38.5t43.5 -27.5t67 -12.5q24 65 62 140t89.5 149.5t116 144t141.5 122.5t167 85t191 32q120 0 206 -36.5t142 -99t83.5 -144.5t29.5 -173
q1 -58 9.5 -100t29 -69t55.5 -40t91 -13v-167h-22q-94 0 -152 29t-89 98h-6q-38 -49 -94 -76t-124.5 -40t-147 -16t-162.5 -3q-161 0 -276.5 0.5t-194 2t-125.5 5.5t-71 11zM1961 147q107 0 188 5t135.5 24.5t82 59t27.5 108.5q0 86 -25 146t-69 97.5t-104.5 54.5t-131.5 17
q-73 0 -139.5 -21t-125 -57.5t-109 -86t-91.5 -106t-72.5 -117.5t-52.5 -121q92 -2 211 -2.5t276 -0.5zM1784 -346h-185v181h185v-181zM2106 -346h-185v181h185v-181z" />
    <glyph glyph-name="uni069E.init" unicode="&#x69e;" horiz-adv-x="2052" 
d="M408 109q-26 -35 -58.5 -58.5t-67.5 -38t-70.5 -20.5t-68.5 -6h-143q-35 0 -52.5 26t-17.5 58t17.5 57.5t52.5 25.5h153q39 0 72 12t57 31.5t38 45t14 52.5q0 48 -7.5 103t-20.5 116h154q11 -63 17.5 -120t14.5 -115q3 -23 11.5 -44.5t25 -38.5t43.5 -27.5t67 -12.5
q24 65 62 140t89.5 149.5t116 144t141.5 122.5t167 85t191 32q121 0 208 -37.5t143 -101.5t83 -149.5t27 -181.5q0 -93 -22.5 -157t-63.5 -106.5t-97.5 -66t-124.5 -34.5t-145 -13.5t-159 -2.5q-179 0 -307 0.5t-215.5 3.5t-140 9.5t-79.5 18.5q-35 15 -58 39.5t-43 59.5h-4
zM1277 147q107 0 188 5t135.5 24.5t82 59t27.5 108.5q0 86 -25 146t-69 97.5t-104.5 54.5t-131.5 17q-110 0 -204 -46t-169.5 -119t-130.5 -163.5t-86 -180.5q92 -2 211 -2.5t276 -0.5zM986 1021h-185v181h185v-181zM1308 1021h-185v181h185v-181zM1147 1301h-185v181h185
v-181z" />
    <glyph glyph-name="uni069E.medi" unicode="&#x69e;" horiz-adv-x="2052" 
d="M1255 -22q-179 0 -307 0.5t-215.5 3.5t-140 9.5t-79.5 18.5q-35 15 -58 39.5t-43 59.5h-4q-26 -35 -58.5 -58.5t-67.5 -38t-70.5 -20.5t-68.5 -6h-143q-35 0 -52.5 26t-17.5 58t17.5 57.5t52.5 25.5h153q39 0 72 12t57 31.5t38 45t14 52.5q0 48 -7.5 103t-20.5 116h154
q11 -63 17.5 -120t14.5 -115q3 -23 11.5 -44.5t25 -38.5t43.5 -27.5t67 -12.5q24 65 62 140t89.5 149.5t116 144t141.5 122.5t167 85t191 32q120 0 206 -36.5t142 -99t83.5 -144.5t29.5 -173q1 -58 9.5 -100t29 -69t56 -40t90.5 -13v-167h-22q-94 0 -152 29t-89 98h-6
q-38 -49 -94 -76t-124.5 -40t-147 -16t-162.5 -3zM1277 147q107 0 188 5t135.5 24.5t82 59t27.5 108.5q0 86 -25 146t-69 97.5t-104.5 54.5t-131.5 17q-110 0 -204 -46t-169.5 -119t-130.5 -163.5t-86 -180.5q92 -2 211 -2.5t276 -0.5zM986 1021h-185v181h185v-181z
M1308 1021h-185v181h185v-181zM1147 1301h-185v181h185v-181z" />
    <glyph glyph-name="uni069E.fina" unicode="&#x69e;" horiz-adv-x="2736" 
d="M1272 -3q-31 9 -51 23.5t-38 35.5l-5 -1q-3 -132 -33.5 -237.5t-95 -179t-167 -112.5t-250.5 -39q-136 0 -227.5 34.5t-147 98t-79 155t-23.5 205.5q0 64 7.5 132.5t21.5 146.5h151q-11 -75 -17 -138.5t-6 -120.5q0 -95 18 -161t57.5 -106.5t102.5 -58.5t153 -18
q105 0 178.5 24.5t120 79.5t68 144.5t21.5 218.5q0 83 -9 181.5t-32 208.5h154q11 -63 17.5 -120t14.5 -115q3 -23 11.5 -44.5t25 -38.5t43.5 -27.5t67 -12.5q24 65 62 140t89.5 149.5t116 144t141.5 122.5t167 85t191 32q120 0 206 -36.5t142 -99t83.5 -144.5t29.5 -173
q1 -58 9.5 -100t29 -69t55.5 -40t91 -13v-167h-22q-94 0 -152 29t-89 98h-6q-38 -49 -94 -76t-124.5 -40t-147 -16t-162.5 -3q-161 0 -276.5 0.5t-194 2t-125.5 5.5t-71 11zM1961 147q107 0 188 5t135.5 24.5t82 59t27.5 108.5q0 86 -25 146t-69 97.5t-104.5 54.5t-131.5 17
q-73 0 -139.5 -21t-125 -57.5t-109 -86t-91.5 -106t-72.5 -117.5t-52.5 -121q92 -2 211 -2.5t276 -0.5zM1670 1021h-185v181h185v-181zM1992 1021h-185v181h185v-181zM1831 1301h-185v181h185v-181z" />
    <glyph glyph-name="uni069F.init" unicode="&#x69f;" horiz-adv-x="1710" 
d="M1064 856q121 0 208 -39.5t143 -107.5t83 -158.5t27 -192.5q0 -93 -22.5 -157t-63 -106t-97 -65t-124.5 -34t-145 -13t-159 -2q-114 0 -213.5 1t-198.5 1.5t-204 1.5t-229 1h-69q-35 0 -52.5 26t-17.5 58t17.5 57.5t52.5 25.5h302q8 23 18 46.5l21 49.5v1267h158v-995
l3 -1q46 67 105.5 128t131 107t153.5 73.5t172 27.5zM935 147q107 0 188 5t135.5 24.5t82 59t27.5 108.5q0 94 -25 159t-69 106t-104.5 59.5t-131.5 18.5q-73 0 -138.5 -22t-124 -61t-108 -91t-90.5 -111.5t-72 -124t-52 -127.5q91 -2 208.5 -2.5t273.5 -0.5zM929 1021h-185
v181h185v-181zM1251 1021h-185v181h185v-181zM1090 1301h-185v181h185v-181z" />
    <glyph glyph-name="uni069F.medi" unicode="&#x69f;" horiz-adv-x="1710" 
d="M1064 856q120 0 206 -39t142 -105t83.5 -153t29.5 -184q1 -58 9.5 -100t29 -69t56 -40t90.5 -13v-167h-22q-94 0 -152 30t-89 97h-6q-38 -48 -93.5 -74.5t-124 -39.5t-147 -15.5t-162.5 -2.5q-114 0 -213.5 1t-198.5 1.5t-204 1.5t-229 1h-69q-35 0 -52.5 26t-17.5 58
t17.5 57.5t52.5 25.5h302q8 23 18 46.5l21 49.5v1267h158v-995l3 -1q46 67 105.5 128t131 107t153.5 73.5t172 27.5zM935 147q107 0 188 5t135.5 24.5t82 59t27.5 108.5q0 94 -25 159t-69 106t-104.5 59.5t-131.5 18.5q-73 0 -139 -22.5t-124 -61t-107.5 -90.5t-90.5 -111.5
t-72 -124t-52 -127.5q91 -2 208.5 -2.5t273.5 -0.5zM929 1021h-185v181h185v-181zM1251 1021h-185v181h185v-181zM1090 1301h-185v181h185v-181z" />
    <glyph glyph-name="uni069F.fina" unicode="&#x69f;" horiz-adv-x="1710" 
d="M1064 856q120 0 206 -39t142 -105t83.5 -153t29.5 -184q1 -58 9.5 -100t29 -69t56 -40t90.5 -13v-167h-22q-94 0 -152 29t-89 98h-6q-38 -49 -94 -76t-124.5 -40t-147 -16t-162.5 -3q-183 0 -316.5 1.5t-232.5 4.5t-172 7.5t-135 10.5l-32 167q45 -6 117.5 -9.5
t160.5 -4.5q8 22 17.5 45l20.5 49v1267h158v-995l3 -1q46 67 105.5 128t131 107t153.5 73.5t172 27.5zM935 147q107 0 188 5t135.5 24.5t82 59t27.5 108.5q0 94 -25 159t-69 106t-104.5 59.5t-131.5 18.5q-73 0 -139 -22.5t-124 -61t-107.5 -90.5t-90.5 -111.5t-72 -124
t-52 -127.5q92 -2 208.5 -2.5t273.5 -0.5zM929 1021h-185v181h185v-181zM1251 1021h-185v181h185v-181zM1090 1301h-185v181h185v-181z" />
    <glyph glyph-name="uni06A0.init" unicode="&#x6a0;" horiz-adv-x="1198" 
d="M1084 171q-120 -55 -226.5 -90.5t-207 -56.5t-199 -29.5t-201.5 -8.5h-250q-35 0 -52.5 26t-17.5 58t17.5 57.5t52.5 25.5h369l1 6q-62 51 -101 100.5t-61 95.5t-29.5 86.5t-7.5 73.5q0 79 34.5 150t99.5 124.5t159 85t213 31.5q40 0 84.5 -4t92.5 -13v-170
q-46 8 -95.5 13.5t-103.5 5.5q-63 0 -122 -10t-105 -36.5t-73.5 -71.5t-27.5 -114q0 -33 11 -71t38 -79.5t73 -86t117 -90.5q128 25 252.5 67t264.5 108zM473 1071h-185v181h185v-181zM795 1071h-185v181h185v-181zM634 1351h-185v181h185v-181z" />
    <glyph glyph-name="uni06A0.medi" unicode="&#x6a0;" horiz-adv-x="1197" 
d="M1197 153v-167h-62q-135 0 -254.5 37t-228.5 106q-103 -64 -239 -103.5t-310 -39.5h-103q-35 0 -52.5 26t-17.5 58t17.5 57.5t52.5 25.5h113q128 0 227.5 21t178.5 56q-106 88 -192.5 192t-155.5 216v173l102 16t120 16.5t129.5 13t129.5 5.5q39 0 81 -2.5t82 -10.5
t75.5 -22t62.5 -36.5t43 -55t16 -76.5q0 -38 -12.5 -88.5t-39 -106.5t-67.5 -114t-98 -112q184 -85 402 -85zM855 612q0 51 -60.5 72t-163.5 21q-76 0 -155 -7.5t-152 -15.5v-11q69 -106 152.5 -194.5t188.5 -160.5q52 41 88.5 85t59 84.5t32.5 73.5t10 53zM530 1021h-185
v181h185v-181zM852 1021h-185v181h185v-181zM691 1301h-185v181h185v-181z" />
    <glyph glyph-name="uni06A0.fina" unicode="&#x6a0;" horiz-adv-x="1197" 
d="M1176 153h21v-167h-62q-86 0 -167.5 19t-157.5 53.5t-146.5 83t-134.5 107.5q-77 -32 -129 -67t-84 -72t-45.5 -76.5t-13.5 -79.5q0 -64 23 -121t72.5 -99.5t128.5 -67.5t192 -25q97 0 196.5 19t199.5 54v-154q-109 -38 -204.5 -55.5t-195.5 -17.5q-152 0 -259.5 36
t-176 97.5t-100.5 143t-32 172.5q0 54 14 106.5t50 105t99 104t161 102.5q-32 34 -67 78l-69 91l-65 93.5t-53 84.5v165l102 16t120.5 16.5t130 13t129.5 5.5q39 0 81 -3t81.5 -10.5t75.5 -21t62.5 -35.5t42.5 -53t16 -73q0 -35 -13.5 -82.5t-49.5 -101t-100 -109
t-166 -104.5q112 -82 233 -126.5t260 -44.5zM855 672q0 47 -60 67.5t-163 20.5q-76 0 -155.5 -7.5t-152.5 -15.5v-13q113 -176 248 -305q85 38 140 76.5t87 72.5t44 61t12 43zM530 1141h-185v181h185v-181zM852 1141h-185v181h185v-181zM691 1421h-185v181h185v-181z" />
    <glyph glyph-name="uni06A1.init" unicode="&#x6a1;" horiz-adv-x="1026" 
d="M421 158q-74 30 -122 64t-76 72.5t-38.5 81t-10.5 89.5q0 64 24 134.5t66.5 130t100.5 98t126 38.5q72 0 131.5 -41t113.5 -129q20 -33 39 -70t33.5 -78t23.5 -86t9 -93q0 -96 -28.5 -161.5t-77 -108t-113 -65.5t-137 -33.5t-148 -12.5t-146.5 -2h-191q-35 0 -52.5 26
t-17.5 58t17.5 57.5t52.5 25.5h200q48 0 106.5 -0.5t112.5 -1.5zM684 365q0 29 -7.5 64.5t-21.5 72t-33 71t-41.5 61.5t-47.5 43t-51 16q-29 0 -56.5 -19t-49.5 -49t-35.5 -68t-13.5 -76q0 -32 12.5 -63.5t45 -64.5t90 -70t147.5 -79q33 24 47.5 62.5t14.5 98.5z" />
    <glyph glyph-name="uni06A1.medi" unicode="&#x6a1;" horiz-adv-x="1026" 
d="M421 158q-74 30 -122 64t-76 72.5t-38.5 81t-10.5 89.5q0 64 24 134.5t66.5 130t100.5 98t126 38.5q72 0 132 -41.5t114 -127.5q21 -33 39.5 -70t33 -78.5t23 -86.5t8.5 -93q0 -66 -13.5 -116t-38.5 -88q56 -9 113 -10.5t124 -1.5v-167h-22q-44 0 -92 3.5t-95.5 10.5
t-93.5 18t-85 26q-50 -22 -106 -33.5t-114.5 -17t-116.5 -6.5t-110 -1h-191q-35 0 -52.5 26t-17.5 58t17.5 57.5t52.5 25.5h200q48 0 106.5 -0.5t112.5 -1.5zM684 365q0 29 -7.5 64.5t-21.5 72t-33 71t-41.5 61.5t-47.5 43t-51 16q-29 0 -57 -19t-49.5 -49t-35 -68
t-13.5 -76q0 -32 12.5 -63t46 -65t91.5 -71t149 -80q33 24 45.5 63.5t12.5 99.5z" />
    <glyph glyph-name="uni06A1.fina" unicode="&#x6a1;" horiz-adv-x="2052" 
d="M1200 465q0 64 24 134.5t66.5 130t100.5 98t126 38.5q72 0 132 -41.5t114 -127.5q21 -33 39.5 -70t33 -78.5t23 -86.5t8.5 -93q0 -66 -13.5 -115.5t-38.5 -88.5q56 -9 113 -10.5t124 -1.5v-167h-22q-44 0 -92 3.5t-95.5 10.5t-93 18t-84.5 26q-51 -24 -110.5 -37
t-124.5 -19.5t-134 -8t-138 -1.5h-185q-134 0 -241 2.5t-192 13t-148.5 33t-109.5 61.5q-63 54 -87 130.5t-24 164.5q0 61 9 117t20 107h154q-9 -43 -17.5 -93.5t-8.5 -104.5q0 -60 16 -111t62 -83q23 -16 51.5 -27.5t68 -19t94 -11.5t129.5 -6.5t174.5 -3t229.5 -0.5
q91 0 162 1t130 4l2 6q-74 30 -122 64t-76 72.5t-38.5 81t-10.5 89.5zM1710 365q0 29 -7.5 64.5t-21.5 72t-33 71t-41.5 61.5t-47.5 43t-51 16q-29 0 -57 -19t-49.5 -49t-35 -68t-13.5 -76q0 -31 12.5 -62t45 -64.5t90 -70.5t147.5 -80q35 24 48.5 62.5t13.5 98.5z" />
    <glyph glyph-name="uni06A2.init" unicode="&#x6a2;" horiz-adv-x="1026" 
d="M421 158q-74 30 -122 64t-76 72.5t-38.5 81t-10.5 89.5q0 64 24 134.5t66.5 130t100.5 98t126 38.5q72 0 131.5 -41t113.5 -129q20 -33 39 -70t33.5 -78t23.5 -86t9 -93q0 -96 -28.5 -161.5t-77 -108t-113 -65.5t-137 -33.5t-148 -12.5t-146.5 -2h-191q-35 0 -52.5 26
t-17.5 58t17.5 57.5t52.5 25.5h200q48 0 106.5 -0.5t112.5 -1.5zM684 365q0 29 -7.5 64.5t-21.5 72t-33 71t-41.5 61.5t-47.5 43t-51 16q-29 0 -56.5 -19t-49.5 -49t-35.5 -68t-13.5 -76q0 -32 12.5 -63.5t45 -64.5t90 -70t147.5 -79q33 24 47.5 62.5t14.5 98.5zM619 -346
h-185v181h185v-181z" />
    <glyph glyph-name="uni06A2.medi" unicode="&#x6a2;" horiz-adv-x="1026" 
d="M421 158q-74 30 -122 64t-76 72.5t-38.5 81t-10.5 89.5q0 64 24 134.5t66.5 130t100.5 98t126 38.5q72 0 132 -41.5t114 -127.5q21 -33 39.5 -70t33 -78.5t23 -86.5t8.5 -93q0 -66 -13.5 -116t-38.5 -88q56 -9 113 -10.5t124 -1.5v-167h-22q-44 0 -92 3.5t-95.5 10.5
t-93.5 18t-85 26q-50 -22 -106 -33.5t-114.5 -17t-116.5 -6.5t-110 -1h-191q-35 0 -52.5 26t-17.5 58t17.5 57.5t52.5 25.5h200q48 0 106.5 -0.5t112.5 -1.5zM684 365q0 29 -7.5 64.5t-21.5 72t-33 71t-41.5 61.5t-47.5 43t-51 16q-29 0 -57 -19t-49.5 -49t-35 -68
t-13.5 -76q0 -32 12.5 -63t46 -65t91.5 -71t149 -80q33 24 45.5 63.5t12.5 99.5zM619 -346h-185v181h185v-181z" />
    <glyph glyph-name="uni06A2.fina" unicode="&#x6a2;" horiz-adv-x="2052" 
d="M1200 465q0 64 24 134.5t66.5 130t100.5 98t126 38.5q72 0 132 -41.5t114 -127.5q21 -33 39.5 -70t33 -78.5t23 -86.5t8.5 -93q0 -66 -13.5 -115.5t-38.5 -88.5q56 -9 113 -10.5t124 -1.5v-167h-22q-44 0 -92 3.5t-95.5 10.5t-93 18t-84.5 26q-51 -24 -110.5 -37
t-124.5 -19.5t-134 -8t-138 -1.5h-185q-134 0 -241 2.5t-192 13t-148.5 33t-109.5 61.5q-63 54 -87 130.5t-24 164.5q0 61 9 117t20 107h154q-9 -43 -17.5 -93.5t-8.5 -104.5q0 -60 16 -111t62 -83q23 -16 51.5 -27.5t68 -19t94 -11.5t129.5 -6.5t174.5 -3t229.5 -0.5
q91 0 162 1t130 4l2 6q-74 30 -122 64t-76 72.5t-38.5 81t-10.5 89.5zM1710 365q0 29 -7.5 64.5t-21.5 72t-33 71t-41.5 61.5t-47.5 43t-51 16q-29 0 -57 -19t-49.5 -49t-35 -68t-13.5 -76q0 -31 12.5 -62t45 -64.5t90 -70.5t147.5 -80q35 24 48.5 62.5t13.5 98.5z
M1645 -346h-185v181h185v-181z" />
    <glyph glyph-name="uni06A3.init" unicode="&#x6a3;" horiz-adv-x="1026" 
d="M421 158q-74 30 -122 64t-76 72.5t-38.5 81t-10.5 89.5q0 64 24 134.5t66.5 130t100.5 98t126 38.5q72 0 131.5 -41t113.5 -129q20 -33 39 -70t33.5 -78t23.5 -86t9 -93q0 -96 -28.5 -161.5t-77 -108t-113 -65.5t-137 -33.5t-148 -12.5t-146.5 -2h-191q-35 0 -52.5 26
t-17.5 58t17.5 57.5t52.5 25.5h200q48 0 106.5 -0.5t112.5 -1.5zM684 365q0 29 -7.5 64.5t-21.5 72t-33 71t-41.5 61.5t-47.5 43t-51 16q-29 0 -56.5 -19t-49.5 -49t-35.5 -68t-13.5 -76q0 -32 12.5 -63.5t45 -64.5t90 -70t147.5 -79q33 24 47.5 62.5t14.5 98.5zM619 -346
h-185v181h185v-181zM562 1135h-185v181h185v-181z" />
    <glyph glyph-name="uni06A3.medi" unicode="&#x6a3;" horiz-adv-x="1026" 
d="M421 158q-74 30 -122 64t-76 72.5t-38.5 81t-10.5 89.5q0 64 24 134.5t66.5 130t100.5 98t126 38.5q72 0 132 -41.5t114 -127.5q21 -33 39.5 -70t33 -78.5t23 -86.5t8.5 -93q0 -66 -13.5 -116t-38.5 -88q56 -9 113 -10.5t124 -1.5v-167h-22q-44 0 -92 3.5t-95.5 10.5
t-93.5 18t-85 26q-50 -22 -106 -33.5t-114.5 -17t-116.5 -6.5t-110 -1h-191q-35 0 -52.5 26t-17.5 58t17.5 57.5t52.5 25.5h200q48 0 106.5 -0.5t112.5 -1.5zM684 365q0 29 -7.5 64.5t-21.5 72t-33 71t-41.5 61.5t-47.5 43t-51 16q-29 0 -57 -19t-49.5 -49t-35 -68
t-13.5 -76q0 -32 12.5 -63t46 -65t91.5 -71t149 -80q33 24 45.5 63.5t12.5 99.5zM619 -346h-185v181h185v-181zM562 1135h-185v181h185v-181z" />
    <glyph glyph-name="uni06A3.fina" unicode="&#x6a3;" horiz-adv-x="2052" 
d="M1200 465q0 64 24 134.5t66.5 130t100.5 98t126 38.5q72 0 132 -41.5t114 -127.5q21 -33 39.5 -70t33 -78.5t23 -86.5t8.5 -93q0 -66 -13.5 -115.5t-38.5 -88.5q56 -9 113 -10.5t124 -1.5v-167h-22q-44 0 -92 3.5t-95.5 10.5t-93 18t-84.5 26q-51 -24 -110.5 -37
t-124.5 -19.5t-134 -8t-138 -1.5h-185q-134 0 -241 2.5t-192 13t-148.5 33t-109.5 61.5q-63 54 -87 130.5t-24 164.5q0 61 9 117t20 107h154q-9 -43 -17.5 -93.5t-8.5 -104.5q0 -60 16 -111t62 -83q23 -16 51.5 -27.5t68 -19t94 -11.5t129.5 -6.5t174.5 -3t229.5 -0.5
q91 0 162 1t130 4l2 6q-74 30 -122 64t-76 72.5t-38.5 81t-10.5 89.5zM1710 365q0 29 -7.5 64.5t-21.5 72t-33 71t-41.5 61.5t-47.5 43t-51 16q-29 0 -57 -19t-49.5 -49t-35 -68t-13.5 -76q0 -31 12.5 -62t45 -64.5t90 -70.5t147.5 -80q35 24 48.5 62.5t13.5 98.5z
M1588 1135h-185v181h185v-181zM1645 -346h-185v181h185v-181z" />
    <glyph glyph-name="uni06A5.init" unicode="&#x6a5;" horiz-adv-x="1026" 
d="M421 158q-74 30 -122 64t-76 72.5t-38.5 81t-10.5 89.5q0 64 24 134.5t66.5 130t100.5 98t126 38.5q72 0 131.5 -41t113.5 -129q20 -33 39 -70t33.5 -78t23.5 -86t9 -93q0 -96 -28.5 -161.5t-77 -108t-113 -65.5t-137 -33.5t-148 -12.5t-146.5 -2h-191q-35 0 -52.5 26
t-17.5 58t17.5 57.5t52.5 25.5h200q48 0 106.5 -0.5t112.5 -1.5zM684 365q0 29 -7.5 64.5t-21.5 72t-33 71t-41.5 61.5t-47.5 43t-51 16q-29 0 -56.5 -19t-49.5 -49t-35.5 -68t-13.5 -76q0 -32 12.5 -63.5t45 -64.5t90 -70t147.5 -79q33 24 47.5 62.5t14.5 98.5zM458 -287
h-185v181h185v-181zM780 -287h-185v181h185v-181zM619 -567h-185v181h185v-181z" />
    <glyph glyph-name="uni06A5.medi" unicode="&#x6a5;" horiz-adv-x="1026" 
d="M421 158q-74 30 -122 64t-76 72.5t-38.5 81t-10.5 89.5q0 64 24 134.5t66.5 130t100.5 98t126 38.5q72 0 132 -41.5t114 -127.5q21 -33 39.5 -70t33 -78.5t23 -86.5t8.5 -93q0 -66 -13.5 -116t-38.5 -88q56 -9 113 -10.5t124 -1.5v-167h-22q-44 0 -92 3.5t-95.5 10.5
t-93.5 18t-85 26q-50 -22 -106 -33.5t-114.5 -17t-116.5 -6.5t-110 -1h-191q-35 0 -52.5 26t-17.5 58t17.5 57.5t52.5 25.5h200q48 0 106.5 -0.5t112.5 -1.5zM684 365q0 29 -7.5 64.5t-21.5 72t-33 71t-41.5 61.5t-47.5 43t-51 16q-29 0 -57 -19t-49.5 -49t-35 -68
t-13.5 -76q0 -32 12.5 -63t46 -65t91.5 -71t149 -80q33 24 45.5 63.5t12.5 99.5zM458 -287h-185v181h185v-181zM780 -287h-185v181h185v-181zM619 -567h-185v181h185v-181z" />
    <glyph glyph-name="uni06A5.fina" unicode="&#x6a5;" horiz-adv-x="2052" 
d="M1200 465q0 64 24 134.5t66.5 130t100.5 98t126 38.5q72 0 132 -41.5t114 -127.5q21 -33 39.5 -70t33 -78.5t23 -86.5t8.5 -93q0 -66 -13.5 -115.5t-38.5 -88.5q56 -9 113 -10.5t124 -1.5v-167h-22q-44 0 -92 3.5t-95.5 10.5t-93 18t-84.5 26q-51 -24 -110.5 -37
t-124.5 -19.5t-134 -8t-138 -1.5h-185q-134 0 -241 2.5t-192 13t-148.5 33t-109.5 61.5q-63 54 -87 130.5t-24 164.5q0 61 9 117t20 107h154q-9 -43 -17.5 -93.5t-8.5 -104.5q0 -60 16 -111t62 -83q23 -16 51.5 -27.5t68 -19t94 -11.5t129.5 -6.5t174.5 -3t229.5 -0.5
q91 0 162 1t130 4l2 6q-74 30 -122 64t-76 72.5t-38.5 81t-10.5 89.5zM1710 365q0 29 -7.5 64.5t-21.5 72t-33 71t-41.5 61.5t-47.5 43t-51 16q-29 0 -57 -19t-49.5 -49t-35 -68t-13.5 -76q0 -31 12.5 -62t45 -64.5t90 -70.5t147.5 -80q35 24 48.5 62.5t13.5 98.5z
M1484 -287h-185v181h185v-181zM1806 -287h-185v181h185v-181zM1645 -567h-185v181h185v-181z" />
    <glyph glyph-name="uni06A6" unicode="&#x6a6;" horiz-adv-x="2052" arabic-form="isolated" 
d="M354 607q-9 -43 -17.5 -93.5t-8.5 -104.5q0 -60 16 -111t62 -83q23 -16 51.5 -27.5t68 -19t94 -11.5t129.5 -6.5t174.5 -3t229.5 -0.5q91 0 162 1t130 4l2 6q-74 30 -122 64t-76 72.5t-38.5 81t-10.5 89.5q0 64 24 134.5t66.5 130t100.5 98t126 38.5q72 0 132 -41
t114 -128q21 -33 39.5 -70t33 -78.5t23 -86.5t8.5 -93q0 -96 -29 -162t-79 -109.5t-118.5 -67.5t-147 -35.5t-164.5 -14t-171 -2.5h-185q-134 0 -241 2.5t-192 13t-148.5 33t-109.5 61.5q-63 54 -87 130.5t-24 164.5q0 61 9 117t20 107h154zM1710 365q0 29 -7.5 64.5
t-21.5 72t-33 71t-41.5 61.5t-47.5 43t-51 16q-29 0 -57 -19t-50 -49t-35 -68t-13 -76q0 -32 12 -63t45 -65t90.5 -70.5t147.5 -78.5q33 24 47.5 62.5t14.5 98.5zM1427 1135h-185v181h185v-181zM1749 1135h-185v181h185v-181zM1427 1415h-185v181h185v-181zM1749 1415h-185
v181h185v-181z" />
    <glyph glyph-name="uniFB70" unicode="&#x6a6;" horiz-adv-x="1026" arabic-form="initial" 
d="M421 158q-74 30 -122 64t-76 72.5t-38.5 81t-10.5 89.5q0 64 24 134.5t66.5 130t100.5 98t126 38.5q72 0 131.5 -41t113.5 -129q20 -33 39 -70t33.5 -78t23.5 -86t9 -93q0 -96 -28.5 -161.5t-77 -108t-113 -65.5t-137 -33.5t-148 -12.5t-146.5 -2h-191q-35 0 -52.5 26
t-17.5 58t17.5 57.5t52.5 25.5h200q48 0 106.5 -0.5t112.5 -1.5zM684 365q0 29 -7.5 64.5t-21.5 72t-33 71t-41.5 61.5t-47.5 43t-51 16q-29 0 -56.5 -19t-49.5 -49t-35.5 -68t-13.5 -76q0 -32 12.5 -63.5t45 -64.5t90 -70t147.5 -79q33 24 47.5 62.5t14.5 98.5zM401 1135
h-185v181h185v-181zM723 1135h-185v181h185v-181zM401 1415h-185v181h185v-181zM723 1415h-185v181h185v-181z" />
    <glyph glyph-name="uniFB71" unicode="&#x6a6;" horiz-adv-x="1026" arabic-form="medial" 
d="M421 158q-74 30 -122 64t-76 72.5t-38.5 81t-10.5 89.5q0 64 24 134.5t66.5 130t100.5 98t126 38.5q72 0 132 -41.5t114 -127.5q21 -33 39.5 -70t33 -78.5t23 -86.5t8.5 -93q0 -66 -13.5 -116t-38.5 -88q56 -9 113 -10.5t124 -1.5v-167h-22q-44 0 -92 3.5t-95.5 10.5
t-93.5 18t-85 26q-50 -22 -106 -33.5t-114.5 -17t-116.5 -6.5t-110 -1h-191q-35 0 -52.5 26t-17.5 58t17.5 57.5t52.5 25.5h200q48 0 106.5 -0.5t112.5 -1.5zM684 365q0 29 -7.5 64.5t-21.5 72t-33 71t-41.5 61.5t-47.5 43t-51 16q-29 0 -57 -19t-49.5 -49t-35 -68
t-13.5 -76q0 -32 12.5 -63t46 -65t91.5 -71t149 -80q33 24 45.5 63.5t12.5 99.5zM401 1135h-185v181h185v-181zM723 1135h-185v181h185v-181zM401 1415h-185v181h185v-181zM723 1415h-185v181h185v-181z" />
    <glyph glyph-name="uni06A7.init" unicode="&#x6a7;" horiz-adv-x="1026" 
d="M421 158q-74 30 -122 64t-76 72.5t-38.5 81t-10.5 89.5q0 64 24 134.5t66.5 130t100.5 98t126 38.5q72 0 131.5 -41t113.5 -129q20 -33 39 -70t33.5 -78t23.5 -86t9 -93q0 -96 -28.5 -161.5t-77 -108t-113 -65.5t-137 -33.5t-148 -12.5t-146.5 -2h-191q-35 0 -52.5 26
t-17.5 58t17.5 57.5t52.5 25.5h200q48 0 106.5 -0.5t112.5 -1.5zM684 365q0 29 -7.5 64.5t-21.5 72t-33 71t-41.5 61.5t-47.5 43t-51 16q-29 0 -56.5 -19t-49.5 -49t-35.5 -68t-13.5 -76q0 -32 12.5 -63.5t45 -64.5t90 -70t147.5 -79q33 24 47.5 62.5t14.5 98.5zM562 1135
h-185v181h185v-181z" />
    <glyph glyph-name="uni06A7.medi" unicode="&#x6a7;" horiz-adv-x="1026" 
d="M421 158q-74 30 -122 64t-76 72.5t-38.5 81t-10.5 89.5q0 64 24 134.5t66.5 130t100.5 98t126 38.5q72 0 132 -41.5t114 -127.5q21 -33 39.5 -70t33 -78.5t23 -86.5t8.5 -93q0 -66 -13.5 -116t-38.5 -88q56 -9 113 -10.5t124 -1.5v-167h-22q-44 0 -92 3.5t-95.5 10.5
t-93.5 18t-85 26q-50 -22 -106 -33.5t-114.5 -17t-116.5 -6.5t-110 -1h-191q-35 0 -52.5 26t-17.5 58t17.5 57.5t52.5 25.5h200q48 0 106.5 -0.5t112.5 -1.5zM684 365q0 29 -7.5 64.5t-21.5 72t-33 71t-41.5 61.5t-47.5 43t-51 16q-29 0 -57 -19t-49.5 -49t-35 -68
t-13.5 -76q0 -32 12.5 -63t46 -65t91.5 -71t149 -80q33 24 45.5 63.5t12.5 99.5zM562 1135h-185v181h185v-181z" />
    <glyph glyph-name="uni06A7.fina" unicode="&#x6a7;" horiz-adv-x="1539" 
d="M1078 -14q-92 0 -164.5 20.5t-123.5 60t-78 96.5t-27 131q0 64 24 134.5t66.5 130t100 98t125.5 38.5q72 0 132 -42t114 -127q45 -72 71 -168t33 -205h188v-167h-187q-11 -127 -53 -221t-118.5 -155.5t-188.5 -92t-263 -30.5q-161 0 -270.5 32.5t-177 94.5t-97 153.5
t-29.5 210.5q0 63 7.5 133t21.5 148h151q-11 -75 -17 -137.5t-6 -116.5q0 -95 21.5 -161t71.5 -108t132.5 -61t204.5 -19q96 0 166.5 12.5t120 35t80.5 53.5t49 67.5t26 77.5t11 84h-117zM1166 308q-13 38 -31.5 76.5t-40.5 69t-48 49.5t-54 19q-29 0 -56.5 -19t-49.5 -49
t-35 -68t-13 -76q0 -75 62 -116t196 -41h101q-4 39 -11 78t-20 77zM1073 964h-185v181h185v-181z" />
    <glyph glyph-name="uni06A8.init" unicode="&#x6a8;" horiz-adv-x="1026" 
d="M421 158q-74 30 -122 64t-76 72.5t-38.5 81t-10.5 89.5q0 64 24 134.5t66.5 130t100.5 98t126 38.5q72 0 131.5 -41t113.5 -129q20 -33 39 -70t33.5 -78t23.5 -86t9 -93q0 -96 -28.5 -161.5t-77 -108t-113 -65.5t-137 -33.5t-148 -12.5t-146.5 -2h-191q-35 0 -52.5 26
t-17.5 58t17.5 57.5t52.5 25.5h200q48 0 106.5 -0.5t112.5 -1.5zM684 365q0 29 -7.5 64.5t-21.5 72t-33 71t-41.5 61.5t-47.5 43t-51 16q-29 0 -56.5 -19t-49.5 -49t-35.5 -68t-13.5 -76q0 -32 12.5 -63.5t45 -64.5t90 -70t147.5 -79q33 24 47.5 62.5t14.5 98.5zM401 1135
h-185v181h185v-181zM723 1135h-185v181h185v-181zM562 1415h-185v181h185v-181z" />
    <glyph glyph-name="uni06A8.medi" unicode="&#x6a8;" horiz-adv-x="1026" 
d="M421 158q-74 30 -122 64t-76 72.5t-38.5 81t-10.5 89.5q0 64 24 134.5t66.5 130t100.5 98t126 38.5q72 0 132 -41.5t114 -127.5q21 -33 39.5 -70t33 -78.5t23 -86.5t8.5 -93q0 -66 -13.5 -116t-38.5 -88q56 -9 113 -10.5t124 -1.5v-167h-22q-44 0 -92 3.5t-95.5 10.5
t-93.5 18t-85 26q-50 -22 -106 -33.5t-114.5 -17t-116.5 -6.5t-110 -1h-191q-35 0 -52.5 26t-17.5 58t17.5 57.5t52.5 25.5h200q48 0 106.5 -0.5t112.5 -1.5zM684 365q0 29 -7.5 64.5t-21.5 72t-33 71t-41.5 61.5t-47.5 43t-51 16q-29 0 -57 -19t-49.5 -49t-35 -68
t-13.5 -76q0 -32 12.5 -63t46 -65t91.5 -71t149 -80q33 24 45.5 63.5t12.5 99.5zM401 1135h-185v181h185v-181zM723 1135h-185v181h185v-181zM562 1415h-185v181h185v-181z" />
    <glyph glyph-name="uni06A8.fina" unicode="&#x6a8;" horiz-adv-x="1539" 
d="M1078 -14q-92 0 -164.5 20.5t-123.5 60t-78 96.5t-27 131q0 64 24 134.5t66.5 130t100 98t125.5 38.5q72 0 132 -42t114 -127q45 -72 71 -168t33 -205h188v-167h-187q-11 -127 -53 -221t-118.5 -155.5t-188.5 -92t-263 -30.5q-161 0 -270.5 32.5t-177 94.5t-97 153.5
t-29.5 210.5q0 63 7.5 133t21.5 148h151q-11 -75 -17 -137.5t-6 -116.5q0 -95 21.5 -161t71.5 -108t132.5 -61t204.5 -19q96 0 166.5 12.5t120 35t80.5 53.5t49 67.5t26 77.5t11 84h-117zM1166 308q-13 38 -31.5 76.5t-40.5 69t-48 49.5t-54 19q-29 0 -56.5 -19t-49.5 -49
t-35 -68t-13 -76q0 -75 62 -116t196 -41h101q-4 39 -11 78t-20 77zM912 964h-185v181h185v-181zM1234 964h-185v181h185v-181zM1073 1244h-185v181h185v-181z" />
    <glyph glyph-name="uni06AA.init" unicode="&#x6aa;" horiz-adv-x="2052" 
d="M50 -14h-50q-35 0 -52.5 26t-17.5 58t17.5 57.5t52.5 25.5h59q30 0 111 -1.5t200.5 -3t270.5 -2.5t322 -1q157 0 280 1.5t220.5 4t174 6t140.5 8.5q3 11 4.5 20t1.5 20q0 67 -46.5 109.5t-131.5 42.5h-1069q-86 0 -154 3.5t-115 19t-72 47.5t-25 89q0 82 53.5 166.5
t153 157.5t243 128.5t323.5 80.5v-166q-127 -16 -240.5 -49.5t-199.5 -76.5t-136.5 -91.5t-50.5 -94.5q0 -18 12.5 -28t50 -15t105.5 -6t180 -1h954q70 0 129 -23t101 -61.5t65.5 -89.5t23.5 -107q0 -28 -6.5 -60.5t-21 -64.5t-37.5 -61.5t-55 -51.5q-52 -5 -143 -9
t-209 -7.5t-257.5 -5.5t-289.5 -2q-80 0 -169.5 0.5t-178.5 1.5l-173 2t-153.5 2t-120.5 1.5t-74 0.5z" />
    <glyph glyph-name="uni06AA.medi" unicode="&#x6aa;" horiz-adv-x="2052" 
d="M50 -14h-50q-35 0 -52.5 26t-17.5 58t17.5 57.5t52.5 25.5h59q30 0 111 -1.5t200.5 -3t270.5 -2.5t322 -1q157 0 280 1.5t220.5 4t174 6t140.5 8.5q3 11 4.5 20t1.5 20q0 67 -46.5 109.5t-131.5 42.5h-1069q-86 0 -154 3.5t-115 19t-72 47.5t-25 89q0 82 53.5 166.5
t153 157.5t243 128.5t323.5 80.5v-166q-127 -16 -240.5 -49.5t-199.5 -76.5t-136.5 -91.5t-50.5 -94.5q0 -18 12.5 -28t50 -15t105.5 -6t180 -1h954q70 0 129 -23t101 -61.5t65.5 -89.5t23.5 -107q0 -35 -11 -79q32 -5 63 -6.5t62 -1.5v-167h-7q-57 0 -95 22.5t-63 62.5h-4
q-11 -21 -28 -38t-37 -31q-52 -5 -143 -9t-209 -7.5t-257.5 -5.5t-289.5 -2q-80 0 -169.5 0.5t-178.5 1.5l-173 2t-153.5 2t-120.5 1.5t-74 0.5z" />
    <glyph glyph-name="uni06AA.fina" unicode="&#x6aa;" horiz-adv-x="2223" 
d="M25 169q37 -5 102.5 -8.5t150.5 -6.5t184.5 -4.5t205.5 -2.5t214 -1.5t209 -0.5q114 0 207.5 0.5t172 1.5t144 2t122.5 3.5t109 5.5t103 7q3 11 4.5 20t1.5 20q0 67 -46.5 109.5t-131.5 42.5h-1069q-86 0 -154 3.5t-115 19t-72 47.5t-25 89q0 82 53.5 166.5t153 157.5
t243 128.5t323.5 80.5v-166q-127 -16 -240.5 -49.5t-199.5 -76.5t-136.5 -91.5t-50.5 -94.5q0 -18 12.5 -28t50 -15t105.5 -6t180 -1h954q70 0 129 -23t101 -61.5t65.5 -89.5t23.5 -107q0 -35 -11 -79q32 -5 63 -6.5t62 -1.5v-167h-7q-57 0 -94.5 22t-63.5 63h-4
q-12 -22 -28.5 -38.5t-36.5 -30.5q-118 -10 -355.5 -17t-580.5 -7q-71 0 -159.5 0.5t-184.5 1.5t-193 2.5t-184 4.5t-158.5 6.5t-116.5 8.5z" />
    <glyph glyph-name="uni06AB.init" unicode="&#x6ab;" horiz-adv-x="1026" 
d="M0 -14q-35 0 -52.5 26t-17.5 58t17.5 57.5t52.5 25.5h296q97 0 161 11t102 32t53 52.5t15 72.5q0 76 -44 146t-126 137t-197.5 133.5t-259.5 136.5v118l843 546v-176l-666 -417q139 -66 251.5 -135t191.5 -144.5t122 -158.5t43 -176q0 -30 -5.5 -67t-23 -75.5t-50.5 -75
t-87.5 -65t-134.5 -45.5t-191 -17h-293zM593 1264q65 0 112 -46.5t47 -115.5q0 -65 -47 -112t-112 -47q-69 0 -115.5 47t-46.5 112q0 69 46.5 115.5t115.5 46.5zM593 1018q35 0 59.5 24.5t24.5 59.5q0 37 -24.5 62t-59.5 25q-37 0 -62 -25t-25 -62q0 -35 25 -59.5t62 -24.5z
" />
    <glyph glyph-name="uni06AB.medi" unicode="&#x6ab;" horiz-adv-x="1026" 
d="M0 -14q-35 0 -52.5 26t-17.5 58t17.5 57.5t52.5 25.5h296q97 0 161 11t102 32t53 52.5t15 72.5q0 76 -44 146t-126 137t-197.5 133.5t-259.5 136.5v118l843 546v-176l-666 -417q173 -82 283.5 -155t177 -142.5t98.5 -138.5t48 -143q3 -15 8.5 -36.5t15.5 -45.5t26.5 -47
t42.5 -42t62.5 -30.5t86.5 -11.5v-167h-22q-89 0 -159.5 37t-114.5 122h-5q-23 -34 -58.5 -63t-87.5 -50.5t-122.5 -33.5t-163.5 -12h-293zM593 1264q65 0 112 -46.5t47 -115.5q0 -65 -47 -112t-112 -47q-69 0 -115.5 47t-46.5 112q0 69 46.5 115.5t115.5 46.5zM593 1018
q35 0 59.5 24.5t24.5 59.5q0 37 -24.5 62t-59.5 25q-37 0 -62 -25t-25 -62q0 -35 25 -59.5t62 -24.5z" />
    <glyph glyph-name="uni06AB.fina" unicode="&#x6ab;" horiz-adv-x="1881" 
d="M1355 173q37 10 62 24.5t39 33.5t20 41.5t6 48.5q0 76 -44 146t-126 137t-197.5 133.5t-259.5 136.5v118l843 546v-176l-666 -417q173 -82 283.5 -155t177 -142.5t98.5 -138.5t48 -143q3 -15 8.5 -36.5t15.5 -45.5t26.5 -47t42.5 -42t62.5 -30.5t86.5 -11.5v-167h-22
q-89 0 -159.5 37t-114.5 122h-5q-34 -45 -75.5 -75.5t-109.5 -51.5q-39 -12 -85.5 -20t-104.5 -12.5t-130 -6t-162 -1.5q-118 0 -215 3t-174.5 14t-137.5 33t-104 60q-63 55 -87 131t-24 164q0 61 9 117t20 107h154q-9 -43 -17.5 -93.5t-8.5 -104.5q0 -60 15.5 -109.5
t62.5 -84.5q26 -19 65.5 -32t101 -21t150 -11.5t212.5 -3.5q79 0 143 1t115 3.5t90.5 7.5t71.5 14zM1448 1264q65 0 112 -46.5t47 -115.5q0 -65 -47 -112t-112 -47q-69 0 -115.5 47t-46.5 112q0 69 46.5 115.5t115.5 46.5zM1448 1018q35 0 59.5 24.5t24.5 59.5
q0 37 -24.5 62t-59.5 25q-37 0 -62 -25t-25 -62q0 -35 25 -59.5t62 -24.5z" />
    <glyph glyph-name="uni06AC.init" unicode="&#x6ac;" horiz-adv-x="1026" 
d="M0 -14q-35 0 -52.5 26t-17.5 58t17.5 57.5t52.5 25.5h296q97 0 161 11t102 32t53 52.5t15 72.5q0 76 -44 146t-126 137t-197.5 133.5t-259.5 136.5v118l843 546v-176l-666 -417q139 -66 251.5 -135t191.5 -144.5t122 -158.5t43 -176q0 -30 -5.5 -67t-23 -75.5t-50.5 -75
t-87.5 -65t-134.5 -45.5t-191 -17h-293zM406 1534h-185v181h185v-181z" />
    <glyph glyph-name="uni06AC.medi" unicode="&#x6ac;" horiz-adv-x="1026" 
d="M0 -14q-35 0 -52.5 26t-17.5 58t17.5 57.5t52.5 25.5h296q97 0 161 11t102 32t53 52.5t15 72.5q0 76 -44 146t-126 137t-197.5 133.5t-259.5 136.5v118l843 546v-176l-666 -417q173 -82 283.5 -155t177 -142.5t98.5 -138.5t48 -143q3 -15 8.5 -36.5t15.5 -45.5t26.5 -47
t42.5 -42t62.5 -30.5t86.5 -11.5v-167h-22q-89 0 -159.5 37t-114.5 122h-5q-23 -34 -58.5 -63t-87.5 -50.5t-122.5 -33.5t-163.5 -12h-293zM406 1534h-185v181h185v-181z" />
    <glyph glyph-name="uni06AC.fina" unicode="&#x6ac;" horiz-adv-x="1710" 
d="M354 607q-9 -43 -17.5 -93.5t-8.5 -104.5q0 -60 15.5 -109.5t62.5 -84.5q26 -19 65 -32t100.5 -21t150 -11.5t213.5 -3.5q109 0 190 5t135 25.5t81 62t27 113.5v1163h156v-1108q0 -67 6 -115t25.5 -79t56 -46t98.5 -15v-167h-22q-100 0 -158.5 29t-90.5 93h-4
q-38 -47 -93.5 -73t-123 -39t-145 -15.5t-160.5 -2.5q-118 0 -215 3t-174.5 14t-137.5 33t-104 60q-63 55 -87 131t-24 164q0 61 9 117t20 107h154zM684 694q197 11 197 82q0 18 -15.5 29t-36.5 22q-16 8 -32.5 18t-30 23.5t-22 33t-8.5 46.5q0 38 23 69t62.5 54.5t92 39
t111.5 23.5v-93q-94 -12 -136 -34.5t-42 -55.5q0 -20 16.5 -32t39.5 -23l31 -17t29 -22t21 -30.5t8 -42.5q0 -31 -18.5 -62t-56.5 -56.5t-96 -43t-137 -21.5v93zM976 1534h-185v181h185v-181z" />
    <glyph glyph-name="uni06AD" unicode="&#x6ad;" horiz-adv-x="1710" arabic-form="isolated" 
d="M354 607q-9 -43 -17.5 -93.5t-8.5 -104.5q0 -60 15.5 -109.5t62.5 -84.5q26 -19 65 -32t100.5 -21t150 -11.5t213.5 -3.5q109 0 190 5t135 25.5t81 62t27 113.5v1163h156v-1170q0 -90 -22.5 -152t-63.5 -103t-97.5 -63.5t-124.5 -33.5t-145 -13.5t-158 -2.5
q-118 0 -215 3t-174.5 14t-137.5 33t-104 60q-63 55 -87 131t-24 164q0 61 9 117t20 107h154zM684 694q197 11 197 82q0 18 -15.5 29t-36.5 22q-16 8 -32.5 18t-30 23.5t-22 33t-8.5 46.5q0 38 23 69t62.5 54.5t92 39t111.5 23.5v-93q-94 -12 -136 -34.5t-42 -55.5
q0 -20 16.5 -32t39.5 -23l31 -17t29 -22t21 -30.5t8 -42.5q0 -31 -18.5 -62t-56.5 -56.5t-96 -43t-137 -21.5v93zM815 1534h-185v181h185v-181zM1137 1534h-185v181h185v-181zM976 1814h-185v181h185v-181z" />
    <glyph glyph-name="uniFBD5" unicode="&#x6ad;" horiz-adv-x="1026" arabic-form="initial" 
d="M0 -14q-35 0 -52.5 26t-17.5 58t17.5 57.5t52.5 25.5h296q97 0 161 11t102 32t53 52.5t15 72.5q0 76 -44 146t-126 137t-197.5 133.5t-259.5 136.5v118l843 546v-176l-666 -417q139 -66 251.5 -135t191.5 -144.5t122 -158.5t43 -176q0 -30 -5.5 -67t-23 -75.5t-50.5 -75
t-87.5 -65t-134.5 -45.5t-191 -17h-293zM245 1534h-185v181h185v-181zM567 1534h-185v181h185v-181zM406 1814h-185v181h185v-181z" />
    <glyph glyph-name="uni06AE.init" unicode="&#x6ae;" horiz-adv-x="1026" 
d="M0 -14q-35 0 -52.5 26t-17.5 58t17.5 57.5t52.5 25.5h296q97 0 161 11t102 32t53 52.5t15 72.5q0 76 -44 146t-126 137t-197.5 133.5t-259.5 136.5v118l843 546v-176l-666 -417q139 -66 251.5 -135t191.5 -144.5t122 -158.5t43 -176q0 -30 -5.5 -67t-23 -75.5t-50.5 -75
t-87.5 -65t-134.5 -45.5t-191 -17h-293zM359 -287h-185v181h185v-181zM681 -287h-185v181h185v-181zM520 -567h-185v181h185v-181z" />
    <glyph glyph-name="uni06AE.medi" unicode="&#x6ae;" horiz-adv-x="1026" 
d="M0 -14q-35 0 -52.5 26t-17.5 58t17.5 57.5t52.5 25.5h296q97 0 161 11t102 32t53 52.5t15 72.5q0 76 -44 146t-126 137t-197.5 133.5t-259.5 136.5v118l843 546v-176l-666 -417q173 -82 283.5 -155t177 -142.5t98.5 -138.5t48 -143q3 -15 8.5 -36.5t15.5 -45.5t26.5 -47
t42.5 -42t62.5 -30.5t86.5 -11.5v-167h-22q-89 0 -159.5 37t-114.5 122h-5q-23 -34 -58.5 -63t-87.5 -50.5t-122.5 -33.5t-163.5 -12h-293zM359 -287h-185v181h185v-181zM681 -287h-185v181h185v-181zM520 -567h-185v181h185v-181z" />
    <glyph glyph-name="uni06AE.fina" unicode="&#x6ae;" horiz-adv-x="1710" 
d="M354 607q-9 -43 -17.5 -93.5t-8.5 -104.5q0 -60 15.5 -109.5t62.5 -84.5q26 -19 65 -32t100.5 -21t150 -11.5t213.5 -3.5q109 0 190 5t135 25.5t81 62t27 113.5v1163h156v-1108q0 -67 6 -115t25.5 -79t56 -46t98.5 -15v-167h-22q-100 0 -158.5 29t-90.5 93h-4
q-38 -47 -93.5 -73t-123 -39t-145 -15.5t-160.5 -2.5q-118 0 -215 3t-174.5 14t-137.5 33t-104 60q-63 55 -87 131t-24 164q0 61 9 117t20 107h154zM684 694q197 11 197 82q0 18 -15.5 29t-36.5 22q-16 8 -32.5 18t-30 23.5t-22 33t-8.5 46.5q0 38 23 69t62.5 54.5t92 39
t111.5 23.5v-93q-94 -12 -136 -34.5t-42 -55.5q0 -20 16.5 -32t39.5 -23l31 -17t29 -22t21 -30.5t8 -42.5q0 -31 -18.5 -62t-56.5 -56.5t-96 -43t-137 -21.5v93zM816 -287h-185v181h185v-181zM1138 -287h-185v181h185v-181zM977 -567h-185v181h185v-181z" />
    <glyph glyph-name="uni06B0.init" unicode="&#x6b0;" horiz-adv-x="1026" 
d="M0 -14q-35 0 -52.5 26t-17.5 58t17.5 57.5t52.5 25.5h296q97 0 161 11t102 32t53 52.5t15 72.5q0 76 -44 146t-126 137t-197.5 133.5t-259.5 136.5v118l843 546v-176l-666 -417q139 -66 251.5 -135t191.5 -144.5t122 -158.5t43 -176q0 -30 -5.5 -67t-23 -75.5t-50.5 -75
t-87.5 -65t-134.5 -45.5t-191 -17h-293zM593 1264q65 0 112 -46.5t47 -115.5q0 -65 -47 -112t-112 -47q-69 0 -115.5 47t-46.5 112q0 69 46.5 115.5t115.5 46.5zM593 1018q35 0 59.5 24.5t24.5 59.5q0 37 -24.5 62t-59.5 25q-37 0 -62 -25t-25 -62q0 -35 25 -59.5t62 -24.5z
M0 1154v148l843 546v-148z" />
    <glyph glyph-name="uni06B0.medi" unicode="&#x6b0;" horiz-adv-x="1026" 
d="M0 -14q-35 0 -52.5 26t-17.5 58t17.5 57.5t52.5 25.5h296q97 0 161 11t102 32t53 52.5t15 72.5q0 76 -44 146t-126 137t-197.5 133.5t-259.5 136.5v118l843 546v-176l-666 -417q173 -82 283.5 -155t177 -142.5t98.5 -138.5t48 -143q3 -15 8.5 -36.5t15.5 -45.5t26.5 -47
t42.5 -42t62.5 -30.5t86.5 -11.5v-167h-22q-89 0 -159.5 37t-114.5 122h-5q-23 -34 -58.5 -63t-87.5 -50.5t-122.5 -33.5t-163.5 -12h-293zM593 1264q65 0 112 -46.5t47 -115.5q0 -65 -47 -112t-112 -47q-69 0 -115.5 47t-46.5 112q0 69 46.5 115.5t115.5 46.5zM593 1018
q35 0 59.5 24.5t24.5 59.5q0 37 -24.5 62t-59.5 25q-37 0 -62 -25t-25 -62q0 -35 25 -59.5t62 -24.5zM0 1154v148l843 546v-148z" />
    <glyph glyph-name="uni06B0.fina" unicode="&#x6b0;" horiz-adv-x="1881" 
d="M1355 173q37 10 62 24.5t39 33.5t20 41.5t6 48.5q0 76 -44 146t-126 137t-197.5 133.5t-259.5 136.5v118l843 546v-176l-666 -417q173 -82 283.5 -155t177 -142.5t98.5 -138.5t48 -143q3 -15 8.5 -36.5t15.5 -45.5t26.5 -47t42.5 -42t62.5 -30.5t86.5 -11.5v-167h-22
q-89 0 -159.5 37t-114.5 122h-5q-34 -45 -75.5 -75.5t-109.5 -51.5q-39 -12 -85.5 -20t-104.5 -12.5t-130 -6t-162 -1.5q-118 0 -215 3t-174.5 14t-137.5 33t-104 60q-63 55 -87 131t-24 164q0 61 9 117t20 107h154q-9 -43 -17.5 -93.5t-8.5 -104.5q0 -60 15.5 -109.5
t62.5 -84.5q26 -19 65.5 -32t101 -21t150 -11.5t212.5 -3.5q79 0 143 1t115 3.5t90.5 7.5t71.5 14zM1448 1264q65 0 112 -46.5t47 -115.5q0 -65 -47 -112t-112 -47q-69 0 -115.5 47t-46.5 112q0 69 46.5 115.5t115.5 46.5zM1448 1018q35 0 59.5 24.5t24.5 59.5
q0 37 -24.5 62t-59.5 25q-37 0 -62 -25t-25 -62q0 -35 25 -59.5t62 -24.5zM855 1154v148l843 546v-148z" />
    <glyph glyph-name="uni06B1" unicode="&#x6b1;" horiz-adv-x="1881" arabic-form="isolated" 
d="M354 607q-9 -43 -17.5 -93.5t-8.5 -104.5q0 -60 15.5 -109.5t62.5 -84.5q26 -19 65.5 -32t101 -21t150 -11.5t212.5 -3.5q78 0 141 0.5t114.5 3.5t92 8t72.5 14q37 10 62 24.5t39 33.5t20 41t6 48q0 77 -43.5 146.5t-125 136.5t-197.5 133.5t-261 137.5v118l843 546v-176
l-666 -417q139 -66 251.5 -135.5t191.5 -144.5t122 -158t43 -177q0 -31 -7.5 -74t-32 -87.5t-71 -84.5t-125.5 -65q-87 -27 -206.5 -34t-284.5 -7q-118 0 -215 3t-174.5 14t-137.5 33t-104 60q-63 55 -87 131t-24 164q0 61 9 117t20 107h154zM855 1154v148l843 546v-148z
M1100 1806h-185v181h185v-181zM1422 1806h-185v181h185v-181z" />
    <glyph glyph-name="uniFB9C" unicode="&#x6b1;" horiz-adv-x="1026" arabic-form="initial" 
d="M0 -14q-35 0 -52.5 26t-17.5 58t17.5 57.5t52.5 25.5h296q97 0 161 11t102 32t53 52.5t15 72.5q0 76 -44 146t-126 137t-197.5 133.5t-259.5 136.5v118l843 546v-176l-666 -417q139 -66 251.5 -135t191.5 -144.5t122 -158.5t43 -176q0 -30 -5.5 -67t-23 -75.5t-50.5 -75
t-87.5 -65t-134.5 -45.5t-191 -17h-293zM0 1154v148l843 546v-148zM245 1806h-185v181h185v-181zM567 1806h-185v181h185v-181z" />
    <glyph glyph-name="uni06B2.init" unicode="&#x6b2;" horiz-adv-x="1026" 
d="M0 -14q-35 0 -52.5 26t-17.5 58t17.5 57.5t52.5 25.5h296q97 0 161 11t102 32t53 52.5t15 72.5q0 76 -44 146t-126 137t-197.5 133.5t-259.5 136.5v118l843 546v-176l-666 -417q139 -66 251.5 -135t191.5 -144.5t122 -158.5t43 -176q0 -30 -5.5 -67t-23 -75.5t-50.5 -75
t-87.5 -65t-134.5 -45.5t-191 -17h-293zM0 1154v148l843 546v-148zM359 -346h-185v181h185v-181zM681 -346h-185v181h185v-181z" />
    <glyph glyph-name="uni06B2.medi" unicode="&#x6b2;" horiz-adv-x="1026" 
d="M0 -14q-35 0 -52.5 26t-17.5 58t17.5 57.5t52.5 25.5h296q97 0 161 11t102 32t53 52.5t15 72.5q0 76 -44 146t-126 137t-197.5 133.5t-259.5 136.5v118l843 546v-176l-666 -417q173 -82 283.5 -155t177 -142.5t98.5 -138.5t48 -143q3 -15 8.5 -36.5t15.5 -45.5t26.5 -47
t42.5 -42t62.5 -30.5t86.5 -11.5v-167h-22q-89 0 -159.5 37t-114.5 122h-5q-23 -34 -58.5 -63t-87.5 -50.5t-122.5 -33.5t-163.5 -12h-293zM0 1154v148l843 546v-148zM359 -346h-185v181h185v-181zM681 -346h-185v181h185v-181z" />
    <glyph glyph-name="uni06B2.fina" unicode="&#x6b2;" horiz-adv-x="1881" 
d="M1355 173q37 10 62 24.5t39 33.5t20 41.5t6 48.5q0 76 -44 146t-126 137t-197.5 133.5t-259.5 136.5v118l843 546v-176l-666 -417q173 -82 283.5 -155t177 -142.5t98.5 -138.5t48 -143q3 -15 8.5 -36.5t15.5 -45.5t26.5 -47t42.5 -42t62.5 -30.5t86.5 -11.5v-167h-22
q-89 0 -159.5 37t-114.5 122h-5q-34 -45 -75.5 -75.5t-109.5 -51.5q-39 -12 -85.5 -20t-104.5 -12.5t-130 -6t-162 -1.5q-118 0 -215 3t-174.5 14t-137.5 33t-104 60q-63 55 -87 131t-24 164q0 61 9 117t20 107h154q-9 -43 -17.5 -93.5t-8.5 -104.5q0 -60 15.5 -109.5
t62.5 -84.5q26 -19 65.5 -32t101 -21t150 -11.5t212.5 -3.5q79 0 143 1t115 3.5t90.5 7.5t71.5 14zM855 1154v148l843 546v-148zM873 -346h-185v181h185v-181zM1195 -346h-185v181h185v-181z" />
    <glyph glyph-name="uni06B3" unicode="&#x6b3;" horiz-adv-x="1881" arabic-form="isolated" 
d="M354 607q-9 -43 -17.5 -93.5t-8.5 -104.5q0 -60 15.5 -109.5t62.5 -84.5q26 -19 65.5 -32t101 -21t150 -11.5t212.5 -3.5q78 0 141 0.5t114.5 3.5t92 8t72.5 14q37 10 62 24.5t39 33.5t20 41t6 48q0 77 -43.5 146.5t-125 136.5t-197.5 133.5t-261 137.5v118l843 546v-176
l-666 -417q139 -66 251.5 -135.5t191.5 -144.5t122 -158t43 -177q0 -31 -7.5 -74t-32 -87.5t-71 -84.5t-125.5 -65q-87 -27 -206.5 -34t-284.5 -7q-118 0 -215 3t-174.5 14t-137.5 33t-104 60q-63 55 -87 131t-24 164q0 61 9 117t20 107h154zM1034 -567h-185v181h185v-181z
M1034 -287h-185v181h185v-181zM855 1154v148l843 546v-148z" />
    <glyph glyph-name="uniFB98" unicode="&#x6b3;" horiz-adv-x="1026" arabic-form="initial" 
d="M0 -14q-35 0 -52.5 26t-17.5 58t17.5 57.5t52.5 25.5h296q97 0 161 11t102 32t53 52.5t15 72.5q0 76 -44 146t-126 137t-197.5 133.5t-259.5 136.5v118l843 546v-176l-666 -417q139 -66 251.5 -135t191.5 -144.5t122 -158.5t43 -176q0 -30 -5.5 -67t-23 -75.5t-50.5 -75
t-87.5 -65t-134.5 -45.5t-191 -17h-293zM520 -567h-185v181h185v-181zM520 -287h-185v181h185v-181zM0 1154v148l843 546v-148z" />
    <glyph glyph-name="uni06B4.init" unicode="&#x6b4;" horiz-adv-x="1026" 
d="M0 -14q-35 0 -52.5 26t-17.5 58t17.5 57.5t52.5 25.5h296q97 0 161 11t102 32t53 52.5t15 72.5q0 76 -44 146t-126 137t-197.5 133.5t-259.5 136.5v118l843 546v-176l-666 -417q139 -66 251.5 -135t191.5 -144.5t122 -158.5t43 -176q0 -30 -5.5 -67t-23 -75.5t-50.5 -75
t-87.5 -65t-134.5 -45.5t-191 -17h-293zM0 1154v148l843 546v-148zM188 1776h-185v181h185v-181zM510 1776h-185v181h185v-181zM349 2056h-185v181h185v-181z" />
    <glyph glyph-name="uni06B4.medi" unicode="&#x6b4;" horiz-adv-x="1026" 
d="M0 -14q-35 0 -52.5 26t-17.5 58t17.5 57.5t52.5 25.5h296q97 0 161 11t102 32t53 52.5t15 72.5q0 76 -44 146t-126 137t-197.5 133.5t-259.5 136.5v118l843 546v-176l-666 -417q173 -82 283.5 -155t177 -142.5t98.5 -138.5t48 -143q3 -15 8.5 -36.5t15.5 -45.5t26.5 -47
t42.5 -42t62.5 -30.5t86.5 -11.5v-167h-22q-89 0 -159.5 37t-114.5 122h-5q-23 -34 -58.5 -63t-87.5 -50.5t-122.5 -33.5t-163.5 -12h-293zM0 1154v148l843 546v-148zM188 1776h-185v181h185v-181zM510 1776h-185v181h185v-181zM349 2056h-185v181h185v-181z" />
    <glyph glyph-name="uni06B4.fina" unicode="&#x6b4;" horiz-adv-x="1881" 
d="M1355 173q37 10 62 24.5t39 33.5t20 41.5t6 48.5q0 76 -44 146t-126 137t-197.5 133.5t-259.5 136.5v118l843 546v-176l-666 -417q173 -82 283.5 -155t177 -142.5t98.5 -138.5t48 -143q3 -15 8.5 -36.5t15.5 -45.5t26.5 -47t42.5 -42t62.5 -30.5t86.5 -11.5v-167h-22
q-89 0 -159.5 37t-114.5 122h-5q-34 -45 -75.5 -75.5t-109.5 -51.5q-39 -12 -85.5 -20t-104.5 -12.5t-130 -6t-162 -1.5q-118 0 -215 3t-174.5 14t-137.5 33t-104 60q-63 55 -87 131t-24 164q0 61 9 117t20 107h154q-9 -43 -17.5 -93.5t-8.5 -104.5q0 -60 15.5 -109.5
t62.5 -84.5q26 -19 65.5 -32t101 -21t150 -11.5t212.5 -3.5q79 0 143 1t115 3.5t90.5 7.5t71.5 14zM855 1154v148l843 546v-148zM1043 1776h-185v181h185v-181zM1365 1776h-185v181h185v-181zM1204 2056h-185v181h185v-181z" />
    <glyph glyph-name="uni06B5.init" unicode="&#x6b5;" horiz-adv-x="684" 
d="M153 153q46 0 81.5 7.5t59.5 28.5t36 57t12 93v1177h156v-1184q0 -75 -14 -130t-38.5 -93t-58 -62.5t-73 -37.5t-83 -18t-88.5 -5h-143q-35 0 -52.5 26t-17.5 58t17.5 57.5t52.5 25.5h153zM359 1710l-236 352h125l171 -255l168 255h121l-230 -352h-119z" />
    <glyph glyph-name="uni06B5.medi" unicode="&#x6b5;" horiz-adv-x="684" 
d="M498 408q0 -67 6 -115t25.5 -79t56.5 -46t98 -15v-167h-22q-97 0 -155 31.5t-87 91.5h-4q-27 -35 -60.5 -58.5t-69.5 -38t-72.5 -20.5t-70.5 -6h-143q-35 0 -52.5 26t-17.5 58t17.5 57.5t52.5 25.5h153q29 0 62.5 9t61.5 31t46.5 57.5t18.5 88.5v1177h156v-1108z
M359 1710l-236 352h125l171 -255l168 255h121l-230 -352h-119z" />
    <glyph glyph-name="uni06B5.fina" unicode="&#x6b5;" horiz-adv-x="1368" 
d="M334 422q-11 -72 -16.5 -133t-5.5 -116q0 -95 17.5 -161t57 -106.5t102 -58.5t151.5 -18q103 0 176.5 24.5t120 79.5t68 144.5t21.5 218.5v1220h156v-1104q0 -67 6 -115.5t25.5 -80.5t56.5 -47.5t98 -15.5v-167h-19q-73 0 -117.5 20t-72.5 58h-4q-17 -95 -55 -169.5
t-101.5 -127t-155 -80t-215.5 -27.5q-135 0 -226 34.5t-145.5 98t-78 155t-23.5 205.5q0 63 6.5 128.5t20.5 140.5h152zM1043 1710l-236 352h125l171 -255l168 255h121l-230 -352h-119z" />
    <glyph glyph-name="uni06B6.init" unicode="&#x6b6;" horiz-adv-x="684" 
d="M153 153q46 0 81.5 7.5t59.5 28.5t36 57t12 93v1177h156v-1184q0 -75 -14 -130t-38.5 -93t-58 -62.5t-73 -37.5t-83 -18t-88.5 -5h-143q-35 0 -52.5 26t-17.5 58t17.5 57.5t52.5 25.5h153zM505 1714h-185v181h185v-181z" />
    <glyph glyph-name="uni06B6.medi" unicode="&#x6b6;" horiz-adv-x="684" 
d="M498 408q0 -67 6 -115t25.5 -79t56.5 -46t98 -15v-167h-22q-97 0 -155 31.5t-87 91.5h-4q-27 -35 -60.5 -58.5t-69.5 -38t-72.5 -20.5t-70.5 -6h-143q-35 0 -52.5 26t-17.5 58t17.5 57.5t52.5 25.5h153q29 0 62.5 9t61.5 31t46.5 57.5t18.5 88.5v1177h156v-1108z
M505 1714h-185v181h185v-181z" />
    <glyph glyph-name="uni06B6.fina" unicode="&#x6b6;" horiz-adv-x="1368" 
d="M334 422q-11 -72 -16.5 -133t-5.5 -116q0 -95 17.5 -161t57 -106.5t102 -58.5t151.5 -18q103 0 176.5 24.5t120 79.5t68 144.5t21.5 218.5v1220h156v-1104q0 -67 6 -115.5t25.5 -80.5t56.5 -47.5t98 -15.5v-167h-19q-73 0 -117.5 20t-72.5 58h-4q-17 -95 -55 -169.5
t-101.5 -127t-155 -80t-215.5 -27.5q-135 0 -226 34.5t-145.5 98t-78 155t-23.5 205.5q0 63 6.5 128.5t20.5 140.5h152zM1189 1714h-185v181h185v-181z" />
    <glyph glyph-name="uni06B7.init" unicode="&#x6b7;" horiz-adv-x="684" 
d="M153 153q46 0 81.5 7.5t59.5 28.5t36 57t12 93v1177h156v-1184q0 -75 -14 -130t-38.5 -93t-58 -62.5t-73 -37.5t-83 -18t-88.5 -5h-143q-35 0 -52.5 26t-17.5 58t17.5 57.5t52.5 25.5h153zM344 1714h-185v181h185v-181zM666 1714h-185v181h185v-181zM505 1994h-185v181
h185v-181z" />
    <glyph glyph-name="uni06B7.medi" unicode="&#x6b7;" horiz-adv-x="684" 
d="M498 408q0 -67 6 -115t25.5 -79t56.5 -46t98 -15v-167h-22q-97 0 -155 31.5t-87 91.5h-4q-27 -35 -60.5 -58.5t-69.5 -38t-72.5 -20.5t-70.5 -6h-143q-35 0 -52.5 26t-17.5 58t17.5 57.5t52.5 25.5h153q29 0 62.5 9t61.5 31t46.5 57.5t18.5 88.5v1177h156v-1108z
M344 1714h-185v181h185v-181zM666 1714h-185v181h185v-181zM505 1994h-185v181h185v-181z" />
    <glyph glyph-name="uni06B7.fina" unicode="&#x6b7;" horiz-adv-x="1368" 
d="M334 422q-11 -72 -16.5 -133t-5.5 -116q0 -95 17.5 -161t57 -106.5t102 -58.5t151.5 -18q103 0 176.5 24.5t120 79.5t68 144.5t21.5 218.5v1220h156v-1104q0 -67 6 -115.5t25.5 -80.5t56.5 -47.5t98 -15.5v-167h-19q-73 0 -117.5 20t-72.5 58h-4q-17 -95 -55 -169.5
t-101.5 -127t-155 -80t-215.5 -27.5q-135 0 -226 34.5t-145.5 98t-78 155t-23.5 205.5q0 63 6.5 128.5t20.5 140.5h152zM1028 1714h-185v181h185v-181zM1350 1714h-185v181h185v-181zM1189 1994h-185v181h185v-181z" />
    <glyph glyph-name="uni06B8.init" unicode="&#x6b8;" horiz-adv-x="684" 
d="M153 153q46 0 81.5 7.5t59.5 28.5t36 57t12 93v1177h156v-1184q0 -75 -14 -130t-38.5 -93t-58 -62.5t-73 -37.5t-83 -18t-88.5 -5h-143q-35 0 -52.5 26t-17.5 58t17.5 57.5t52.5 25.5h153zM262 -287h-185v181h185v-181zM584 -287h-185v181h185v-181zM423 -567h-185v181
h185v-181z" />
    <glyph glyph-name="uni06B8.medi" unicode="&#x6b8;" horiz-adv-x="684" 
d="M498 408q0 -67 6 -115t25.5 -79t56.5 -46t98 -15v-167h-22q-97 0 -155 31.5t-87 91.5h-4q-27 -35 -60.5 -58.5t-69.5 -38t-72.5 -20.5t-70.5 -6h-143q-35 0 -52.5 26t-17.5 58t17.5 57.5t52.5 25.5h153q29 0 62.5 9t61.5 31t46.5 57.5t18.5 88.5v1177h156v-1108z
M262 -287h-185v181h185v-181zM584 -287h-185v181h185v-181zM423 -567h-185v181h185v-181z" />
    <glyph glyph-name="uni06B8.fina" unicode="&#x6b8;" horiz-adv-x="1368" 
d="M1182 1516v-1104q0 -67 6 -115.5t25.5 -80.5t56 -47.5t98.5 -15.5v-167h-26q-35 0 -73 8t-74 27.5t-67 53.5t-51 87h-3q-65 -86 -174 -131t-272 -45q-135 0 -226 34.5t-145.5 98t-78 155t-23.5 205.5q0 63 6.5 128.5t20.5 140.5h152q-11 -72 -16.5 -133t-5.5 -116
q0 -95 18 -161t57 -106.5t101.5 -58.5t151.5 -18q103 0 176.5 23t120 74.5t68 135t21.5 204.5v924h156zM766 -572h-201v189h201v-189zM937 -292h-201v189h201v-189zM595 -292h-201v189h201v-189z" />
    <glyph glyph-name="uni06B9.init" unicode="&#x6b9;" horiz-adv-x="684" 
d="M153 153q46 0 81.5 7.5t59.5 28.5t36 57t12 93v444h156v-451q0 -75 -14 -130t-38.5 -93t-58 -62.5t-73 -37.5t-83 -18t-88.5 -5h-143q-35 0 -52.5 26t-17.5 58t17.5 57.5t52.5 25.5h153zM505 1021h-185v181h185v-181zM480 -346h-185v181h185v-181z" />
    <glyph glyph-name="uni06B9.medi" unicode="&#x6b9;" horiz-adv-x="684" 
d="M498 408q0 -67 6 -115t25.5 -79t56.5 -46t98 -15v-167h-22q-100 0 -160 31.5t-90 91.5h-4q-26 -35 -58.5 -58.5t-67.5 -38t-70.5 -20.5t-68.5 -6h-143q-35 0 -52.5 26t-17.5 58t17.5 57.5t52.5 25.5h153q29 0 62.5 9t61.5 31t46.5 57.5t18.5 88.5v444h156v-375zM505 1021
h-185v181h185v-181zM480 -346h-185v181h185v-181z" />
    <glyph glyph-name="uni06B9.fina" unicode="&#x6b9;" horiz-adv-x="1368" 
d="M1156 791q17 -93 25.5 -179t8.5 -167v-33q0 -71 5.5 -120t24.5 -80t54 -45t94 -14v-167h-25q-27 0 -56.5 4.5t-58.5 15.5t-55 31t-46 50h-4q-27 -61 -70 -109t-103.5 -81t-139.5 -50.5t-178 -17.5q-136 0 -227.5 34.5t-147 98t-79 155t-23.5 205.5q0 64 7.5 132.5
t21.5 146.5h151q-11 -75 -17 -138.5t-6 -120.5q0 -95 18 -161t57.5 -106.5t102.5 -58.5t153 -18q105 0 179 24.5t121 79.5t68.5 144.5t21.5 218.5q0 69 -8.5 147.5t-24.5 178.5h156zM772 1017h-201v189h201v-189zM772 -522h-201v189h201v-189z" />
    <glyph glyph-name="uni06BB" unicode="&#x6bb;" horiz-adv-x="1368" arabic-form="isolated" 
d="M1156 449q34 -185 34 -346q0 -143 -27.5 -257t-93 -193.5t-172.5 -122.5t-265 -43q-136 0 -227.5 34.5t-147 98t-79 155t-23.5 205.5q0 64 7.5 132.5t21.5 146.5h151q-11 -75 -17 -138.5t-6 -120.5q0 -95 18 -161t57.5 -106.5t102.5 -58.5t153 -18q105 0 179 24.5
t121 79.5t68.5 144.5t21.5 218.5q0 69 -8.5 147.5t-24.5 178.5h156zM357 798q23 -2 54.5 -3.5l72.5 -3.5v503h89v-347l3 -1q38 62 89.5 97t123.5 35q48 0 82.5 -18t56.5 -48.5t32.5 -70.5t10.5 -84q0 -64 -19.5 -99t-54 -51.5t-80.5 -19.5t-100 -3q-71 0 -125 0.5t-95.5 2
t-72 3.5t-54.5 5zM705 789q53 0 88.5 1t56.5 8t30 21t9 40q0 59 -32.5 87t-78.5 28q-35 0 -66.5 -15.5t-58 -41t-47.5 -59t-36 -69.5h135z" />
    <glyph glyph-name="uni06BC.init" unicode="&#x6bc;" horiz-adv-x="684" 
d="M153 153q46 0 81.5 7.5t59.5 28.5t36 57t12 93v444h156v-451q0 -75 -14 -130t-38.5 -93t-58 -62.5t-73 -37.5t-83 -18t-88.5 -5h-143q-35 0 -52.5 26t-17.5 58t17.5 57.5t52.5 25.5h153zM284 70q65 0 112 -46.5t47 -115.5q0 -65 -47 -112t-112 -47q-69 0 -115.5 47
t-46.5 112q0 69 46.5 115.5t115.5 46.5zM284 -176q35 0 59.5 24.5t24.5 59.5q0 37 -24.5 62t-59.5 25q-37 0 -62 -25t-25 -62q0 -35 25 -59.5t62 -24.5zM505 1021h-185v181h185v-181z" />
    <glyph glyph-name="uni06BC.medi" unicode="&#x6bc;" horiz-adv-x="684" 
d="M498 408q0 -67 6 -115t25.5 -79t56.5 -46t98 -15v-167h-22q-100 0 -160 31.5t-90 91.5h-4q-26 -35 -58.5 -58.5t-67.5 -38t-70.5 -20.5t-68.5 -6h-143q-35 0 -52.5 26t-17.5 58t17.5 57.5t52.5 25.5h153q29 0 62.5 9t61.5 31t46.5 57.5t18.5 88.5v444h156v-375zM284 70
q65 0 112 -46.5t47 -115.5q0 -65 -47 -112t-112 -47q-69 0 -115.5 47t-46.5 112q0 69 46.5 115.5t115.5 46.5zM284 -176q35 0 59.5 24.5t24.5 59.5q0 37 -24.5 62t-59.5 25q-37 0 -62 -25t-25 -62q0 -35 25 -59.5t62 -24.5zM505 1021h-185v181h185v-181z" />
    <glyph glyph-name="uni06BC.fina" unicode="&#x6bc;" horiz-adv-x="1368" 
d="M1156 791q17 -94 25.5 -179.5t8.5 -166.5v-33q0 -71 5.5 -120t24.5 -80t54 -45t94 -14v-167h-25q-27 0 -56.5 4.5t-58 15.5t-55 31t-46.5 50h-4q-43 -96 -124.5 -158.5t-209.5 -86.5q20 -21 31.5 -49t11.5 -61q0 -32 -13 -61t-34.5 -51t-50.5 -34.5t-61 -12.5
q-35 0 -64.5 12.5t-51 34.5t-34 50.5t-12.5 61.5q0 59 33 101q-110 11 -184.5 49.5t-120 101.5t-65 148.5t-19.5 189.5q0 64 7.5 132.5t21.5 146.5h151q-11 -75 -17 -138.5t-6 -120.5q0 -95 18 -161t57.5 -106.5t102.5 -58.5t153 -18q105 0 179 24.5t121 79.5t68.5 144.5
t21.5 218.5q0 69 -8.5 147.5t-24.5 178.5h156zM772 1017h-201v189h201v-189zM673 -352q35 0 59.5 24.5t24.5 59.5q0 37 -24.5 62t-59.5 25q-37 0 -62 -25t-25 -62q0 -35 25 -59.5t62 -24.5z" />
    <glyph glyph-name="uni06BD.init" unicode="&#x6bd;" horiz-adv-x="684" 
d="M153 153q46 0 81.5 7.5t59.5 28.5t36 57t12 93v444h156v-451q0 -75 -14 -130t-38.5 -93t-58 -62.5t-73 -37.5t-83 -18t-88.5 -5h-143q-35 0 -52.5 26t-17.5 58t17.5 57.5t52.5 25.5h153zM319 -287h-185v181h185v-181zM641 -287h-185v181h185v-181zM480 -567h-185v181h185
v-181z" />
    <glyph glyph-name="uni06BD.medi" unicode="&#x6bd;" horiz-adv-x="684" 
d="M498 408q0 -67 6 -115t25.5 -79t56.5 -46t98 -15v-167h-22q-100 0 -160 31.5t-90 91.5h-4q-26 -35 -58.5 -58.5t-67.5 -38t-70.5 -20.5t-68.5 -6h-143q-35 0 -52.5 26t-17.5 58t17.5 57.5t52.5 25.5h153q29 0 62.5 9t61.5 31t46.5 57.5t18.5 88.5v444h156v-375zM319 -287
h-185v181h185v-181zM641 -287h-185v181h185v-181zM480 -567h-185v181h185v-181z" />
    <glyph glyph-name="uni06BD.fina" unicode="&#x6bd;" horiz-adv-x="1368" 
d="M1156 449q8 -45 12.5 -87t10.5 -84q9 -63 51.5 -94t137.5 -31v-167h-22q-63 0 -100 19t-60 51l-5 -1q-3 -132 -33 -237.5t-95 -179t-168.5 -112.5t-252.5 -39q-136 0 -227.5 34.5t-147 98t-79 155t-23.5 205.5q0 64 7.5 132.5t21.5 146.5h151q-11 -75 -17 -138.5
t-6 -120.5q0 -95 18 -161t57.5 -106.5t102.5 -58.5t153 -18q105 0 179 24.5t121 79.5t68.5 144.5t21.5 218.5q0 69 -8.5 147.5t-24.5 178.5h156zM603 679h-185v181h185v-181zM925 679h-185v181h185v-181zM764 959h-185v181h185v-181z" />
    <glyph glyph-name="uni06BF.init" unicode="&#x6bf;" horiz-adv-x="1197" 
d="M0 -14q-35 0 -52.5 26t-17.5 58t17.5 57.5t52.5 25.5h59q123 0 235 27.5t215.5 72t199 100.5l185.5 113v5q-57 27 -105 53.5t-100 48t-114 35t-149 13.5q-78 0 -141 -10t-114 -26v157q55 18 121 29.5t144 11.5q80 0 142 -14.5t115 -36t101.5 -46.5t101 -47t113.5 -37
t139 -16l-32 -200q-43 -10 -100.5 -43l-130.5 -77.5t-161.5 -93.5t-192.5 -90.5t-224.5 -68.5t-256.5 -27h-50zM530 -287h-185v181h185v-181zM852 -287h-185v181h185v-181zM691 -567h-185v181h185v-181zM691 940h-185v181h185v-181z" />
    <glyph glyph-name="uni06BF.medi" unicode="&#x6bf;" horiz-adv-x="1197" 
d="M0 -14q-35 0 -52.5 26t-17.5 58t17.5 57.5t52.5 25.5h59q123 0 235 27.5t215.5 72t199 100.5l185.5 113v5q-57 27 -105 53.5t-100 48t-114 35t-149 13.5q-78 0 -141 -10t-114 -26v157q55 18 121 29.5t144 11.5q80 0 142 -14.5t115 -36t101.5 -46.5t101 -47t113.5 -37
t139 -16l-32 -200q-32 -8 -72 -28.5t-89 -49.5q1 -43 11 -72.5t36.5 -48t73.5 -26.5t121 -8v-167h-20q-98 0 -160.5 20.5t-99.5 55.5t-52 81.5t-17 99.5q-72 -43 -157.5 -88.5t-185.5 -83t-213.5 -61.5t-241.5 -24h-50zM530 -287h-185v181h185v-181zM852 -287h-185v181h185
v-181zM691 -567h-185v181h185v-181zM691 940h-185v181h185v-181z" />
    <glyph glyph-name="uni06BF.fina" unicode="&#x6bf;" horiz-adv-x="1368" 
d="M632 2h-181v179h181v-179zM934 2h-181v179h181v-179zM783 -258h-181v179h181v-179zM1036 513q-216 -57 -361 -120t-232.5 -132t-124 -145t-36.5 -158q0 -66 23 -124t73 -101t128.5 -67.5t190.5 -24.5q97 0 194.5 19t197.5 54v-154q-109 -38 -203.5 -55.5t-193.5 -17.5
q-152 0 -259.5 36t-175.5 97.5t-99.5 143t-31.5 173.5q0 56 12.5 114.5t43 117.5t80.5 117t125.5 112.5t178 104t237.5 91.5v8q-50 16 -88.5 32t-79 28.5t-90 20t-122.5 7.5q-75 0 -139 -10.5t-113 -25.5v157q55 18 121.5 29.5t144.5 11.5q72 0 126.5 -11t101 -27.5t88 -36
t88 -36.5t101 -28.5t126.5 -12.5zM1111 342q6 -104 64 -146.5t162 -42.5h31v-167h-55q-79 0 -138.5 24t-100.5 67t-63 101t-26 126q31 11 62.5 20.5t63.5 17.5zM691 1061h-185v181h185v-181z" />
    <glyph glyph-name="uni06C4.fina" unicode="&#x6c4;" horiz-adv-x="1026" 
d="M0 -263q108 -44 194.5 -61.5t168.5 -17.5q69 0 120 16.5t87 45t58 66.5t34 82q5 19 10.5 49.5t9.5 68.5h-117q-92 0 -165 20.5t-124 60t-78 96.5t-27 131q0 64 24 134.5t66.5 130t100.5 98t126 38.5q72 0 131.5 -42t113.5 -128q45 -72 71.5 -167.5t33.5 -204.5h188v-167
h-189q-8 -102 -39 -192.5t-89 -158.5t-143.5 -108t-202.5 -40q-91 0 -177 19t-186 65v166zM653 308q-13 38 -31.5 76.5t-40.5 69t-48 49.5t-54 19q-29 0 -56.5 -19t-49.5 -49t-35.5 -68t-13.5 -76q0 -75 62 -116t197 -41h101q-4 39 -11 78t-20 77zM360 -96q65 0 112 -46.5
t47 -115.5q0 -65 -47 -112t-112 -47q-69 0 -115.5 47t-46.5 112q0 69 46.5 115.5t115.5 46.5zM360 -342q35 0 59.5 24.5t24.5 59.5q0 37 -24.5 62t-59.5 25q-37 0 -62 -25t-25 -62q0 -35 25 -59.5t62 -24.5z" />
    <glyph glyph-name="uni06C5" unicode="&#x6c5;" horiz-adv-x="1026" arabic-form="isolated" 
d="M0 -262q103 -43 188.5 -61.5t154.5 -18.5q62 0 110 13.5t84 38t61.5 58t42.5 73.5h-470v109h500q8 43 11.5 87t4.5 89q-47 -22 -91 -30.5t-85 -8.5q-66 0 -127.5 20.5t-108.5 60t-75.5 96.5t-28.5 129q0 65 24 136t66.5 130.5t101 98t127.5 38.5q66 0 129.5 -39.5
t113 -118.5t80 -198t30.5 -278q0 -81 -9.5 -162t-31.5 -156t-58.5 -140.5t-91.5 -114t-130 -76t-173 -27.5q-88 0 -174.5 22t-174.5 64v166zM664 392q-15 51 -36 93.5t-46 73t-51.5 47.5t-52.5 17q-28 0 -55.5 -19t-49.5 -49.5t-35.5 -67.5t-13.5 -73q0 -38 16 -68t45 -50.5
t68 -31.5t86 -11q27 0 64.5 6t79.5 26q-2 29 -6.5 54.5t-12.5 52.5z" />
    <glyph glyph-name="uni06C6" unicode="&#x6c6;" horiz-adv-x="1026" arabic-form="isolated" 
d="M0 -263q108 -44 194.5 -61.5t168.5 -17.5q100 0 161.5 33t96 85t47.5 117t15 130q-83 -37 -172 -37q-66 0 -127.5 20.5t-108.5 60t-75.5 96.5t-28.5 131q0 64 24 134.5t66.5 130t100.5 98t126 38.5q72 0 131.5 -42t113.5 -127t81 -203.5t27 -250.5q0 -116 -26 -221.5
t-83 -186.5t-148 -129t-221 -48q-91 0 -177 19t-186 65v166zM681 185q-1 25 -9 59.5t-21.5 72t-31.5 74t-40.5 66t-47.5 47.5t-52 18q-29 0 -56.5 -19t-49.5 -49t-35.5 -68t-13.5 -76q0 -37 17 -66.5t45.5 -49.5t65.5 -31t77 -11q39 0 78 6.5t74 26.5zM432 977l-236 352h125
l171 -255l168 255h121l-230 -352h-119z" />
    <glyph glyph-name="uni06C7" unicode="&#x6c7;" horiz-adv-x="1026" arabic-form="isolated" 
d="M0 -263q108 -44 194.5 -61.5t168.5 -17.5q100 0 161.5 33t96 85t47.5 117t15 130q-83 -37 -172 -37q-66 0 -127.5 20.5t-108.5 60t-75.5 96.5t-28.5 131q0 64 24 134.5t66.5 130t100.5 98t126 38.5q72 0 131.5 -42t113.5 -127t81 -203.5t27 -250.5q0 -116 -26 -221.5
t-83 -186.5t-148 -129t-221 -48q-91 0 -177 19t-186 65v166zM681 185q-1 25 -9 59.5t-21.5 72t-31.5 74t-40.5 66t-47.5 47.5t-52 18q-29 0 -56.5 -19t-49.5 -49t-35.5 -68t-13.5 -76q0 -37 17 -66.5t45.5 -49.5t65.5 -31t77 -11q39 0 78 6.5t74 26.5zM544 938
q-45 34 -80 68q-24 -5 -48 -6.5t-45 -1.5q-57 0 -108.5 7t-99.5 21l18 83q50 -13 96 -20.5t102 -7.5h6.5t11.5 1l1 2q-52 67 -52 135q0 38 15 68t40 50.5t56.5 31t63.5 10.5q31 0 61 -10t53 -30.5t37 -51t14 -71.5q0 -66 -36 -111t-93 -71q11 -11 21 -19t19 -16zM601 1213
q0 41 -25.5 59.5t-56.5 18.5q-16 0 -31.5 -4.5t-28 -14t-20 -23.5t-7.5 -32q0 -29 17.5 -59.5t43.5 -59.5q48 16 78 44.5t30 70.5z" />
    <glyph glyph-name="uni06C8" unicode="&#x6c8;" horiz-adv-x="1026" arabic-form="isolated" 
d="M0 -263q108 -44 194.5 -61.5t168.5 -17.5q100 0 161.5 33t96 85t47.5 117t15 130q-83 -37 -172 -37q-66 0 -127.5 20.5t-108.5 60t-75.5 96.5t-28.5 131q0 64 24 134.5t66.5 130t100.5 98t126 38.5q72 0 131.5 -42t113.5 -127t81 -203.5t27 -250.5q0 -116 -26 -221.5
t-83 -186.5t-148 -129t-221 -48q-91 0 -177 19t-186 65v166zM681 185q-1 25 -9 59.5t-21.5 72t-31.5 74t-40.5 66t-47.5 47.5t-52 18q-29 0 -56.5 -19t-49.5 -49t-35.5 -68t-13.5 -76q0 -37 17 -66.5t45.5 -49.5t65.5 -31t77 -11q39 0 78 6.5t74 26.5zM551 977h-126v392h126
v-392z" />
    <glyph glyph-name="uni06C9" unicode="&#x6c9;" horiz-adv-x="1026" arabic-form="isolated" 
d="M0 -263q108 -44 194.5 -61.5t168.5 -17.5q100 0 161.5 33t96 85t47.5 117t15 130q-83 -37 -172 -37q-66 0 -127.5 20.5t-108.5 60t-75.5 96.5t-28.5 131q0 64 24 134.5t66.5 130t100.5 98t126 38.5q72 0 131.5 -42t113.5 -127t81 -203.5t27 -250.5q0 -116 -26 -221.5
t-83 -186.5t-148 -129t-221 -48q-91 0 -177 19t-186 65v166zM681 185q-1 25 -9 59.5t-21.5 72t-31.5 74t-40.5 66t-47.5 47.5t-52 18q-29 0 -56.5 -19t-49.5 -49t-35.5 -68t-13.5 -76q0 -37 17 -66.5t45.5 -49.5t65.5 -31t77 -11q39 0 78 6.5t74 26.5zM545 1329l236 -352
h-125l-171 255l-168 -255h-121l230 352h119z" />
    <glyph glyph-name="uni06CA.fina" unicode="&#x6ca;" horiz-adv-x="1026" 
d="M0 -263q108 -44 194.5 -61.5t168.5 -17.5q69 0 120 16.5t87 45t58 66.5t34 82q5 19 10.5 49.5t9.5 68.5h-117q-92 0 -165 20.5t-124 60t-78 96.5t-27 131q0 64 24 134.5t66.5 130t100.5 98t126 38.5q72 0 131.5 -42t113.5 -128q45 -72 71.5 -167.5t33.5 -204.5h188v-167
h-189q-8 -102 -39 -192.5t-89 -158.5t-143.5 -108t-202.5 -40q-91 0 -177 19t-186 65v166zM653 308q-13 38 -31.5 76.5t-40.5 69t-48 49.5t-54 19q-29 0 -56.5 -19t-49.5 -49t-35.5 -68t-13.5 -76q0 -75 62 -116t197 -41h101q-4 39 -11 78t-20 77zM401 964h-185v181h185
v-181zM723 964h-185v181h185v-181z" />
    <glyph glyph-name="uni06CB" unicode="&#x6cb;" horiz-adv-x="1026" arabic-form="isolated" 
d="M0 -263q108 -44 194.5 -61.5t168.5 -17.5q100 0 161.5 33t96 85t47.5 117t15 130q-83 -37 -172 -37q-66 0 -127.5 20.5t-108.5 60t-75.5 96.5t-28.5 131q0 64 24 134.5t66.5 130t100.5 98t126 38.5q72 0 131.5 -42t113.5 -127t81 -203.5t27 -250.5q0 -116 -26 -221.5
t-83 -186.5t-148 -129t-221 -48q-91 0 -177 19t-186 65v166zM681 185q-1 25 -9 59.5t-21.5 72t-31.5 74t-40.5 66t-47.5 47.5t-52 18q-29 0 -56.5 -19t-49.5 -49t-35.5 -68t-13.5 -76q0 -37 17 -66.5t45.5 -49.5t65.5 -31t77 -11q39 0 78 6.5t74 26.5zM401 964h-185v181h185
v-181zM723 964h-185v181h185v-181zM562 1244h-185v181h185v-181z" />
    <glyph glyph-name="uni06CD.fina" unicode="&#x6cd;" horiz-adv-x="1880" 
d="M1880 153v-167h-22q-67 0 -118.5 16.5t-91 43t-69 61t-52.5 70t-41.5 69.5t-36.5 61q-23 35 -43.5 49t-44.5 14q-29 0 -48.5 -17t-19.5 -53q0 -33 16 -55t35 -45.5t35 -54.5t16 -83q0 -58 -22.5 -104t-61.5 -81.5t-91 -60t-111.5 -40.5t-123.5 -23t-126 -7
q-151 0 -253 37.5t-164.5 102t-89 151t-26.5 185.5q0 31 2 67.5t6 71.5l-304 -57v114l483 95q-14 -73 -23 -133.5t-9 -123.5q0 -77 17.5 -139.5t64 -107.5t126.5 -69.5t205 -24.5q84 0 148.5 11t109 30.5t67 46t22.5 58.5q0 28 -16 49.5l-35 45.5t-35 56.5t-16 82.5
q0 53 19 96.5t51.5 74.5t76 48t91.5 17q49 0 97 -22t87 -80q25 -39 47 -87t54 -90t83 -70.5t135 -28.5z" />
    <glyph glyph-name="uni06CE.init" unicode="&#x6ce;" horiz-adv-x="684" 
d="M153 153q46 0 81.5 7.5t59.5 28.5t36 57t12 93v444h156v-451q0 -75 -14 -130t-38.5 -93t-58 -62.5t-73 -37.5t-83 -18t-88.5 -5h-143q-35 0 -52.5 26t-17.5 58t17.5 57.5t52.5 25.5h153zM359 1018l-236 352h125l171 -255l168 255h121l-230 -352h-119zM262 -346h-185v181
h185v-181zM584 -346h-185v181h185v-181z" />
    <glyph glyph-name="uni06CE.medi" unicode="&#x6ce;" horiz-adv-x="684" 
d="M498 408q0 -67 6 -115t25.5 -79t56.5 -46t98 -15v-167h-22q-100 0 -160 31.5t-90 91.5h-4q-26 -35 -58.5 -58.5t-67.5 -38t-70.5 -20.5t-68.5 -6h-143q-35 0 -52.5 26t-17.5 58t17.5 57.5t52.5 25.5h153q29 0 62.5 9t61.5 31t46.5 57.5t18.5 88.5v444h156v-375zM359 1018
l-236 352h125l171 -255l168 255h121l-230 -352h-119zM262 -346h-185v181h185v-181zM584 -346h-185v181h185v-181z" />
    <glyph glyph-name="uni06CE.fina" unicode="&#x6ce;" horiz-adv-x="1710" 
d="M1710 153v-167h-22q-67 0 -118.5 16.5t-90.5 43t-68.5 61t-52 70t-41 69.5t-36.5 61q-23 35 -44.5 49t-45.5 14q-29 0 -48.5 -17t-19.5 -53q0 -33 16 -55t35 -45.5t35 -54.5t16 -83q0 -58 -22.5 -104t-61.5 -81.5t-91 -60t-111.5 -40.5t-123.5 -23t-126 -7
q-156 0 -259 40t-164.5 107.5t-86.5 156.5t-25 188q0 63 9 124.5t26 130.5h154q-14 -64 -23 -119.5t-9 -117.5q0 -74 16.5 -136t61.5 -108t125.5 -71.5t209.5 -25.5q84 0 148.5 11t109 30.5t67 46t22.5 58.5q0 28 -16 49.5l-35 45.5t-35 56.5t-16 82.5q0 53 19 96.5
t51.5 74.5t76 48t91.5 17q49 0 97 -22t87 -80q17 -26 32 -56.5l31.5 -61t37.5 -59.5t50.5 -51t70.5 -35t97 -13zM716 716l-236 352h125l171 -255l168 255h121l-230 -352h-119z" />
    <glyph glyph-name="uni06CF.fina" unicode="&#x6cf;" horiz-adv-x="1026" 
d="M0 -263q108 -44 194.5 -61.5t168.5 -17.5q69 0 120 16.5t87 45t58 66.5t34 82q5 19 10.5 49.5t9.5 68.5h-117q-92 0 -165 20.5t-124 60t-78 96.5t-27 131q0 64 24 134.5t66.5 130t100.5 98t126 38.5q72 0 131.5 -42t113.5 -128q45 -72 71.5 -167.5t33.5 -204.5h188v-167
h-189q-8 -102 -39 -192.5t-89 -158.5t-143.5 -108t-202.5 -40q-91 0 -177 19t-186 65v166zM653 308q-13 38 -31.5 76.5t-40.5 69t-48 49.5t-54 19q-29 0 -56.5 -19t-49.5 -49t-35.5 -68t-13.5 -76q0 -75 62 -116t197 -41h101q-4 39 -11 78t-20 77zM562 964h-185v181h185
v-181z" />
    <glyph glyph-name="uni06D0" unicode="&#x6d0;" horiz-adv-x="1539" arabic-form="isolated" 
d="M668 -22q-148 0 -246.5 39t-158 105.5t-84.5 155t-25 187.5q0 91 17.5 184t46.5 184h151q-23 -88 -40.5 -175.5t-17.5 -172.5q0 -71 16.5 -132.5t57.5 -107.5t112 -72t180 -26t203.5 23t165 60.5t111 84.5t40.5 95q0 38 -25.5 63.5t-63 47.5t-82 45t-82 55t-63 78
t-25.5 115q0 85 42 148.5t117 109t179.5 75t230.5 47.5v-162q-100 -13 -178 -30.5t-132 -42t-82 -57t-28 -74.5q0 -41 25.5 -69.5t64 -52t83.5 -45.5t83.5 -51t64 -68.5t25.5 -97.5q0 -49 -19.5 -102t-58.5 -105t-96.5 -99t-133.5 -82.5t-170 -56.5t-205 -21zM862 -567h-185
v181h185v-181zM862 -287h-185v181h185v-181z" />
    <glyph glyph-name="uniFBE5" unicode="&#x6d0;" horiz-adv-x="1710" arabic-form="final" 
d="M1710 153v-167h-22q-65 0 -114.5 17t-88 46t-67.5 67t-52.5 79.5t-43 84t-39.5 79.5q-26 51 -47.5 74t-50.5 23q-28 0 -43.5 -18t-15.5 -41q0 -17 9 -36.5l19.5 -42t19.5 -49.5t9 -59q0 -46 -20.5 -83t-56.5 -65.5t-84 -48.5t-103 -33.5t-114 -19.5t-116 -6
q-156 0 -259 40t-164.5 107.5t-86.5 156.5t-25 188q0 63 9 124.5t26 130.5h154q-14 -64 -23 -119.5t-9 -117.5q0 -74 16.5 -136t61.5 -108t125.5 -71.5t209.5 -25.5q160 0 232.5 32.5t72.5 88.5q0 20 -8 40.5t-17.5 42t-17.5 46t-8 53.5q0 39 16.5 73.5t45.5 60t68 40.5
t83 15q61 0 111.5 -32.5t92.5 -109.5q18 -32 33 -68.5t31.5 -72t37 -68t49.5 -57.5t69 -39.5t95 -14.5zM805 -572h-185v181h185v-181zM805 -292h-185v181h185v-181z" />
    <glyph glyph-name="uni06D1.init" unicode="&#x6d1;" horiz-adv-x="684" 
d="M153 153q46 0 81.5 7.5t59.5 28.5t36 57t12 93v444h156v-451q0 -75 -14 -130t-38.5 -93t-58 -62.5t-73 -37.5t-83 -18t-88.5 -5h-143q-35 0 -52.5 26t-17.5 58t17.5 57.5t52.5 25.5h153zM319 -287h-185v181h185v-181zM641 -287h-185v181h185v-181zM480 -567h-185v181h185
v-181z" />
    <glyph glyph-name="uni06D1.medi" unicode="&#x6d1;" horiz-adv-x="684" 
d="M498 408q0 -67 6 -115t25.5 -79t56.5 -46t98 -15v-167h-22q-100 0 -160 31.5t-90 91.5h-4q-26 -35 -58.5 -58.5t-67.5 -38t-70.5 -20.5t-68.5 -6h-143q-35 0 -52.5 26t-17.5 58t17.5 57.5t52.5 25.5h153q29 0 62.5 9t61.5 31t46.5 57.5t18.5 88.5v444h156v-375zM319 -287
h-185v181h185v-181zM641 -287h-185v181h185v-181zM480 -567h-185v181h185v-181z" />
    <glyph glyph-name="uni06D1.fina" unicode="&#x6d1;" horiz-adv-x="1710" 
d="M1710 153v-167h-22q-65 0 -114.5 17t-88 46t-67.5 67t-52.5 79.5t-43 84t-39.5 79.5q-26 51 -47.5 74t-50.5 23q-28 0 -43.5 -18t-15.5 -41q0 -17 9 -36.5l19.5 -42t19.5 -49.5t9 -59q0 -46 -20.5 -83t-56.5 -65.5t-84 -48.5t-103 -33.5t-114 -19.5t-116 -6
q-156 0 -259 40t-164.5 107.5t-86.5 156.5t-25 188q0 63 9 124.5t26 130.5h154q-14 -64 -23 -119.5t-9 -117.5q0 -74 16.5 -136t61.5 -108t125.5 -71.5t209.5 -25.5q160 0 232.5 32.5t72.5 88.5q0 20 -8 40.5t-17.5 42t-17.5 46t-8 53.5q0 39 16.5 73.5t45.5 60t68 40.5
t83 15q61 0 111.5 -32.5t92.5 -109.5q18 -32 33 -68.5t31.5 -72t37 -68t49.5 -57.5t69 -39.5t95 -14.5zM644 -292h-185v181h185v-181zM966 -292h-185v181h185v-181zM805 -572h-185v181h185v-181z" />
    <glyph glyph-name="uni06FA.init" unicode="&#x6fa;" horiz-adv-x="1710" 
d="M1011 408q0 -67 5.5 -115t25 -79t55.5 -46t98 -15q38 0 70 7.5t55 28.5t35.5 57t12.5 93v444h156v-457q0 -108 -28.5 -174.5t-75 -103.5t-106 -49.5t-122.5 -12.5q-44 0 -83.5 6.5t-72.5 20.5t-59 37.5t-44 58.5h-4q-26 -35 -59 -58.5t-68.5 -38t-71.5 -20.5t-69 -6
q-100 0 -159.5 31.5t-89.5 91.5h-4q-26 -35 -58.5 -58.5t-67.5 -38t-70.5 -20.5t-68.5 -6h-143q-35 0 -52.5 26t-17.5 58t17.5 57.5t52.5 25.5h153q29 0 62.5 9t61.5 31t46.5 57.5t18.5 88.5v267h156v-201q0 -65 5.5 -112.5t23.5 -78.5t52 -46t91 -15q36 0 69.5 8t59 29
t41 57t15.5 92v267h156v-198zM864 850h-185v181h185v-181zM1186 850h-185v181h185v-181zM1025 1130h-185v181h185v-181zM1025 -346h-185v181h185v-181z" />
    <glyph glyph-name="uni06FA.medi" unicode="&#x6fa;" horiz-adv-x="1710" 
d="M1195 153q38 0 70 7.5t55 28.5t35.5 57t12.5 93v444h156v-369q0 -67 6 -116t25.5 -81.5t56 -48t98.5 -15.5v-167h-22q-93 0 -149 27t-87 84h-6q-23 -33 -52 -54t-62 -34t-68.5 -18t-71.5 -5q-44 0 -83.5 6.5t-72.5 20.5t-59 37.5t-44 58.5h-4q-26 -35 -59 -58.5
t-68.5 -38t-71.5 -20.5t-69 -6q-100 0 -159.5 31.5t-89.5 91.5h-4q-26 -35 -58.5 -58.5t-67.5 -38t-70.5 -20.5t-68.5 -6h-143q-35 0 -52.5 26t-17.5 58t17.5 57.5t52.5 25.5h153q29 0 62.5 9t61.5 31t46.5 57.5t18.5 88.5v267h156v-201q0 -65 5.5 -112.5t23.5 -78.5t52 -46
t91 -15q36 0 69.5 8t59 29t41 57t15.5 92v267h156v-198q0 -67 5.5 -115t25 -79t55.5 -46t98 -15zM864 850h-185v181h185v-181zM1186 850h-185v181h185v-181zM1025 1130h-185v181h185v-181zM1025 -346h-185v181h185v-181z" />
    <glyph glyph-name="uni06FA.fina" unicode="&#x6fa;" horiz-adv-x="2394" 
d="M1879 153q38 0 70 7.5t55 28.5t35.5 57t12.5 93v444h156v-369q0 -67 6 -116t25.5 -81.5t56 -48t98.5 -15.5v-167h-22q-93 0 -149 27t-87 84h-6q-23 -33 -52 -54t-62 -34t-68.5 -18t-71.5 -5q-44 0 -83.5 6.5t-72.5 20.5t-59 37.5t-44 58.5h-4q-25 -35 -56.5 -58.5
t-65.5 -38t-69 -20.5t-66 -6q-66 0 -107 19t-66 51l-5 -1q-3 -132 -33.5 -237.5t-94.5 -179t-166 -112.5t-247 -39q-138 0 -230.5 34.5t-148.5 98t-79.5 155t-23.5 205.5q0 64 7.5 132.5t21.5 146.5h151q-11 -75 -17 -138.5t-6 -120.5q0 -95 18 -161t57.5 -106.5
t102.5 -58.5t153 -18q105 0 178.5 24.5t120 79.5t68 144.5t21.5 218.5q0 83 -9 176.5t-25 213.5h155q8 -63 14 -119t11 -112q6 -66 50 -97.5t138 -31.5q34 0 65.5 8t55.5 29t38.5 57t14.5 92v267h156v-198q0 -67 5.5 -115t25 -79t55.5 -46t98 -15zM1548 850h-185v181h185
v-181zM1870 850h-185v181h185v-181zM1709 1130h-185v181h185v-181zM1709 -346h-185v181h185v-181z" />
    <glyph glyph-name="uni06FB.init" unicode="&#x6fb;" horiz-adv-x="2052" 
d="M408 109q-26 -35 -58.5 -58.5t-67.5 -38t-70.5 -20.5t-68.5 -6h-143q-35 0 -52.5 26t-17.5 58t17.5 57.5t52.5 25.5h153q39 0 72 12t57 31.5t38 45t14 52.5q0 48 -7.5 103t-20.5 116h154q11 -63 17.5 -120t14.5 -115q3 -23 11.5 -44.5t25 -38.5t43.5 -27.5t67 -12.5
q24 65 62 140t89.5 149.5t116 144t141.5 122.5t167 85t191 32q121 0 208 -37.5t143 -101.5t83 -149.5t27 -181.5q0 -93 -22.5 -157t-63.5 -106.5t-97.5 -66t-124.5 -34.5t-145 -13.5t-159 -2.5q-179 0 -307 0.5t-215.5 3.5t-140 9.5t-79.5 18.5q-35 15 -58 39.5t-43 59.5h-4
zM1277 147q107 0 188 5t135.5 24.5t82 59t27.5 108.5q0 86 -25 146t-69 97.5t-104.5 54.5t-131.5 17q-110 0 -204 -46t-169.5 -119t-130.5 -163.5t-86 -180.5q92 -2 211 -2.5t276 -0.5zM1147 1021h-185v181h185v-181zM1261 -346h-185v181h185v-181z" />
    <glyph glyph-name="uni06FB.medi" unicode="&#x6fb;" horiz-adv-x="2052" 
d="M1255 -22q-179 0 -307 0.5t-215.5 3.5t-140 9.5t-79.5 18.5q-35 15 -58 39.5t-43 59.5h-4q-26 -35 -58.5 -58.5t-67.5 -38t-70.5 -20.5t-68.5 -6h-143q-35 0 -52.5 26t-17.5 58t17.5 57.5t52.5 25.5h153q39 0 72 12t57 31.5t38 45t14 52.5q0 48 -7.5 103t-20.5 116h154
q11 -63 17.5 -120t14.5 -115q3 -23 11.5 -44.5t25 -38.5t43.5 -27.5t67 -12.5q24 65 62 140t89.5 149.5t116 144t141.5 122.5t167 85t191 32q120 0 206 -36.5t142 -99t83.5 -144.5t29.5 -173q1 -58 9.5 -100t29 -69t56 -40t90.5 -13v-167h-22q-94 0 -152 29t-89 98h-6
q-38 -49 -94 -76t-124.5 -40t-147 -16t-162.5 -3zM1277 147q107 0 188 5t135.5 24.5t82 59t27.5 108.5q0 86 -25 146t-69 97.5t-104.5 54.5t-131.5 17q-110 0 -204 -46t-169.5 -119t-130.5 -163.5t-86 -180.5q92 -2 211 -2.5t276 -0.5zM1147 1021h-185v181h185v-181z
M1261 -346h-185v181h185v-181z" />
    <glyph glyph-name="uni06FB.fina" unicode="&#x6fb;" horiz-adv-x="2737" 
d="M1272 -3q-31 9 -51 23.5t-38 35.5l-5 -1q-3 -132 -33.5 -237.5t-95 -179t-167 -112.5t-250.5 -39q-136 0 -227.5 34.5t-147 98t-79 155t-23.5 205.5q0 64 7.5 132.5t21.5 146.5h151q-11 -75 -17 -138.5t-6 -120.5q0 -95 18 -161t57.5 -106.5t102.5 -58.5t153 -18
q105 0 178.5 24.5t120 79.5t68 144.5t21.5 218.5q0 83 -9 181.5t-32 208.5h154q11 -63 17.5 -120t14.5 -115q3 -23 11.5 -44.5t25 -38.5t43.5 -27.5t67 -12.5q24 65 62 140t89.5 149.5t116 144t141.5 122.5t167 85t191 32q120 0 206 -36.5t142 -99t83.5 -144.5t29.5 -173
q1 -58 9.5 -100t29 -69t55.5 -40t91 -13v-167h-22q-94 0 -152 29t-89 98h-6q-38 -49 -94 -76t-124.5 -40t-147 -16t-162.5 -3q-161 0 -276.5 0.5t-194 2t-125.5 5.5t-71 11zM1961 147q107 0 188 5t135.5 24.5t82 59t27.5 108.5q0 86 -25 146t-69 97.5t-104.5 54.5t-131.5 17
q-73 0 -139.5 -21t-125 -57.5t-109 -86t-91.5 -106t-72.5 -117.5t-52.5 -121q92 -2 211 -2.5t276 -0.5zM1831 1021h-185v181h185v-181zM1945 -346h-185v181h185v-181z" />
    <glyph glyph-name="uni06FC.init" unicode="&#x6fc;" horiz-adv-x="1198" 
d="M1084 171q-120 -55 -226.5 -90.5t-207 -56.5t-199 -29.5t-201.5 -8.5h-250q-35 0 -52.5 26t-17.5 58t17.5 57.5t52.5 25.5h369l1 6q-62 51 -101 100.5t-61 95.5t-29.5 86.5t-7.5 73.5q0 79 34.5 150t99.5 124.5t159 85t213 31.5q40 0 84.5 -4t92.5 -13v-170
q-46 8 -95.5 13.5t-103.5 5.5q-63 0 -122 -10t-105 -36.5t-73.5 -71.5t-27.5 -114q0 -33 11 -71t38 -79.5t73 -86t117 -90.5q128 25 252.5 67t264.5 108zM634 1071h-185v181h185v-181zM634 -346h-185v181h185v-181z" />
    <glyph glyph-name="uni06FC.medi" unicode="&#x6fc;" horiz-adv-x="1197" 
d="M1197 153v-167h-62q-135 0 -254.5 37t-228.5 106q-103 -64 -239 -103.5t-310 -39.5h-103q-35 0 -52.5 26t-17.5 58t17.5 57.5t52.5 25.5h113q128 0 227.5 21t178.5 56q-106 88 -192.5 192t-155.5 216v173l102 16t120 16.5t129.5 13t129.5 5.5q39 0 81 -2.5t82 -10.5
t75.5 -22t62.5 -36.5t43 -55t16 -76.5q0 -38 -12.5 -88.5t-39 -106.5t-67.5 -114t-98 -112q184 -85 402 -85zM855 612q0 51 -60.5 72t-163.5 21q-76 0 -155 -7.5t-152 -15.5v-11q69 -106 152.5 -194.5t188.5 -160.5q52 41 88.5 85t59 84.5t32.5 73.5t10 53zM691 1021h-185
v181h185v-181zM691 -346h-185v181h185v-181z" />
    <glyph glyph-name="uni06FC.fina" unicode="&#x6fc;" horiz-adv-x="1197" 
d="M1176 153h21v-167h-62q-86 0 -167.5 19t-157.5 53.5t-146.5 83t-134.5 107.5q-77 -32 -129 -67t-84 -72t-45.5 -76.5t-13.5 -79.5q0 -64 23 -121t72.5 -99.5t128.5 -67.5t192 -25q97 0 196.5 19t199.5 54v-154q-109 -38 -204.5 -55.5t-195.5 -17.5q-152 0 -259.5 36
t-176 97.5t-100.5 143t-32 172.5q0 54 14 106.5t50 105t99 104t161 102.5q-32 34 -67 78l-69 91l-65 93.5t-53 84.5v165l102 16t120.5 16.5t130 13t129.5 5.5q39 0 81 -3t81.5 -10.5t75.5 -21t62.5 -35.5t42.5 -53t16 -73q0 -35 -13.5 -82.5t-49.5 -101t-100 -109
t-166 -104.5q112 -82 233 -126.5t260 -44.5zM855 672q0 47 -60 67.5t-163 20.5q-76 0 -155.5 -7.5t-152.5 -15.5v-13q113 -176 248 -305q85 38 140 76.5t87 72.5t44 61t12 43zM691 1141h-185v181h185v-181zM691 -174h-185v181h185v-181z" />
    <glyph glyph-name="uni06EE.fina" unicode="&#x6ee;" horiz-adv-x="1026" 
d="M82 169q97 -11 180 -16.5t140 -5.5q146 0 209.5 35.5t63.5 113.5q0 46 -14 119t-38.5 161t-56.5 185.5t-68 192.5h166q56 -167 94.5 -309.5t67.5 -270.5q7 -32 19 -70.5t34.5 -72t57.5 -56t89 -22.5v-167h-22q-33 0 -64.5 8t-59.5 25.5t-50.5 46t-37.5 69.5h-5
q-26 -45 -66.5 -75t-90.5 -48.5t-108.5 -26t-120.5 -7.5q-58 0 -135 6t-152 16zM601 1541l236 -352h-125l-171 255l-168 -255h-121l230 352h119z" />
    <glyph glyph-name="uni06EF.fina" unicode="&#x6ef;" horiz-adv-x="855" 
d="M855 153v-167h-22q-63 0 -100 18t-62 51l-5 -1q0 -140 -34 -246.5t-94 -177.5t-142.5 -107t-179.5 -36q-51 0 -105 11t-111 34v165q124 -39 213 -39q85 0 143 30.5t92.5 84.5t49.5 127t15 159q0 75 -9.5 146t-25 139t-36 133.5t-42.5 128.5h161q29 -75 51 -155t36 -161
q6 -35 20 -61t38 -43t60.5 -25t88.5 -8zM470 1199l236 -352h-125l-171 255l-168 -255h-121l230 352h119z" />
    <glyph glyph-name="uni06FF.init" unicode="&#x6ff;" horiz-adv-x="1368" 
d="M571 76q-38 -29 -86.5 -46.5t-102.5 -27.5t-111.5 -13t-112.5 -3h-158q-35 0 -52.5 26t-17.5 58t17.5 57.5t52.5 25.5q58 0 115 -1t115 -1q132 0 188 3l1 4q-74 30 -122 64t-76 72.5t-38.5 81t-10.5 89.5q0 55 18.5 115.5t52 114.5t79.5 95t102 58l1 6l-83 54v199
q202 -113 355 -236t255.5 -238.5t154.5 -215t52 -165.5q0 -47 -11.5 -94.5t-35 -85.5t-58.5 -62t-81 -24q-30 0 -75 4.5t-98.5 15t-112.5 27.5t-116 43zM547 239q51 63 67.5 126t16.5 118q0 45 -14 85t-35.5 70.5t-47.5 48t-50 17.5q-28 0 -57 -20.5t-52.5 -53t-38.5 -72
t-15 -77.5q0 -25 8.5 -52t33 -57t68.5 -63t116 -70zM741 596q9 -32 13 -62t4 -63q0 -78 -21 -151t-66 -127q67 -26 144 -42t152 -22q29 44 29 98q0 43 -20.5 89.5t-55 94.5t-80 96t-94.5 94zM658 1600l236 -352h-125l-171 255l-168 -255h-121l230 352h119z" />
    <glyph glyph-name="uni06FF.medi" unicode="&#x6ff;" horiz-adv-x="1026" 
d="M180 153q21 133 53.5 236.5t71.5 181.5t81.5 132t83 87.5t77 48.5t63.5 15q47 0 89 -34.5t73.5 -89t50 -122t18.5 -134.5q0 -53 -11 -99.5t-30.5 -85.5t-45.5 -71.5t-55 -57.5l2 -7h325v-167h-320l-1 -6q72 -45 104 -105.5t32 -123.5q0 -51 -19.5 -98.5t-56 -84
t-87.5 -59t-114 -22.5q-36 0 -78 10t-84.5 33t-82.5 60.5t-71.5 93t-52 130.5t-24.5 172h-171q-35 0 -52.5 26t-17.5 58t17.5 57.5t52.5 25.5h180zM464 153q48 0 89 25.5t70 67t45.5 94t16.5 106.5q0 40 -8.5 82.5t-23.5 77t-34.5 57t-41.5 22.5q-26 0 -61.5 -35.5
t-71 -103.5t-66 -167t-44.5 -226h130zM323 -14q4 -88 27 -150.5t57.5 -102.5t75.5 -59t80 -19q34 0 57 11t37 28t20.5 39t6.5 44q0 36 -16 73.5t-46.5 67.5t-74.5 49t-100 19h-124zM601 1450l236 -352h-125l-171 255l-168 -255h-121l230 352h119z" />
    <glyph glyph-name="uni06FF.fina" unicode="&#x6ff;" horiz-adv-x="1368" 
d="M513 -14q-83 0 -145.5 1.5t-108 3.5t-75.5 5t-49 6l-32 169q44 -5 89 -8.5t95.5 -5.5t108 -3t126.5 -1q21 133 53.5 236.5t71.5 181.5t81.5 132t83.5 87.5t77.5 48.5t64.5 15q46 0 87.5 -34.5t73 -89.5t50 -123t18.5 -135q0 -53 -11.5 -98.5t-31 -84.5t-45.5 -71.5
t-54 -57.5l2 -7h325v-167h-320l-1 -6q72 -45 104 -105t32 -122q0 -52 -20 -100t-56 -85t-86 -59t-111 -22q-38 0 -80.5 10t-85.5 33t-83 60.5t-71.5 93t-52 130.5t-24.5 172zM806 153q48 0 89 25.5t70 67t45.5 94t16.5 106.5q0 40 -8.5 82.5t-23.5 77.5t-34.5 57t-40.5 22
q-26 0 -62 -35.5t-72 -103t-66 -167t-44 -226.5h130zM665 -14q4 -88 27 -150.5t57.5 -102.5t75.5 -59t82 -19q33 0 55.5 11t36.5 28t20.5 39t6.5 44q0 36 -16 73.5t-46.5 67.5t-74.5 49t-100 19h-124zM943 1450l236 -352h-125l-171 255l-168 -255h-121l230 352h119z" />
    <glyph glyph-name="uniFDFC" unicode="&#xfdfc;" horiz-adv-x="3078" arabic-form="isolated" 
d="M334 422q-11 -72 -16.5 -133t-5.5 -116q0 -95 18 -161t57 -106.5t101.5 -58.5t151.5 -18q103 0 176.5 24.5t120 79.5t68 144.5t21.5 218.5v1220h156v-1240q0 -143 -28 -257t-92.5 -193.5t-170.5 -122.5t-263 -43q-135 0 -226 34.5t-145.5 98t-78 155t-23.5 205.5
q0 63 6.5 128.5t20.5 140.5h152zM1868 145q93 0 138.5 52t45.5 164v422h156v-429q0 -107 -27.5 -179t-75 -116t-110.5 -62.5t-134 -18.5q-68 0 -118.5 16.5t-86.5 45t-58.5 66.5t-35.5 81.5t-18 90.5t-5 93v1145h156v-1086q0 -64 4.5 -116.5t22 -90t52 -58t94.5 -20.5z
M2167 -303q124 -39 213 -39q85 0 143 30.5t92.5 84.5t49.5 127t15 159q0 75 -9.5 146t-25 139t-36 133.5t-42.5 128.5h161q26 -65 46 -136t34 -142.5t21.5 -141t7.5 -131.5q0 -138 -34 -244t-94.5 -178t-144 -109t-181.5 -37q-51 0 -105 11t-111 34v165zM1727 -347h-185v181
h185v-181zM2049 -347h-185v181h185v-181z" />
    <glyph glyph-name="uniFC60" unicode="&#xfc60;" arabic-form="isolated" 
d="M559 1590q2 -18 3 -35.5t1 -30.5q0 -103 -49.5 -157.5t-131.5 -54.5q-38 0 -72 15.5t-54 47.5h-6q-21 -32 -57.5 -47.5t-75.5 -15.5q-45 0 -75.5 16t-49.5 43t-27.5 63.5t-8.5 77.5q0 24 2 44t4 34h96q-5 -39 -6 -55t-1 -24q0 -48 19 -75.5t64 -27.5t62 27.5t17 81.5
q0 18 -1 38.5t-1 34.5h97q-1 -13 -1.5 -35t-0.5 -37q0 -55 17 -82.5t62 -27.5q48 0 66 28t18 77q0 20 -2 42t-4 35h96zM5 1778h508v-88h-508v88z" />
    <glyph glyph-name="uniFC61" unicode="&#xfc61;" arabic-form="isolated" 
d="M559 1590q2 -18 3 -35.5t1 -30.5q0 -103 -49.5 -157.5t-131.5 -54.5q-38 0 -72 15.5t-54 47.5h-6q-21 -32 -57.5 -47.5t-75.5 -15.5q-45 0 -75.5 16t-49.5 43t-27.5 63.5t-8.5 77.5q0 24 2 44t4 34h96q-5 -39 -6 -55t-1 -24q0 -48 19 -75.5t64 -27.5t62 27.5t17 81.5
q0 18 -1 38.5t-1 34.5h97q-1 -13 -1.5 -35t-0.5 -37q0 -55 17 -82.5t62 -27.5q48 0 66 28t18 77q0 20 -2 42t-4 35h96zM373 1619q-23 17 -43 34t-37 34q-24 -5 -47.5 -6.5t-43.5 -1.5q-60 0 -110.5 7t-99.5 21l18 83q51 -13 96 -20.5t102 -7.5h6.5t11.5 1l1 2
q-52 64 -52 128q0 36 15 64.5t39.5 48t55.5 29.5t64 10q32 0 62 -10t53 -29.5t37 -48.5t14 -68q0 -63 -36 -106t-93 -68q11 -11 21 -19t19 -16zM428 1885q0 38 -25.5 55t-56.5 17q-15 0 -30.5 -4.5t-27.5 -13t-19.5 -21.5t-7.5 -29q0 -26 17.5 -55t43.5 -55q48 14 77 41
t29 65z" />
    <glyph glyph-name="uniFC62" unicode="&#xfc62;" arabic-form="isolated" 
d="M559 1788q2 -18 3 -35.5t1 -30.5q0 -103 -49.5 -157.5t-131.5 -54.5q-38 0 -72 15.5t-54 47.5h-6q-21 -32 -57.5 -47.5t-75.5 -15.5q-45 0 -75.5 16t-49.5 43t-27.5 63.5t-8.5 77.5q0 24 2 44t4 34h96q-5 -39 -6 -55t-1 -24q0 -48 19 -75.5t64 -27.5t62 27.5t17 81.5
q0 18 -1 38.5t-1 34.5h97q-1 -13 -1.5 -35t-0.5 -37q0 -55 17 -82.5t62 -27.5q48 0 66 28t18 77q0 20 -2 42t-4 35h96zM5 1408h508v-88h-508v88z" />
    <glyph glyph-name="uniFC5E" unicode="&#xfc5e;" arabic-form="isolated" 
d="M559 1590q2 -18 3 -35.5t1 -30.5q0 -103 -49.5 -157.5t-131.5 -54.5q-38 0 -72 15.5t-54 47.5h-6q-21 -32 -57.5 -47.5t-75.5 -15.5q-45 0 -75.5 16t-49.5 43t-27.5 63.5t-8.5 77.5q0 24 2 44t4 34h96q-5 -39 -6 -55t-1 -24q0 -48 19 -75.5t64 -27.5t62 27.5t17 81.5
q0 18 -1 38.5t-1 34.5h97q-1 -13 -1.5 -35t-0.5 -37q0 -55 17 -82.5t62 -27.5q48 0 66 28t18 77q0 20 -2 42t-4 35h96zM373 1619q-23 17 -43 34t-37 34q-25 -7 -48.5 -10t-44.5 -3q-66 0 -113 26t-84 68l-97 -89l-54 59l153 142q49 -60 94.5 -91t97.5 -31q16 0 31 3l1 2
q-54 66 -54 131q0 36 15 64t39.5 47.5t56 29.5t63.5 10t62 -10t53 -29.5t37 -48.5t14 -68q0 -63 -36 -106t-93 -68q11 -11 21 -19t19 -16zM428 1885q0 38 -25.5 55t-56.5 17q-15 0 -30.5 -4.5t-27.5 -13t-19.5 -21t-7.5 -29.5q0 -27 17.5 -55t43.5 -55q47 14 76.5 40.5
t29.5 65.5z" />
    <glyph glyph-name="uniFC5F" unicode="&#xfc5f;" arabic-form="isolated" 
d="M559 1963q2 -18 3 -35.5t1 -30.5q0 -103 -49.5 -157.5t-131.5 -54.5q-38 0 -72 15.5t-54 47.5h-6q-21 -32 -57.5 -47.5t-75.5 -15.5q-45 0 -75.5 16t-49.5 43t-27.5 63.5t-8.5 77.5q0 24 2 44t4 34h96q-5 -39 -6 -55t-1 -24q0 -48 19 -75.5t64 -27.5t62 27.5t17 81.5
q0 18 -1 38.5t-1 34.5h97q-1 -13 -1.5 -35t-0.5 -37q0 -55 17 -82.5t62 -27.5q48 0 66 28t18 77q0 20 -2 42t-4 35h96zM5 1583h508v-88h-508v88zM5 1408h508v-88h-508v88z" />
    <glyph glyph-name="uniFEAE" unicode="&#x631;" horiz-adv-x="855" arabic-form="final" 
d="M855 153v-167h-22q-63 0 -100 18t-62 51l-5 -1q0 -140 -34 -246.5t-94 -177.5t-142.5 -107t-179.5 -36q-51 0 -105 11t-111 34v165q124 -39 213 -39q85 0 143 30.5t92.5 84.5t49.5 127t15 159q0 75 -9.5 146t-25 139t-36 133.5t-42.5 128.5h161q29 -75 51 -155t36 -161
q6 -35 20 -61t38 -43t60.5 -25t88.5 -8z" />
    <glyph glyph-name="uniFEB0" unicode="&#x632;" horiz-adv-x="855" arabic-form="final" 
d="M855 153v-167h-22q-63 0 -100 18t-62 51l-5 -1q0 -140 -34 -246.5t-94 -177.5t-142.5 -107t-179.5 -36q-51 0 -105 11t-111 34v165q124 -39 213 -39q85 0 143 30.5t92.5 84.5t49.5 127t15 159q0 75 -9.5 146t-25 139t-36 133.5t-42.5 128.5h161q29 -75 51 -155t36 -161
q6 -35 20 -61t38 -43t60.5 -25t88.5 -8zM503 850h-185v181h185v-181z" />
    <glyph glyph-name="uniFB8B" unicode="&#x698;" horiz-adv-x="855" arabic-form="final" 
d="M855 153v-167h-22q-63 0 -100 18t-62 51l-5 -1q0 -140 -34 -246.5t-94 -177.5t-142.5 -107t-179.5 -36q-51 0 -105 11t-111 34v165q124 -39 213 -39q85 0 143 30.5t92.5 84.5t49.5 127t15 159q0 75 -9.5 146t-25 139t-36 133.5t-42.5 128.5h161q29 -75 51 -155t36 -161
q6 -35 20 -61t38 -43t60.5 -25t88.5 -8zM342 850h-185v181h185v-181zM664 850h-185v181h185v-181zM503 1130h-185v181h185v-181z" />
    <glyph glyph-name="uniFB8D" unicode="&#x691;" horiz-adv-x="855" arabic-form="final" 
d="M855 153v-167h-22q-63 0 -100 18t-62 51l-5 -1q0 -140 -34 -246.5t-94 -177.5t-142.5 -107t-179.5 -36q-51 0 -105 11t-111 34v165q124 -39 213 -39q85 0 143 30.5t92.5 84.5t49.5 127t15 159q0 75 -9.5 146t-25 139t-36 133.5t-42.5 128.5h161q29 -75 51 -155t36 -161
q6 -35 20 -61t38 -43t60.5 -25t88.5 -8zM96 969q23 -2 54.5 -3.5l72.5 -3.5v503h89v-347l3 -1q38 62 89.5 97t123.5 35q48 0 82.5 -18t56.5 -48.5t32.5 -70.5t10.5 -84q0 -64 -19.5 -99t-54 -51.5t-80.5 -19.5t-100 -3q-71 0 -125 0.5t-95.5 2t-72 3.5t-54.5 5zM444 960
q53 0 88.5 1t56.5 8t30 21t9 40q0 59 -32.5 87t-78.5 28q-35 0 -66.5 -15.5t-58 -41t-47.5 -59t-36 -69.5h135z" />
    <glyph glyph-name="afii57534.fina" unicode="&#x6d5;" horiz-adv-x="1026" 
d="M684 983h156v-587q0 -62 7.5 -108t28 -76t56.5 -44.5t94 -14.5v-167h-22q-56 0 -106 12.5t-90 39t-69 67.5t-43 99q-43 -17 -92 -23t-91 -6q-69 0 -132.5 16t-112.5 50.5t-78 88.5t-29 131q0 94 44 167t117 125t167 85t195 48v97zM311 476q0 -38 18 -64.5t47 -43
t68.5 -23.5t81.5 -7q39 0 81.5 5t76.5 16v374q-76 -14 -144 -37.5t-119 -56t-80.5 -73.5t-29.5 -90z" />
    <glyph glyph-name="uniFE86" unicode="&#x624;" horiz-adv-x="1026" arabic-form="final" 
d="M0 -263q108 -44 194.5 -61.5t168.5 -17.5q69 0 120 16.5t87 45t58 66.5t34 82q5 19 10.5 49.5t9.5 68.5h-117q-92 0 -165 20.5t-124 60t-78 96.5t-27 131q0 64 24 134.5t66.5 130t100.5 98t126 38.5q72 0 131.5 -42t113.5 -128q45 -72 71.5 -167.5t33.5 -204.5h188v-167
h-189q-8 -102 -39 -192.5t-89 -158.5t-143.5 -108t-202.5 -40q-91 0 -177 19t-186 65v166zM653 308q-13 38 -31.5 76.5t-40.5 69t-48 49.5t-54 19q-29 0 -56.5 -19t-49.5 -49t-35.5 -68t-13.5 -76q0 -75 62 -116t197 -41h101q-4 39 -11 78t-20 77zM599 1235q-13 3 -27.5 5
t-30.5 2q-45 0 -76 -18.5t-31 -61.5q0 -88 142 -88h70v-97h-345v91h85l1 5q-23 26 -34 55t-11 58q0 34 14 62.5t39.5 49.5t61 32.5t78.5 11.5q31 0 64 -6v-101z" />
    <glyph glyph-name="uniFE8C" unicode="&#x626;" horiz-adv-x="684" arabic-form="medial" 
d="M498 408q0 -67 6 -115t25.5 -79t56.5 -46t98 -15v-167h-22q-100 0 -160 31.5t-90 91.5h-4q-26 -35 -58.5 -58.5t-67.5 -38t-70.5 -20.5t-68.5 -6h-143q-35 0 -52.5 26t-17.5 58t17.5 57.5t52.5 25.5h153q29 0 62.5 9t61.5 31t46.5 57.5t18.5 88.5v444h156v-375zM485 1235
q-13 3 -27.5 5t-30.5 2q-45 0 -76 -18.5t-31 -61.5q0 -88 142 -88h70v-97h-345v91h85l1 5q-23 26 -34 55t-11 58q0 34 14 62.5t39.5 49.5t61 32.5t78.5 11.5q31 0 64 -6v-101z" />
    <glyph glyph-name="uniFE90" unicode="&#x628;" horiz-adv-x="1881" arabic-form="final" 
d="M1695 783v-375q0 -67 6 -115t25.5 -79t56 -46t98.5 -15v-167h-22q-97 0 -153 29t-88 93h-4q-44 -47 -108 -73.5t-142.5 -39t-168.5 -15t-186 -2.5q-136 0 -248.5 2t-203 12.5t-158.5 32.5t-116 63q-64 55 -88 131t-24 164q0 61 9 117t20 107h154q-9 -43 -17.5 -93.5
t-8.5 -104.5q0 -60 15.5 -109.5t62.5 -84.5q29 -21 75 -34.5t119 -21t177.5 -10t251.5 -2.5q128 0 224 5t159.5 25.5t95 62t31.5 113.5v430h156zM1034 -346h-185v181h185v-181z" />
    <glyph glyph-name="uniFE92" unicode="&#x628;" horiz-adv-x="684" arabic-form="medial" 
d="M498 408q0 -67 6 -115t25.5 -79t56.5 -46t98 -15v-167h-22q-100 0 -160 31.5t-90 91.5h-4q-26 -35 -58.5 -58.5t-67.5 -38t-70.5 -20.5t-68.5 -6h-143q-35 0 -52.5 26t-17.5 58t17.5 57.5t52.5 25.5h153q29 0 62.5 9t61.5 31t46.5 57.5t18.5 88.5v444h156v-375zM480 -346
h-185v181h185v-181z" />
    <glyph glyph-name="uniFE96" unicode="&#x62a;" horiz-adv-x="1881" arabic-form="final" 
d="M1695 783v-375q0 -67 6 -115t25.5 -79t56 -46t98.5 -15v-167h-22q-97 0 -153 29t-88 93h-4q-44 -47 -108 -73.5t-142.5 -39t-168.5 -15t-186 -2.5q-136 0 -248.5 2t-203 12.5t-158.5 32.5t-116 63q-64 55 -88 131t-24 164q0 61 9 117t20 107h154q-9 -43 -17.5 -93.5
t-8.5 -104.5q0 -60 15.5 -109.5t62.5 -84.5q29 -21 75 -34.5t119 -21t177.5 -10t251.5 -2.5q128 0 224 5t159.5 25.5t95 62t31.5 113.5v430h156zM873 1021h-185v181h185v-181zM1195 1021h-185v181h185v-181z" />
    <glyph glyph-name="uniFE98" unicode="&#x62a;" horiz-adv-x="684" arabic-form="medial" 
d="M498 408q0 -67 6 -115t25.5 -79t56.5 -46t98 -15v-167h-22q-100 0 -160 31.5t-90 91.5h-4q-26 -35 -58.5 -58.5t-67.5 -38t-70.5 -20.5t-68.5 -6h-143q-35 0 -52.5 26t-17.5 58t17.5 57.5t52.5 25.5h153q29 0 62.5 9t61.5 31t46.5 57.5t18.5 88.5v444h156v-375zM344 1021
h-185v181h185v-181zM666 1021h-185v181h185v-181z" />
    <glyph glyph-name="uniFE9A" unicode="&#x62b;" horiz-adv-x="1881" arabic-form="final" 
d="M1695 783v-375q0 -67 6 -115t25.5 -79t56 -46t98.5 -15v-167h-22q-97 0 -153 29t-88 93h-4q-44 -47 -108 -73.5t-142.5 -39t-168.5 -15t-186 -2.5q-136 0 -248.5 2t-203 12.5t-158.5 32.5t-116 63q-64 55 -88 131t-24 164q0 61 9 117t20 107h154q-9 -43 -17.5 -93.5
t-8.5 -104.5q0 -60 15.5 -109.5t62.5 -84.5q29 -21 75 -34.5t119 -21t177.5 -10t251.5 -2.5q128 0 224 5t159.5 25.5t95 62t31.5 113.5v430h156zM873 1021h-185v181h185v-181zM1195 1021h-185v181h185v-181zM1034 1301h-185v181h185v-181z" />
    <glyph glyph-name="uniFE9C" unicode="&#x62b;" horiz-adv-x="684" arabic-form="medial" 
d="M498 408q0 -67 6 -115t25.5 -79t56.5 -46t98 -15v-167h-22q-100 0 -160 31.5t-90 91.5h-4q-26 -35 -58.5 -58.5t-67.5 -38t-70.5 -20.5t-68.5 -6h-143q-35 0 -52.5 26t-17.5 58t17.5 57.5t52.5 25.5h153q29 0 62.5 9t61.5 31t46.5 57.5t18.5 88.5v444h156v-375zM344 1021
h-185v181h185v-181zM666 1021h-185v181h185v-181zM505 1301h-185v181h185v-181z" />
    <glyph glyph-name="uniFEA0" unicode="&#x62c;" horiz-adv-x="1197" arabic-form="medial" 
d="M0 -14q-35 0 -52.5 26t-17.5 58t17.5 57.5t52.5 25.5h59q123 0 235 27.5t215.5 72t199 100.5l185.5 113v5q-57 27 -105 53.5t-100 48t-114 35t-149 13.5q-78 0 -141 -10t-114 -26v157q55 18 121 29.5t144 11.5q80 0 142 -14.5t115 -36t101.5 -46.5t101 -47t113.5 -37
t139 -16l-32 -200q-32 -8 -72 -28.5t-89 -49.5q1 -43 11 -72.5t36.5 -48t73.5 -26.5t121 -8v-167h-20q-98 0 -160.5 20.5t-99.5 55.5t-52 81.5t-17 99.5q-72 -43 -157.5 -88.5t-185.5 -83t-213.5 -61.5t-241.5 -24h-50zM691 -346h-185v181h185v-181z" />
    <glyph glyph-name="uniFEA4" unicode="&#x62d;" horiz-adv-x="1197" arabic-form="medial" 
d="M0 -14q-35 0 -52.5 26t-17.5 58t17.5 57.5t52.5 25.5h59q123 0 235 27.5t215.5 72t199 100.5l185.5 113v5q-57 27 -105 53.5t-100 48t-114 35t-149 13.5q-78 0 -141 -10t-114 -26v157q55 18 121 29.5t144 11.5q80 0 142 -14.5t115 -36t101.5 -46.5t101 -47t113.5 -37
t139 -16l-32 -200q-32 -8 -72 -28.5t-89 -49.5q1 -43 11 -72.5t36.5 -48t73.5 -26.5t121 -8v-167h-20q-98 0 -160.5 20.5t-99.5 55.5t-52 81.5t-17 99.5q-72 -43 -157.5 -88.5t-185.5 -83t-213.5 -61.5t-241.5 -24h-50z" />
    <glyph glyph-name="uniFEA8" unicode="&#x62e;" horiz-adv-x="1197" arabic-form="medial" 
d="M0 -14q-35 0 -52.5 26t-17.5 58t17.5 57.5t52.5 25.5h59q123 0 235 27.5t215.5 72t199 100.5l185.5 113v5q-57 27 -105 53.5t-100 48t-114 35t-149 13.5q-78 0 -141 -10t-114 -26v157q55 18 121 29.5t144 11.5q80 0 142 -14.5t115 -36t101.5 -46.5t101 -47t113.5 -37
t139 -16l-32 -200q-32 -8 -72 -28.5t-89 -49.5q1 -43 11 -72.5t36.5 -48t73.5 -26.5t121 -8v-167h-20q-98 0 -160.5 20.5t-99.5 55.5t-52 81.5t-17 99.5q-72 -43 -157.5 -88.5t-185.5 -83t-213.5 -61.5t-241.5 -24h-50zM691 940h-185v181h185v-181z" />
    <glyph glyph-name="uniFEAA" unicode="&#x62f;" horiz-adv-x="1026" arabic-form="final" 
d="M82 169q97 -11 180 -16.5t140 -5.5q146 0 209.5 35.5t63.5 113.5q0 46 -14 119t-38.5 161t-56.5 185.5t-68 192.5h166q56 -167 94.5 -309.5t67.5 -270.5q7 -32 19 -70.5t34.5 -72t57.5 -56t89 -22.5v-167h-22q-33 0 -64.5 8t-59.5 25.5t-50.5 46t-37.5 69.5h-5
q-26 -45 -66.5 -75t-90.5 -48.5t-108.5 -26t-120.5 -7.5q-58 0 -135 6t-152 16z" />
    <glyph glyph-name="uniFEAC" unicode="&#x630;" horiz-adv-x="1026" arabic-form="final" 
d="M82 169q97 -11 180 -16.5t140 -5.5q146 0 209.5 35.5t63.5 113.5q0 46 -14 119t-38.5 161t-56.5 185.5t-68 192.5h166q56 -167 94.5 -309.5t67.5 -270.5q7 -32 19 -70.5t34.5 -72t57.5 -56t89 -22.5v-167h-22q-33 0 -64.5 8t-59.5 25.5t-50.5 46t-37.5 69.5h-5
q-26 -45 -66.5 -75t-90.5 -48.5t-108.5 -26t-120.5 -7.5q-58 0 -135 6t-152 16zM634 1192h-185v181h185v-181z" />
    <glyph glyph-name="uniFEB2" unicode="&#x633;" horiz-adv-x="2394" arabic-form="final" 
d="M1879 153q38 0 70 7.5t55 28.5t35.5 57t12.5 93v444h156v-369q0 -67 6 -116t25.5 -81.5t56 -48t98.5 -15.5v-167h-22q-93 0 -149 27t-87 84h-6q-23 -33 -52 -54t-62 -34t-68.5 -18t-71.5 -5q-44 0 -83.5 6.5t-72.5 20.5t-59 37.5t-44 58.5h-4q-25 -35 -56.5 -58.5
t-65.5 -38t-69 -20.5t-66 -6q-66 0 -107 19t-66 51l-5 -1q-3 -132 -33.5 -237.5t-94.5 -179t-166 -112.5t-247 -39q-138 0 -230.5 34.5t-148.5 98t-79.5 155t-23.5 205.5q0 64 7.5 132.5t21.5 146.5h151q-11 -75 -17 -138.5t-6 -120.5q0 -95 18 -161t57.5 -106.5
t102.5 -58.5t153 -18q105 0 178.5 24.5t120 79.5t68 144.5t21.5 218.5q0 83 -9 176.5t-25 213.5h155q8 -63 14 -119t11 -112q6 -66 50 -97.5t138 -31.5q34 0 65.5 8t55.5 29t38.5 57t14.5 92v267h156v-198q0 -67 5.5 -115t25 -79t55.5 -46t98 -15z" />
    <glyph glyph-name="uniFEB4" unicode="&#x633;" horiz-adv-x="1710" arabic-form="medial" 
d="M1195 153q38 0 70 7.5t55 28.5t35.5 57t12.5 93v444h156v-369q0 -67 6 -116t25.5 -81.5t56 -48t98.5 -15.5v-167h-22q-93 0 -149 27t-87 84h-6q-23 -33 -52 -54t-62 -34t-68.5 -18t-71.5 -5q-44 0 -83.5 6.5t-72.5 20.5t-59 37.5t-44 58.5h-4q-26 -35 -59 -58.5
t-68.5 -38t-71.5 -20.5t-69 -6q-100 0 -159.5 31.5t-89.5 91.5h-4q-26 -35 -58.5 -58.5t-67.5 -38t-70.5 -20.5t-68.5 -6h-143q-35 0 -52.5 26t-17.5 58t17.5 57.5t52.5 25.5h153q29 0 62.5 9t61.5 31t46.5 57.5t18.5 88.5v267h156v-201q0 -65 5.5 -112.5t23.5 -78.5t52 -46
t91 -15q36 0 69.5 8t59 29t41 57t15.5 92v267h156v-198q0 -67 5.5 -115t25 -79t55.5 -46t98 -15z" />
    </font>
</defs>
</svg>
